<svg width="700" height="700" viewBox="0 0 700 700" fill="none" xmlns="http://www.w3.org/2000/svg">
<path d="M345.984 564.716C343.674 564.716 341.379 564.11 339.354 562.944L318.249 550.45C315.097 548.687 316.635 548.063 317.675 547.704C321.878 546.233 322.731 545.9 327.217 543.353C327.688 543.084 328.305 543.179 328.788 543.463L345.001 553.084C345.587 553.401 346.417 553.401 346.96 553.084L410.176 516.595C410.762 516.262 411.142 515.582 411.142 514.886V441.938C411.142 441.21 410.762 440.561 410.164 440.197L346.973 403.739C346.387 403.391 345.612 403.391 345.027 403.739L281.848 440.197C281.236 440.545 280.847 441.225 280.847 441.922V514.87C280.847 515.566 281.226 516.231 281.828 516.563L299.139 526.564C308.538 531.263 314.282 525.725 314.282 520.155V448.156C314.282 447.128 315.089 446.337 316.118 446.337H324.125C325.122 446.337 325.945 447.128 325.945 448.156V520.187C325.945 532.719 319.109 539.919 307.225 539.919C303.57 539.919 300.69 539.919 292.651 535.963L276.068 526.405C271.969 524.032 269.438 519.601 269.438 514.87V441.922C269.438 437.175 271.969 432.744 276.068 430.402L339.347 393.896C343.351 391.634 348.668 391.634 352.639 393.896L415.84 430.418C419.922 432.776 422.47 437.19 422.47 441.938V514.886C422.47 519.617 419.922 524.032 415.84 526.405L352.639 562.911C350.614 564.082 348.319 564.683 345.978 564.683" fill="#689F63"/>
<path d="M365.51 514.45C337.85 514.45 332.051 501.753 332.051 491.104C332.051 490.091 332.867 489.284 333.882 489.284H342.047C342.949 489.284 343.708 489.941 343.851 490.832C345.085 499.152 348.756 503.348 365.482 503.348C378.806 503.348 384.47 500.339 384.47 493.273C384.47 489.207 382.856 486.184 362.159 484.159C344.848 482.45 334.151 478.636 334.151 464.79C334.151 452.036 344.911 444.441 362.934 444.441C383.173 444.441 393.205 451.467 394.471 466.563C394.519 467.085 394.329 467.591 393.981 467.971C393.633 468.335 393.142 468.556 392.636 468.556H384.423C383.569 468.556 382.825 467.955 382.651 467.132C380.673 458.382 375.894 455.581 362.903 455.581C348.36 455.581 346.667 460.645 346.667 464.442C346.667 469.047 348.661 470.392 368.283 472.987C387.714 475.566 396.94 479.206 396.94 492.862C396.94 506.629 385.452 514.525 365.419 514.525M442.417 437.162H444.538C446.278 437.162 446.611 435.943 446.611 435.231C446.611 433.364 445.329 433.364 444.617 433.364H442.433L442.417 437.162ZM439.838 431.181H444.538C446.152 431.181 449.317 431.181 449.317 434.788C449.317 437.304 447.703 437.827 446.737 438.143C448.62 438.27 448.747 439.504 449 441.244C449.127 442.336 449.332 444.219 449.712 444.852H446.816C446.737 444.219 446.294 440.738 446.294 440.548C446.104 439.773 445.835 439.393 444.87 439.393H442.481V444.868H439.838V431.181ZM434.189 437.985C434.189 443.65 438.762 448.239 444.38 448.239C450.045 448.239 454.618 443.555 454.618 437.985C454.618 432.304 449.981 427.794 444.364 427.794C438.825 427.794 434.173 432.241 434.173 437.969M456.58 438.016C456.58 444.726 451.089 450.201 444.395 450.201C437.749 450.201 432.211 444.789 432.211 438.016C432.211 431.117 437.876 425.832 444.395 425.832C450.962 425.832 456.564 431.133 456.564 438.016" fill="#689F63"/>
<path fill-rule="evenodd" clip-rule="evenodd" d="M150.225 279.285C150.225 276.373 148.69 273.699 146.178 272.251L79.1541 233.688C78.0227 233.024 76.7552 232.676 75.4703 232.628H74.7772C73.4923 232.676 72.2248 233.024 71.0744 233.688L4.05407 272.251C1.55707 273.707 0 276.381 0 279.293L0.147162 383.16C0.147162 384.6 0.890883 385.945 2.15679 386.657C3.39105 387.417 4.94179 387.417 6.17605 386.657L46.0205 363.839C48.5365 362.343 50.0714 359.697 50.0714 356.814V308.29C50.0714 305.394 51.6064 302.72 54.1144 301.28L71.0776 291.51C72.3372 290.782 73.7202 290.422 75.1285 290.422C76.5147 290.422 77.9293 290.779 79.1541 291.509L96.1094 301.275C98.619 302.715 100.16 305.389 100.16 308.285V356.806C100.16 359.686 101.716 362.344 104.219 363.832L144.038 386.634C145.288 387.377 146.844 387.377 148.089 386.634C149.317 385.922 150.096 384.577 150.096 383.137L150.225 279.285ZM466.494 333.364C466.494 334.087 466.109 334.757 465.481 335.114L442.46 348.384C441.835 348.744 441.063 348.744 440.44 348.384L417.416 335.114C416.783 334.755 416.403 334.086 416.403 333.364V306.787C416.403 306.062 416.783 305.394 417.4 305.03L440.408 291.738C441.041 291.374 441.816 291.374 442.449 291.738L465.473 305.03C466.106 305.394 466.486 306.062 466.486 306.787L466.494 333.364ZM472.712 136.512C471.456 135.813 469.927 135.832 468.687 136.555C467.453 137.283 466.69 138.612 466.69 140.052V242.907C466.69 243.92 466.152 244.854 465.275 245.36C464.405 245.866 463.321 245.866 462.443 245.36L445.654 235.69C443.153 234.244 440.074 234.244 437.564 235.69L370.519 274.384C368.014 275.824 366.468 278.498 366.468 281.378V358.789C366.468 361.684 368.014 364.343 370.519 365.799L437.564 404.519C440.068 405.959 443.15 405.959 445.662 404.519L512.707 365.783C515.207 364.327 516.758 361.668 516.758 358.773V165.848C516.758 162.911 515.16 160.21 512.596 158.775L472.712 136.512ZM695.976 306.087C698.467 304.641 700 301.97 700 299.09V280.329C700 277.443 698.465 274.78 695.97 273.327L629.351 234.654C626.835 233.198 623.75 233.198 621.234 234.654L554.204 273.343C551.688 274.799 550.153 277.457 550.153 280.353V357.731C550.153 360.643 551.719 363.333 554.235 364.773L620.838 402.735C623.291 404.143 626.297 404.159 628.782 402.782L669.069 380.391C670.335 379.679 671.142 378.334 671.142 376.878C671.142 375.423 670.367 374.062 669.101 373.35L601.659 334.644C600.394 333.932 599.618 332.587 599.618 331.147V306.874C599.618 305.424 600.378 304.089 601.644 303.367L622.626 291.262C623.876 290.534 625.411 290.534 626.661 291.262L647.659 303.367C648.91 304.079 649.685 305.424 649.685 306.864V325.948C649.685 327.388 650.46 328.733 651.71 329.461C652.96 330.173 654.511 330.173 655.761 329.445L695.976 306.087Z" fill="#333333"/>
<path fill-rule="evenodd" clip-rule="evenodd" d="M624.312 302.468C624.787 302.188 625.382 302.188 625.863 302.468L638.728 309.889C639.209 310.168 639.503 310.68 639.503 311.234V326.093C639.503 326.647 639.209 327.159 638.728 327.438L625.863 334.859C625.382 335.139 624.787 335.139 624.312 334.859L611.455 327.438C610.965 327.159 610.664 326.647 610.664 326.093V311.234C610.664 310.68 610.949 310.168 611.439 309.889L624.312 302.468Z" fill="#689F63"/>
<mask id="mask0_343_162" style="mask-type:luminance" maskUnits="userSpaceOnUse" x="183" y="233" width="151" height="172">
<path d="M254.327 235.041L187.662 273.52C185.165 274.96 183.633 277.618 183.633 280.492V357.503C183.633 360.378 185.165 363.035 187.662 364.475L254.332 402.984C256.824 404.419 259.897 404.419 262.387 402.984L329.046 364.475C331.53 363.035 333.065 360.377 333.065 357.503V280.492C333.065 277.618 331.531 274.96 329.03 273.52L262.38 235.041C261.13 234.324 259.738 233.965 258.345 233.965C256.953 233.965 255.56 234.324 254.31 235.041" fill="white"/>
</mask>
<g mask="url(#mask0_343_162)">
<path d="M400.434 266.987L212.582 174.908L116.262 371.399L304.11 463.483L400.434 266.987Z" fill="url(#paint0_linear_343_162)"/>
</g>
<mask id="mask1_343_162" style="mask-type:luminance" maskUnits="userSpaceOnUse" x="185" y="234" width="146" height="171">
<path d="M185.285 362.39C185.923 363.217 186.72 363.934 187.659 364.472L244.846 397.504L254.372 402.979C255.796 403.802 257.42 404.15 259.015 404.032C259.547 403.989 260.078 403.889 260.597 403.742L330.909 274.999C330.371 274.414 329.741 273.923 329.035 273.512L285.384 248.304L262.309 235.028C261.654 234.648 260.944 234.379 260.221 234.189L185.285 362.39Z" fill="white"/>
</mask>
<g mask="url(#mask1_343_162)">
<path d="M104.066 294.219L236.71 473.746L412.133 344.139L279.482 164.617L104.066 294.219Z" fill="url(#paint1_linear_343_162)"/>
</g>
<mask id="mask2_343_162" style="mask-type:luminance" maskUnits="userSpaceOnUse" x="187" y="233" width="146" height="171">
<path d="M257.548 234.009C256.429 234.119 255.336 234.467 254.328 235.04L187.852 273.408L259.534 403.971C260.531 403.829 261.512 403.496 262.398 402.984L329.064 364.475C331.121 363.282 332.529 361.262 332.956 358.974L259.882 234.14C259.344 234.034 258.806 233.979 258.252 233.979C258.03 233.979 257.809 233.99 257.587 234.01" fill="white"/>
</mask>
<g mask="url(#mask2_343_162)">
<path d="M187.852 233.979V403.974H332.929V233.979H187.852Z" fill="url(#paint2_linear_343_162)"/>
</g>
<defs>
<linearGradient id="paint0_linear_343_162" x1="306.452" y1="220.803" x2="210.138" y2="417.281" gradientUnits="userSpaceOnUse">
<stop offset="0.3" stop-color="#3E863D"/>
<stop offset="0.5" stop-color="#55934F"/>
<stop offset="0.8" stop-color="#5AAD45"/>
</linearGradient>
<linearGradient id="paint1_linear_343_162" x1="171.183" y1="385.012" x2="346.613" y2="255.39" gradientUnits="userSpaceOnUse">
<stop offset="0.57" stop-color="#3E863D"/>
<stop offset="0.72" stop-color="#619857"/>
<stop offset="1" stop-color="#76AC64"/>
</linearGradient>
<linearGradient id="paint2_linear_343_162" x1="187.901" y1="318.981" x2="332.957" y2="318.981" gradientUnits="userSpaceOnUse">
<stop offset="0.16" stop-color="#6BBF47"/>
<stop offset="0.38" stop-color="#79B461"/>
<stop offset="0.47" stop-color="#75AC64"/>
<stop offset="0.7" stop-color="#659E5A"/>
<stop offset="0.9" stop-color="#3E863D"/>
</linearGradient>
</defs>
</svg>
