<svg width="700" height="700" viewBox="0 0 700 700" fill="none" xmlns="http://www.w3.org/2000/svg">
<mask id="mask0_345_167" style="mask-type:luminance" maskUnits="userSpaceOnUse" x="0" y="36" width="700" height="629">
<path d="M700 36H0V664.907H700V36Z" fill="white"/>
</mask>
<g mask="url(#mask0_345_167)">
<path d="M431.977 425.612L418.551 448.929C416.564 452.377 413.702 455.245 410.256 457.237C406.807 459.228 402.896 460.278 398.914 460.278H296.052C292.071 460.278 288.157 459.228 284.711 457.237C281.262 455.245 278.401 452.377 276.413 448.929L262.985 425.612H431.977ZM469.567 360.343L445.894 401.451H249.073L225.398 360.343H469.567ZM446.763 296.516L469.605 336.182H225.359L248.203 296.516H446.763ZM398.91 236.18C402.893 236.179 406.805 237.228 410.254 239.22C413.702 241.213 416.564 244.079 418.551 247.53L432.847 272.355H262.117L276.415 247.53C278.405 244.08 281.266 241.214 284.713 239.221C288.162 237.229 292.073 236.179 296.054 236.18H398.91Z" fill="#00435B"/>
<path d="M146.352 225.36C134.958 170.109 132.511 127.732 139.877 96.9616C144.258 78.6605 152.264 63.7308 164.443 52.9573C177.3 41.5851 193.553 36.0042 211.819 36.0042C241.945 36.0042 273.621 49.7444 307.467 75.8442C321.275 86.4916 335.605 99.3242 350.484 114.35C351.672 112.827 353.008 111.388 354.501 110.057C396.572 72.5682 431.994 49.2714 462.291 40.2917C480.305 34.9487 497.216 34.4401 512.617 39.6245C528.875 45.0933 541.828 56.4054 550.97 72.2456C566.053 98.389 570.027 132.741 564.407 175.159C562.114 192.449 558.196 211.281 552.658 231.687C554.747 231.939 556.843 232.404 558.915 233.09C612.294 250.782 650.093 269.802 672.977 291.543C686.594 304.477 695.483 318.874 698.699 334.816C702.09 351.643 698.782 368.516 689.655 384.345C674.597 410.453 646.916 431.04 607.481 447.347C591.647 453.896 573.731 459.827 553.712 465.161C554.624 467.223 555.335 469.414 555.808 471.711C567.202 526.962 569.648 569.339 562.283 600.109C557.903 618.409 549.894 633.339 537.715 644.112C524.862 655.485 508.606 661.066 490.342 661.066C460.212 661.066 428.541 647.326 394.693 621.226C380.738 610.464 366.252 597.472 351.199 582.239C349.614 584.716 347.697 586.963 345.499 588.916C303.428 626.41 268.007 649.703 237.71 658.684C219.695 664.027 202.784 664.536 187.384 659.352C171.126 653.884 158.173 642.57 149.032 626.73C133.949 600.588 129.973 566.236 135.595 523.817C137.971 505.904 142.092 486.331 147.949 465.07C145.615 464.832 143.313 464.34 141.086 463.6C87.7079 445.908 49.908 426.889 27.024 405.148C13.4068 392.214 4.51731 377.814 1.30169 361.875C-2.08894 345.048 1.21966 328.173 10.347 312.344C25.4025 286.238 53.0854 265.649 92.5206 249.342C108.826 242.597 127.34 236.511 148.083 231.053C147.332 229.213 146.753 227.307 146.352 225.36Z" fill="#002B3B"/>
<path d="M518.567 477.144C521.114 476.693 523.738 477.238 525.893 478.669C528.05 480.099 529.573 482.305 530.147 484.827L530.209 485.132L530.775 488.072C549.122 584.531 536.197 632.762 492.002 632.762C448.763 632.762 393.717 591.607 326.868 509.297C325.68 507.834 324.927 506.067 324.692 504.198C324.459 502.328 324.753 500.429 325.544 498.72C326.336 497.01 327.591 495.555 329.167 494.522C330.743 493.489 332.578 492.919 334.461 492.876H334.773L338.294 492.902C366.426 493.054 393.772 492.072 420.336 489.96C451.692 487.463 484.437 483.191 518.567 477.144ZM215.048 404.229L215.218 404.515L216.985 407.597C231.139 432.206 245.886 455.563 261.226 477.67C279.295 503.702 299.61 530.056 322.176 556.733C323.85 558.714 324.696 561.261 324.539 563.851C324.382 566.438 323.233 568.867 321.33 570.63L321.075 570.857L318.806 572.81C244.139 636.787 195.609 649.56 173.217 611.125C151.296 573.508 159.245 505.106 197.058 405.917C197.728 404.161 198.876 402.625 200.373 401.489C201.87 400.35 203.655 399.654 205.527 399.478C207.4 399.302 209.284 399.654 210.966 400.494C212.649 401.332 214.062 402.628 215.048 404.229ZM556.455 261.894L556.76 261.993L559.571 262.963C651.732 295.022 686.747 330.255 664.616 368.659C642.97 406.218 580.041 433.567 475.832 450.701C473.942 451.013 472.003 450.78 470.243 450.029C468.482 449.278 466.972 448.039 465.89 446.461C464.808 444.883 464.198 443.029 464.13 441.116C464.064 439.203 464.543 437.311 465.515 435.661C480.438 410.27 493.884 385.008 505.844 359.871C519.406 331.364 532.135 300.764 544.03 268.079C544.893 265.703 546.62 263.739 548.864 262.577C551.11 261.414 553.708 261.136 556.147 261.802L556.455 261.894ZM230.907 245.752C232.049 246.422 233.045 247.31 233.843 248.366C234.64 249.422 235.222 250.622 235.555 251.904C235.888 253.185 235.964 254.517 235.782 255.827C235.599 257.136 235.16 258.398 234.49 259.539C219.56 284.928 206.117 310.19 194.157 335.327C180.595 363.834 167.866 394.432 155.972 427.121C155.089 429.548 153.307 431.544 150.994 432.693C148.682 433.845 146.016 434.064 143.547 433.306L143.24 433.205L140.43 432.233C48.2673 400.176 13.2536 364.941 35.3857 326.539C57.031 288.977 119.96 261.631 224.169 244.497C226.494 244.114 228.878 244.557 230.907 245.752ZM526.783 87.8474C548.705 125.467 540.757 193.87 502.943 293.056C502.273 294.815 501.125 296.348 499.628 297.487C498.13 298.626 496.346 299.322 494.473 299.498C492.601 299.674 490.717 299.322 489.035 298.482C487.351 297.642 485.938 296.348 484.952 294.747L484.782 294.46L483.018 291.378C468.862 266.768 454.114 243.411 438.775 221.304C420.705 195.273 400.39 168.919 377.826 142.242C376.151 140.263 375.304 137.713 375.461 135.125C375.618 132.536 376.768 130.108 378.67 128.346L378.925 128.119L381.195 126.164C455.862 62.188 504.392 49.4156 526.783 87.8474ZM211.777 64.9551C255.02 64.9551 310.065 106.108 376.912 188.418C378.1 189.881 378.853 191.647 379.086 193.517C379.322 195.387 379.025 197.285 378.234 198.995C377.444 200.705 376.189 202.159 374.613 203.192C373.037 204.225 371.202 204.795 369.319 204.838H369.007L365.486 204.816C337.357 204.663 310.008 205.644 283.446 207.758C252.088 210.254 219.343 214.525 185.213 220.574C182.666 221.025 180.043 220.478 177.887 219.048C175.732 217.617 174.21 215.413 173.636 212.89L173.57 212.581L173.004 209.645C154.656 113.184 167.579 64.9551 211.777 64.9551Z" fill="#FF4154"/>
<path d="M304.324 237.439H390.663C396.867 237.439 402.961 239.076 408.33 242.185C413.698 245.293 418.15 249.763 421.236 255.144L464.591 330.683C467.655 336.024 469.267 342.073 469.267 348.231C469.267 354.388 467.655 360.438 464.591 365.778L421.236 441.317C418.15 446.699 413.696 451.168 408.328 454.277C402.961 457.384 396.867 459.022 390.663 459.022H304.324C291.695 459.022 280.034 452.268 273.747 441.317L230.399 365.778C227.334 360.438 225.722 354.388 225.722 348.231C225.722 342.073 227.334 336.024 230.399 330.683L273.751 255.144C276.837 249.763 281.291 245.293 286.66 242.185C292.028 239.076 298.12 237.439 304.324 237.439ZM377.507 260.239C390.14 260.239 401.81 267.001 408.09 277.96L438.321 330.7C441.38 336.037 442.99 342.08 442.99 348.231C442.99 354.382 441.38 360.425 438.321 365.761L408.09 418.501C405.004 423.887 400.55 428.36 395.179 431.472C389.809 434.583 383.713 436.221 377.507 436.221H317.487C304.854 436.221 293.184 429.461 286.902 418.501L256.67 365.761C253.612 360.425 252.004 354.382 252.004 348.231C252.004 342.08 253.612 336.037 256.67 330.7L286.902 277.96C289.99 272.577 294.442 268.102 299.812 264.992C305.181 261.881 311.277 260.241 317.483 260.241L377.507 260.239ZM363.323 285.176H331.671C325.469 285.176 319.377 286.812 314.011 289.917C308.644 293.024 304.19 297.491 301.102 302.868L285.128 330.669C282.057 336.012 280.441 342.067 280.441 348.231C280.441 354.395 282.057 360.45 285.128 365.793L301.102 393.598C304.19 398.973 308.644 403.44 314.011 406.547C319.377 409.652 325.469 411.288 331.671 411.288H363.323C375.945 411.288 387.605 404.541 393.89 393.598L409.865 365.793C412.934 360.45 414.551 354.395 414.551 348.231C414.551 342.067 412.934 336.012 409.865 330.669L393.89 302.866C390.801 297.489 386.349 293.022 380.983 289.915C375.615 286.809 369.523 285.176 363.323 285.176ZM349.668 309.042C362.277 309.042 373.93 315.779 380.219 326.706L382.485 330.643C385.564 335.992 387.185 342.056 387.185 348.229C387.185 354.401 385.564 360.463 382.485 365.812L380.219 369.751C377.127 375.119 372.677 379.58 367.313 382.681C361.949 385.782 355.863 387.415 349.668 387.415H345.326C339.13 387.415 333.043 385.782 327.681 382.681C322.317 379.58 317.865 375.119 314.774 369.751L312.507 365.812C309.429 360.463 307.809 354.401 307.809 348.229C307.809 342.056 309.429 335.992 312.507 330.643L314.774 326.706C317.865 321.336 322.317 316.878 327.681 313.777C333.043 310.676 339.13 309.042 345.326 309.042H349.668ZM347.502 332.554C344.749 332.554 342.043 333.277 339.656 334.652C337.272 336.028 335.289 338.007 333.913 340.391C332.536 342.773 331.811 345.478 331.811 348.229C331.811 350.98 332.536 353.682 333.913 356.064C335.289 358.45 337.27 360.429 339.654 361.806C342.038 363.182 344.745 363.905 347.498 363.905C350.251 363.905 352.955 363.182 355.342 361.806C357.726 360.429 359.707 358.45 361.083 356.064C362.46 353.682 363.185 350.98 363.185 348.229C363.185 345.478 362.46 342.773 361.083 340.391C359.707 338.007 357.726 336.031 355.342 334.654C352.957 333.277 350.253 332.554 347.502 332.554Z" fill="#FFD94C"/>
</g>
</svg>
