<svg width="483" height="1098" viewBox="0 0 483 1098" fill="none" xmlns="http://www.w3.org/2000/svg">
<path opacity="0.996078" d="M264 569H268V573C271.467 571.6 272.8 572.433 272 575.5L274 578.5L272 581.5C273 585.5 272.5 588 270.5 589C267.033 587.867 265.867 589.033 267 592.5L259 596C260.2 599.267 258.7 600.267 254.5 599L253 602.5V604H248V607.5C247.2 609.167 245.533 609.667 243 609C244.467 612.733 243.3 614.067 239.5 613L235.5 615L234 614.5L233 618L225.5 619L223 621.5L222.5 623H213.5L212.5 624H203.5L198 620.5V612.5L199.5 612L202.5 608C206.1 609.267 207.6 608.767 207 606.5L209.5 603H221.5L222 599.5C223.067 597.5 225.4 597 229 598L230.5 595C232.233 595.467 232.733 594.8 232 593H237V589H238.5L242 588C240.533 584.267 241.7 582.933 245.5 584C247.167 583.2 247.667 581.533 247 579H252V577.5L253.5 575L255 575.5C254.467 573.767 255.3 573.267 257.5 574L262 573L264 569Z" fill="#00254E"/>
<path opacity="0.996078" d="M237 0H253.5L254 1.5L257.5 4V2L259 5L262.5 4L263.5 5H273V8C275 7.33333 275.667 8 275 10H280C279.333 12 280 12.6667 282 12V15H285C284.333 17 285 17.6667 287 17V19.5L288.5 24C289.7 22.2 290.867 22.7 292 25.5C291.533 28.0333 292.033 29.5333 293.5 30H297V37.5C297.8 39.7 299.467 40.5333 302 40C301.133 45.9333 301.8 50.2667 304 53L307 53.5V63.5L310.5 68L312 68.5V83.5L315.5 88L317 88.5V111.5L318 114.5L319 116.5L318.5 118L322 120.5L320 121.5L322 123.5V193.5L319.5 198C317.767 197.467 317.267 198.3 318 200.5L317 201.5V222.5L315.5 224L313 225.5C314.667 226.5 314.333 227.5 312 228.5V249.5L314.5 252H335.5L337 253.5L338.5 257H346.5L348 258.5L347.5 260H349L349.5 262H356V265.5C356.8 267.167 358.467 267.667 361 267L362 272C365.467 270.6 366.8 271.433 366 274.5L367.5 277H369.5C371.5 276.4 372 277.567 371 280.5C371.8 282.167 373.467 282.667 376 282L377 286C378.4 287.067 380.9 287.4 384.5 287C385.5 284.667 386.5 284.333 387.5 286H389.5L393.5 282H402.5L408.5 286L409.5 285L413.5 287H424.5L425 288.5L426 292H431.5L432 293.5C433.4 296.433 436.067 297.6 440 297L442.5 302C444.7 301.267 445.533 301.767 445 303.5L446 306L451 308.5C449.133 309.7 449.633 310.867 452.5 312C455.3 311.133 456.133 312.3 455 315.5L460 319.5L461 326C465.267 324.467 466.6 326.3 465 331.5L466 335L470 336C469.333 340.6 469.667 343.933 471 346H475V357.5L476.5 361L480 363.5V389.5L481 390.5V400L483 400.5V411.5H482L481.5 408L481 418.5L480 419.5V447L476 449.5L475 451.5V464.5L473.5 466C471.3 465.267 470.467 465.767 471 467.5L470 468.5V475C467.467 474.533 465.8 475.367 465 477.5V485H461V486.5L460 489.5C460.733 491.7 460.233 492.533 458.5 492V494L457 493.5C457.467 495.233 456.8 495.733 455 495V500C451.533 498.6 450.2 499.433 451 502.5L447.5 508L446 508.5L446.5 510L442 512.5L439.5 516L437 517.5L435.5 520C434.033 519.533 433.533 520.033 434 521.5L431 523V525H426C427.4 528.467 426.567 529.8 423.5 529L417 532.5L415.5 535L413.5 534L411 535L409.5 539L406 540.5L405 544.5L406 549.5L402 552.5L401 564L397 565L396 567.5V569.5L392.5 574H391V579H387.5L386 582.5C386.533 584.033 386.033 584.533 384.5 584L381 586.5C381.867 589.3 380.7 590.133 377.5 589L376 592.5V594H371V595.5L369 599L366 599.5V619.5L367 623L371 623.5V636.5C373.067 637.7 373.567 638.867 372.5 640L376 642.5V656.5L379.5 661L381 661.5V675.5L384.5 681L386 681.5V696.5L389.5 702L391 702.5V720.5L393 725L396 726.5V745.5L399.5 751L401 751.5V770.5V772.5L403.5 776L406 777.5V806.5L407.5 807L407 808.5L411 814.5V842.5L412 843.5L411 847C412.8 846.267 413.467 846.767 413 848.5L416 852.5V854.5V905.5L417 906.5L416 911.5L417 912.5L417.5 921L419 920.5L420 931.5H418L418.5 968L420 967.5L418.5 975L417.5 973L416 986.5V988.5V1030.5L412 1034.5V1036.5L412.5 1038C411.033 1037.53 410.533 1038.03 411 1039.5V1041.5V1063.5L408.5 1064L408 1066.5C408.533 1068.03 408.033 1068.53 406.5 1068L406 1070.5V1084.5C401.467 1086.5 399.8 1091 401 1098L377 1097.5L381 1094.5V1082.5C383.867 1080.7 385.533 1077.7 386 1073.5V1071.5V1058.5L390 1053.5C389.2 1050.37 389.533 1048.37 391 1047.5V1021.5L395 1013.5L396 987.5V985.5V915.5L395 914.5L396 913.5V903.5L395 902.5V885.5L393.5 881L392 881.5L391 878.5V876.5V844.5L390 843.5L391 839.5L389 833.5L390 831.5L388 827L386 826.5V800.5L384 796.5L385 793.5L381 788.5V768.5L377.5 762L376 761.5V740.5L374 734L371 732.5V715.5L367.5 712L366 711.5V693.5L362.5 689L361 688.5V673.5L356 668.5V654.5L353.5 651L352 651.5L352.5 650L351 649.5V635.5L346 633V619.5L342.5 616L341 616.5C342.533 615.7 342.367 614.867 340.5 614L336.5 613H334.5L323.5 614L317.5 618H300L298.5 615L292 613L290.5 609L287 608V603H291V601.5L292 598L296 596.5L296.5 594H312.5H314.5L328.5 593L329.5 592L331 592.5V589H338.5L343.5 587L345 587.5L346 585.5L345.5 584L353.5 583L355 581.5C354.133 578.7 355.3 577.867 358.5 579L361 578C359.533 574.267 360.7 572.933 364.5 574L368.5 569L371 567.5C369.867 564.033 371.033 562.867 374.5 564C376.367 563.067 376.867 561.067 376 558L380 556.5L381 546.5L378.5 544H366L363.5 540L351 539V535H349.5H347.5L345 532.5C346.533 531.7 346.367 530.867 344.5 530C341.3 531.133 340.133 530.3 341 527.5C339.867 524.7 338.7 524.2 337.5 526L332.5 521L327 521.5L329 522.5L319.5 525L314.5 524L313.5 525H297.5L296.5 524H287L284.5 520H277.5L277 517.5C276.333 515.167 274.167 514.333 270.5 515L267 511.5V510H262V505H257V500H252V496.5C250.867 494.367 248.033 493.867 243.5 495L239 498.5L238.5 500H230.5L228 501L227.5 505H210.5L208 506L206.5 509L204 508L203.5 510H181.5L173.5 505H158.5L154 501.5L153.5 500H144.5L141.5 495C137.367 495.867 134.867 495.033 134 492.5L132.5 490H128V486H126.5L121 483.5L120.5 481L119 481.5C119.533 480.033 119.033 479.533 117.5 480L111.5 471L109 470.5V463.5L110 461L114 460L115 456C116.4 454.933 118.9 454.6 122.5 455L125.5 460H127.5C129.033 459.533 129.533 460.033 129 461.5L130.5 464C131.5 462.333 132.5 462.667 133.5 465L137 467.5L136.5 469L138.5 468L139 470H144V473.5L145.5 475C150.033 473.867 152.867 474.367 154 476.5L155.5 480H157.5C162.367 479.2 165.533 480.033 167 482.5L166.5 484L168.5 483L171.5 485H173.5H210.5L211.5 484L213.5 485L218 481.5L218.5 480H228.5L232 479V475H238.5L242 472.5C241.133 469.7 242.3 468.867 245.5 470C247.167 469.2 247.667 467.533 247 465H252V463.5L257 460V455H260.5C262.167 454.2 262.667 452.533 262 450L266 449L267 446.5V418.5C266.2 416.367 264.533 415.533 262 416V406.5L257 401.5V396L252 392.5L249.5 388L247 386.5C247.333 383.833 246.5 382.333 244.5 382L241 380.5L239.5 378L230.5 371H227L224.5 367L217 366L215.5 362L205.5 360C204.7 361.533 203.867 361.367 203 359.5C204.533 358.7 204.367 357.867 202.5 357L187.5 356L182.5 352L145.5 351L134.5 353L132.5 352L128.5 356C121.433 354.933 116.1 355.6 112.5 358C111.7 356.467 110.867 356.633 110 358.5C111.533 359.367 111.367 360.2 109.5 361C106.367 360.2 104.367 360.533 103.5 362H101.5L96 364.5C96.6 366.767 95.1 367.267 91.5 366L86 369.5C86.6 371.767 85.1 372.267 81.5 371L78.5 376C74.2333 375.733 71.4 376.9 70 379.5C70.5333 381.033 70.0333 381.533 68.5 381L65 383.5C65.8667 386.033 65.0333 386.867 62.5 386L60 387C60.6667 389.533 60.1667 391.2 58.5 392C57.7 390.533 56.8667 390.7 56 392.5L53.5 397L51 398.5L50 406C47.4667 405.333 45.8 405.833 45 407.5C46.2667 411.1 45.7667 412.6 43.5 412L40 416.5V427L36 429.5C34.4 432.9 34.0667 437.567 35 443.5L36.5 449L38 448.5L39 450.5V465.5L40 466.5L39 468.5L40 469.5V493.5L43.5 498L45 498.5V509.5L46 513L50 514V522.5C54.5333 523.9 56.2 527.733 55 534L60 537.5C59.2 541.033 59.7 543.2 61.5 544H65V550.5L66 553L70 554.5C69.5333 557.033 70.0333 558.533 71.5 559C73.7 558.267 74.5333 558.767 74 560.5L77.5 567L80 568.5C79.5333 571.033 80.0333 572.533 81.5 573C82.7 571.133 83.8667 571.633 85 574.5C83.8667 578.033 85.0333 579.2 88.5 578C90.1667 578.8 90.6667 580.467 90 583C92.5333 582.333 94.2 582.833 95 584.5L97.5 588L101 590.5C99.5333 591.367 99.7 592.2 101.5 593L109 594L110.5 598C113.7 596.867 114.867 597.7 114 600.5L115 603H124V606.5L125.5 608H135L137.5 612L139.5 613H170.5L173 615.5L175.5 619L177 618.5C175.333 619.5 175.667 620.5 178 621.5C177.133 630.167 177.467 637 179 642L183 643.5L184 652L188 653C186.933 659.2 188.1 663.533 191.5 666C193.5 665.667 194 667.833 193 672.5L195.5 677L198 677.5V686.5L200.5 691L203 692.5V701.5L204.5 702L204 703.5L204.5 705C205.633 703.2 206.8 703.7 208 706.5V718.5L209 721L213 722V734.5L214 735.5V737.5L215.5 741L218 742.5V756.5L220.5 761L223 761.5V780.5L226.5 786L228 786.5V811.5C230.067 812.7 230.567 813.867 229.5 815L233 816.5V855.5L234.5 860C235.367 858.467 236.2 858.633 237 860.5L238 862.5V864.5V945.5L237 946.5V948.5L235 954C232.8 953.133 232.133 954.3 233 957.5V959.5V989.5L231.5 990L228 995.5V1016.5L225.5 1019L223 1020.5V1022.5V1034.5L222 1035.5C223.8 1036.63 223.3 1037.8 220.5 1039L218 1040.5V1050.5L213 1055.5V1065L209 1067.5L208 1076H206V1078C204.2 1077.27 203.533 1077.77 204 1079.5L203 1086H201C201.733 1087.8 201.233 1088.47 199.5 1088L198 1089.5C199.2 1094.03 198.7 1096.87 196.5 1098L168 1097.5L173 1095.5V1093.5L174.5 1089L176 1089.5L179.5 1082C181.7 1082.73 182.533 1082.23 182 1080.5L183 1079.5V1073L187 1071.5L188 1062L191 1061.5L190.5 1060L192 1060.5L191 1058.5L193 1058V1047.5L194.5 1046C195.367 1047.53 196.2 1047.37 197 1045.5C198.667 1041.83 199 1036.83 198 1030.5L200.5 1028C202.033 1028.53 202.533 1028.03 202 1026.5L203 1025.5V1011.5L207 1007.5L208 1002.5V978.5L209.5 977C211.033 977.533 211.533 977.033 211 975.5L212 972.5V970.5L213 962.5V960.5V846.5L212 845.5L211 831.5L208 828.5V806.5L207 805.5L208 803.5L206 797L203 795.5V774.5L199.5 768L198 767.5V752.5L197 748L193 747V734.5L192 733.5V731.5L190 728.5H188C188.8 721.633 188.467 716.467 187 713L183 711.5C184.4 704.767 183.567 700.267 180.5 698L178 697.5V688.5L174.5 684L173 683.5V675.5L171 675V673.5L168 672.5V664.5L166.5 663H164.5L163 662.5V654.5C162.2 652.833 160.533 652.333 158 653L157 646.5C158.533 645.7 158.367 644.867 156.5 644L153 642.5V638H148V635.5L142.5 633H128L126.5 629L117 628L115.5 625L111.5 623H109.5C106.833 623.333 105.333 622.5 105 620.5L105.5 619L99 618C100 615.467 99.5 614.467 97.5 615L93 612.5C93.7333 610.3 93.2333 609.467 91.5 610L84 608V604H82.5L79 599H74V594H69V589H67.5L59 578.5C59.5333 576.033 59.0333 574.533 57.5 574C55.3 574.733 54.4667 574.233 55 572.5L54 569C50.2667 570.467 48.9333 569.3 50 565.5L48 562.5C49.4667 561.7 49.3 560.867 47.5 560C44.7 560.867 43.8667 559.7 45 556.5L42.5 553C41.6333 554.533 40.8 554.367 40 552.5V550.5L39 544L35 541.5C35.8667 538.033 35.3667 535.867 33.5 535L30 534C31.2 527.333 30.0333 522.667 26.5 520L25 519.5V510.5L23.5 510L24 508.5L23.5 507C22.3667 508.867 21.2 508.367 20 505.5V490.5L17.5 486L15 484.5V420.5L17.5 420C20.0333 417.867 20.8667 414.033 20 408.5L25 403.5V396L30 395V390H31.5L38 381C40 381.867 40.6667 381.033 40 378.5L45 374.5L47.5 371C49.0333 371.533 49.5333 371.033 49 369.5L50 366C54.2667 366.867 56.9333 365.7 58 362.5C57.4 360.233 58.9 359.733 62.5 361L64 359.5V343.5L60 342L59 339.5V337.5C59.8667 333.433 59.3667 331.6 57.5 332L55 329.5L53 320.5L50 317.5V313.5L48 308L45 306.5L44 301.5V299.5V297L40 296.5V287.5L38 284.5L38.5 283L35 281.5C36 277.833 35.6667 275.5 34 274.5V272.5L33.5 270C32.7 271.533 31.8667 271.367 31 269.5L29 259.5V257.5L26.5 254L25 253.5V243.5L22.5 239C21.7 240.533 20.8667 240.367 20 238.5C20.8 231.633 20.4667 226.467 19 223H17C17.5333 220.933 16.8667 220.1 15 220.5V208.5L12.5 204L10 202.5V186.5L5 180.5V161.5L4 160.5V158.5L3 156.5L3.5 155L0 152.5L1 150.5L0 149.5V89.5L5 82.5V80.5V68.5L6.5 68C10.1667 65.8 11.3333 61.4667 10 55C12.5333 55.5333 14.2 54.7 15 52.5V45H18.5C20.1667 44.2 20.6667 42.5333 20 40L22.5 39C23.3667 40.5333 24.2 40.3667 25 38.5C23.8667 35.0333 25.0333 33.8667 28.5 35C30.1667 34.2 30.6667 32.5333 30 30H33.5L38.5 25H44L45 20C49.1333 20.8667 52.1333 20.3667 54 18.5V16.5L54.5 15H76.5L81.5 20H94L95 25H99.5L104.5 30H109C108.533 32.5333 109.367 34.2 111.5 35C113.7 34.2667 114.533 34.7667 114 36.5L115 39L121 40.5L120.5 42C122.033 41.5333 122.533 42.0333 122 43.5H124L126.5 49C129.033 48.2 129.867 49.0333 129 51.5L130 54C133.733 52.5333 135.067 53.7 134 57.5L139 60.5C138 63.4333 138.5 64.6 140.5 64L144 65C142.867 69.7333 143.7 72.7333 146.5 74C147.367 72.5333 148.2 72.7 149 74.5V79H154V87.5C154.8 89.1667 156.467 89.6667 159 89V96.5L160.5 98L164 99V104H167.5H169.5L173 102.5V92.5L178 86.5V73C180.467 74 181.467 73.5 181 71.5L183 68.5V60.5L184.5 59C186.7 59.7333 187.533 59.2333 187 57.5L188 56.5V49L192 47.5L193.5 39C194.5 40.6667 195.5 40.3333 196.5 38L198 37.5V30H201.5C203.167 29.2 203.667 27.5333 203 25H207V23.5L208 20H212V18.5L213 15H217V13.5L218 10C222.333 10.8667 225.333 10.0333 227 7.5V5H232.5L233 3.5C234.333 1.03333 235.667 0.366667 237 1.5V0ZM247 23L245 25C239.667 24.3333 236.333 25 235 27C232.333 26.3333 231.667 27.3333 233 30H230C228 30.6667 227.333 32.3333 228 35L225 36H223V40H220C218 41.3333 217.333 43.6667 218 47L216 46V48L215 47L213 51C214.333 54.3333 213.667 55.6667 211 55C208.333 56.3333 207.333 59.6667 208 65L206 66C202.667 68.6667 201.667 73.6667 203 81L202 80L198 86V100H197C195 100.667 194.667 101.667 196 103L195 102L194 104C195.333 104.667 195 105.667 193 107V142H191V155L193 157V207L194 212L198 213L197 216L198 217V255V257L199 261C199.667 262.333 200.667 262.333 202 261L203 262H213L214 266L218 267L219 271L222 273H219L218 276C218.667 278 218.333 278.667 217 278H215L213 282L207 283C203.667 284.333 203 285.667 205 287H200C198.667 289 197.667 289.333 197 288C193.667 289.333 193 290.667 195 292L183 293L179 297H167L164 298L153 297L152 295C152.667 293 152.333 292.333 151 293C147.667 291.667 147 290.667 149 290V283L153 282V277H173V274L178 271V269V252L177 251L178 249L177 236L173 230V202L168 197V178L167 176L163 174V160L162 157L158 155V143L157 140L153 139V129H149L148 118L145 115C143 114.333 142.667 113.667 144 113L142 108C142.667 106 142.333 105.333 141 106L139 104L138 101C138.667 98.3333 138.333 97.3333 137 98L135 96C132.333 94.6667 132 93.6667 134 93L129 87L128 82C127.333 80 126.667 79.6667 126 81L123 75H119V70H116C114 69.3333 113.333 67.6667 114 65H112L113 63H112L107 57L99 54V50H94V49V47C92.6667 45 90.6667 44.3333 88 45L86 43C84 43.6667 83.3333 43.3333 84 42L83 40H59H57L52 45L47 46H45V50H42C40 50.6667 39.3333 52.3333 40 55C37.3333 54.3333 35.6667 55 35 57C36.3333 60.3333 36 61.6667 34 61L30 66V75H28L25 79V102C23 102.667 22.3333 104.667 23 108H25L24 112L23 110H22L23 119L24 116V125L25 126H23C22.3333 129.333 23 131.333 25 132V161V163L26 166V168H29L30 170V190L31 191C30.3333 193 31.3333 193.667 34 193L35 195V211L36 212V213H40V228L44 232L45 233V245C45.6667 247 47.3333 247.667 50 247C49.3333 253 49.6667 257.667 51 261L55 262V272L56 274L60 276V286L65 291C63.6667 296.333 64.6667 299.667 68 301L70 302V311L74 312L76 324L79 325L80 331V333H82C84.6667 335 85.6667 337.667 85 341H100V340H102C103.333 339.333 103.333 338.667 102 338L105 336H117L118 334C118.667 332 121 331.333 125 332H127L144 331L145 330L147 331C151 329 156.667 328.667 164 330L165 329V331L171 330L172 331H184L185 332L190 331L195 332H197L198 335C200 336.333 203.667 336.667 209 336L215 341H223L224 344C223.333 345.333 224 345.667 226 345H228L229 346H236L238 338C237.333 336 238 335.333 240 336C242 335.333 242.667 334 242 332C242.667 330 243.667 329.667 245 331L248 327C252 326.333 254.667 327.333 256 330C255.333 331.333 256 331.667 258 331L257 349L253 354V359L259 368C258.333 369.333 259 369.667 261 369L263 373C264.333 375.667 265.667 376 267 374L273 385C272.333 386.333 273 386.667 275 386L277 389L278 395L281 396C282.333 395.333 282.667 397.333 282 402V404L287 406V423L288 424C286.667 428 287.333 429.667 290 429C291.333 432.333 290.667 433.667 288 433V440L287 441L288 443L287 444V455L284 456V458L282 462C283.333 465.333 282.333 466.333 279 465C277 465.667 276.333 467.333 277 470L273 471L272 478L270 480C272 480.667 272.667 482.667 272 486V488C272.667 489.333 274.333 490 277 490C278.333 490.667 278.333 491.667 277 493L281 495C283.667 494.333 284.333 495.333 283 498C286.333 500 291 500.667 297 500L298 504H313L316 502C315.333 499.333 317 498.667 321 500H323L326 499C327.333 498.333 327.333 497.667 326 497L328 495L335 494L336 491L340 489L341 486L345 484C346.333 483.333 346.333 482.667 345 482L346 480L349 478L351 475V470C353.667 470.667 355.333 470 356 468V461L359 460L361 458V445L365 444H366V425V423L371 419V405L373 404L375 402L376 398V377L375 375V373L374 372V371V361L373 363H371L374 356V358H375L374 353L375 350V346L374 348L372 346H374L373 343H371V326V324L369 321C369.667 319 369.333 318.333 368 319C366 318.333 365.333 316 366 312V310C365.333 307.333 363.667 306.333 361 307L360 302L361 299L356 297C356.667 294.333 356.333 292.667 355 292C351 293.333 349.667 292.333 351 289C350.333 287 348.667 286.333 346 287C346.667 284.333 346.333 282.667 345 282C341.667 283.333 340.333 282.667 341 280L336 277C331.333 277.667 329.333 277.333 330 276L327 273C322.333 274.333 319.667 274 319 272L302 273H300L295 277C289 276.333 284.667 277.333 282 280C282.667 282.667 281.667 283.333 279 282L276 283C273.333 282.333 272.333 283.333 273 286L272 287L266 288C264 288.667 263.667 289.667 265 291L264 290L263 292L260 293H258V297H253L252 301V302H248L247 306V307H243V312L240 313L238 317L230 318V320C228 320.667 227.333 320 228 318L221 317L218 313V297C220.667 297.667 222.333 297.333 223 296V292H231C232.333 291.333 232.667 289.667 232 287C234.667 287.667 236.333 287.333 237 286V282H242V277C246.667 277.667 249.667 276.667 251 274C250.333 271.333 252 270.667 256 272C257.333 271.333 257.667 269.667 257 267H264L265 266C266.333 266.667 266.667 266 266 264C266.667 262 268.667 261.333 272 262H274L276 259L277 257H282V252L284 251L287 246V233L291 232L292 231V213L296 212L297 206V162L299 160L297 156V109L296 106V104C296 100 294.667 97.6667 292 97V84L290 80L291 78H290L287 75V63L286 62C286.667 60 286 59.3333 284 60V58H282V51L281 50C281.667 48 281.333 47.3333 280 48V47L277 46C277.667 41.3333 276.667 38 274 36C272 36.6667 271.333 35.6667 272 33L267 30L265 27L261 25H251L247 23ZM391 307V326L392 330L396 331V413L393 416L391 422V437H390L387 441V443L386 444V455L382 456C380.667 458 380.333 461.667 381 467H379C379.667 468.333 379.333 468.667 378 468V470C375.333 469.333 374.667 471.667 376 477H374C374.667 478.333 374.333 478.667 373 478V480H371V485H369L366 489C366.667 491 366.333 491.667 365 491L361 496V498C359 497.333 358.333 498 359 500L356 502V514H361V518L363 519H378L382 522L383 519H400L401 518C400.333 516 401 515.333 403 516V514H410V510C414.667 509.333 418.333 507.333 421 504C422.333 504.667 422.667 504 422 502H424L426 499C427.333 499.667 427.667 499 427 497H429L430 495C429.333 492.333 430.333 491.667 433 493L435 490V485L439 484C441 484.667 441.333 483.333 440 480L443 478L445 475V470L448 468L450 465V457L454 455L455 454V437L460 431V384V382L459 376L455 373V360L454 357C453.333 355 452.667 354.667 452 356C450 355.333 449.667 354.667 451 354C449.667 352.667 449.333 350.667 450 348L448 344C448.667 342 447.667 341.333 445 342V336L444 335C444.667 333 444.333 332.333 443 333H441C441 329.667 440.333 327.667 439 327H435V322H430V317H425V314C424.333 312 422.333 311.333 419 312L414 307L413 308L412 307H391Z" fill="#00254E"/>
</svg>
