<svg width="2966" height="2966" viewBox="0 0 2966 2966" fill="none" xmlns="http://www.w3.org/2000/svg">
<path fill-rule="evenodd" clip-rule="evenodd" d="M1483.23 0.183594C664.449 0.183594 0.695312 663.937 0.695312 1482.72C0.695312 2001.32 266.973 2457.72 670.265 2722.68C712.689 2751.07 755.678 2776.61 797.263 2797.35C1002.38 2904.6 1235.72 2965.25 1483.23 2965.25C2302.01 2965.25 2965.77 2301.5 2965.77 1482.72C2965.77 663.937 2302.01 0.183594 1483.23 0.183594ZM797.263 2797.35C859.471 2828.37 918.538 2848.64 967.87 2851.62C1160.23 2851.62 1344.71 2775.2 1480.73 2639.18L2432.47 1687.44C2472.92 1646.99 2472.92 1581.42 2432.47 1540.98C2392.03 1500.53 2326.46 1500.53 2286.01 1540.98L1334.27 2492.72C1237.09 2589.9 1105.3 2644.49 967.87 2644.49C830.445 2644.49 698.649 2589.9 601.475 2492.72C504.301 2395.55 449.709 2263.75 449.709 2126.33C449.709 1988.9 504.301 1857.11 601.475 1759.93L1553.22 808.187C1611.53 749.878 1690.61 717.121 1773.07 717.121C1855.54 717.121 1934.62 749.878 1992.93 808.187C2051.24 866.496 2083.99 945.579 2083.99 1028.04C2083.99 1110.48 2051.21 1189.59 1992.93 1247.89L1040.15 2199.64C1020.7 2219.08 994.332 2230.01 966.835 2230.01C939.338 2230.01 912.967 2219.08 893.523 2199.64C874.08 2180.2 863.156 2153.83 863.156 2126.33C863.156 2098.85 874.107 2072.46 893.523 2053.02L1772.73 1174.84C1813.2 1134.42 1813.24 1068.85 1772.82 1028.38C1732.4 987.916 1666.83 987.877 1626.36 1028.3L747.063 1906.56C688.775 1964.84 656.03 2043.9 656.03 2126.33C656.03 2208.76 688.775 2287.81 747.063 2346.1C805.35 2404.39 884.404 2437.13 966.835 2437.13C1049.27 2437.13 1128.32 2404.39 1186.61 2346.1L2139.39 1394.35C2236.54 1297.2 2291.12 1165.43 2291.12 1028.04C2291.12 890.646 2236.54 758.879 2139.39 661.726C2042.24 564.574 1910.47 509.994 1773.07 509.994C1635.68 509.994 1503.91 564.574 1406.76 661.726L455.014 1613.47C318.996 1749.49 242.582 1933.97 242.582 2126.33C242.582 2318.69 340.481 2451.03 501.823 2592.87C553.344 2638.16 611.257 2683.18 670.265 2722.68C711.229 2749.59 753.607 2774.53 797.263 2797.35Z" fill="black"/>
</svg>
