<svg width="50" height="50" viewBox="0 0 50 50" fill="none" xmlns="http://www.w3.org/2000/svg">
<path d="M40.6953 0C45.8341 0.000178841 49.9998 4.16593 50 9.30469C50 14.4436 45.8342 18.6102 40.6953 18.6104C40.0812 18.6104 39.4812 18.5481 38.9004 18.4346L38.9238 18.4629C38.8801 18.4453 38.8354 18.4288 38.79 18.4131C38.5771 18.3688 38.3675 18.3154 38.1602 18.2568C36.3357 17.9596 33.7509 18.694 32.3135 19.7197C30.8188 20.7866 30.2676 22.2412 30.0127 23.4609V26.5381C30.2675 27.758 30.8184 29.2132 32.3135 30.2803C33.7509 31.306 36.3357 32.0404 38.1602 31.7432C38.3675 31.6846 38.5771 31.6312 38.79 31.5869C38.8354 31.5712 38.8801 31.5547 38.9238 31.5371L38.9004 31.5654C39.4812 31.4519 40.0812 31.3896 40.6953 31.3896C45.8342 31.3898 50 35.5564 50 40.6953C49.9998 45.8341 45.8341 49.9998 40.6953 50C35.5564 50 31.3898 45.8342 31.3896 40.6953C31.3896 40.0661 31.4542 39.4516 31.5732 38.8574C31.481 36.7617 31.1114 33.4688 29.9668 31.8955C29.2677 30.9349 28.3957 30.4059 27.5293 30.1074H22.4707C21.6043 30.4059 20.7323 30.9349 20.0332 31.8955C18.8886 33.4688 18.519 36.7617 18.4268 38.8574C18.5458 39.4516 18.6104 40.0661 18.6104 40.6953C18.6102 45.8342 14.4436 50 9.30469 50C4.16593 49.9998 0.000178837 45.8341 0 40.6953C0 35.5564 4.16582 31.3898 9.30469 31.3896C9.91875 31.3896 10.5188 31.4519 11.0996 31.5654L11.0762 31.5371C11.1199 31.5547 11.1646 31.5712 11.21 31.5869C11.4229 31.6312 11.6325 31.6846 11.8398 31.7432C13.6643 32.0404 16.2491 31.306 17.6865 30.2803C19.2234 29.1833 19.7634 27.6765 20.0088 26.4365V23.5625C19.7634 22.3227 19.223 20.8164 17.6865 19.7197C16.2491 18.694 13.6643 17.9596 11.8398 18.2568C11.6325 18.3154 11.4229 18.3688 11.21 18.4131C11.1646 18.4288 11.1199 18.4453 11.0762 18.4629L11.0996 18.4346C10.5188 18.5481 9.91875 18.6104 9.30469 18.6104C4.16582 18.6102 0 14.4436 0 9.30469C0.000178837 4.16593 4.16593 0.000178841 9.30469 0C14.4436 0 18.6102 4.16582 18.6104 9.30469C18.6104 9.93387 18.5458 10.5484 18.4268 11.1426C18.519 13.2383 18.8886 16.5312 20.0332 18.1045C20.901 19.297 22.0353 19.8241 23.0947 20.0703H27.2852C28.2302 19.7442 29.202 19.1554 29.9668 18.1045C31.1114 16.5312 31.481 13.2383 31.5732 11.1426C31.4542 10.5484 31.3896 9.93387 31.3896 9.30469C31.3898 4.16582 35.5564 0 40.6953 0Z" fill="#FFFEF2"/>
</svg>
