<svg width="2752" height="3863" viewBox="0 0 2752 3863" fill="none" xmlns="http://www.w3.org/2000/svg">
<path d="M2297.21 652.311C2161.39 583.17 2114.9 481.403 2169.62 373.928L2277.96 161.118L2421.79 234.342L2317.81 438.597C2295.48 482.442 2299.21 524.061 2349.47 549.649C2399.73 575.236 2435.58 553.76 2457.9 509.915L2561.88 305.66L2706.25 379.156L2597.91 591.966C2542.65 700.51 2431.42 720.635 2297.21 652.311Z" fill="#E3C9C7"/>
<path d="M896.771 496.778L821.81 83.5211L1246.28 6.52592L1267.38 122.828L999.353 171.445L1007.28 215.132L1222.76 176.046L1238.29 261.649L1022.81 300.736L1032.01 351.507L1314.8 300.213L1336 417.105L896.771 496.778Z" fill="#E3C9C7"/>
<path d="M1493.82 420.318L1568.77 7.06017L1739.98 38.112L1872.42 262.753L1907.64 68.5214L2067.04 97.4317L1992.09 510.69L1845.09 484.028L1692.03 231.866L1652.63 449.121L1493.82 420.318Z" fill="#E3C9C7"/>
<path d="M239.218 778.885L48.6867 404.589L209.634 322.66L403.141 439.602L423.518 213.786L580.188 134.035L770.719 508.331L627.417 581.278L532.151 394.129L523.237 609.398L463.884 639.611L289.16 522.534L382.52 705.939L239.218 778.885Z" fill="#E3C9C7"/>
<path d="M860.514 2081.67C1145.97 1444.38 846.608 1089.04 688.412 1002.12C1272.52 887.385 1851.41 2144.25 1121.28 2759.65C583.151 3213.22 130.381 2818.76 0 2540.61C255.548 2712.71 636.26 2582.33 860.514 2081.67Z" fill="#E2CDCB"/>
<path d="M2148.67 1946.08C2434.13 1308.78 2134.77 953.443 1976.57 866.522C2560.68 751.789 3139.57 2008.66 2409.44 2624.06C1871.31 3077.62 1418.54 2683.16 1288.16 2405.02C1543.71 2577.12 1924.42 2446.74 2148.67 1946.08Z" fill="#E2CDCB"/>
<path d="M668.446 3358.54C668.445 3450.2 631.652 3647.26 486.229 3718.65M486.229 3718.65C482.71 3720.38 479.128 3722.03 475.481 3723.61C321.112 3790.37 418.325 3748.12 486.229 3718.65ZM2107.85 3176.01C2085.25 3292.49 2103.68 3525.43 2358.18 3525.43M2156.36 3439.6C2045.27 3619.31 1754.26 3827.92 1466.38 3827.92C1106.53 3827.92 797.936 3733.74 615.719 3582.5" stroke="#E2CDCB" stroke-width="70" stroke-linecap="round" stroke-linejoin="round"/>
<path d="M668.446 3358.54C668.445 3450.2 631.652 3647.26 486.229 3718.65M486.229 3718.65C482.71 3720.38 479.128 3722.03 475.481 3723.61C321.112 3790.37 418.325 3748.12 486.229 3718.65ZM2107.85 3176.01C2085.25 3292.49 2103.68 3525.43 2358.18 3525.43" stroke="#E2CDCB" stroke-width="100" stroke-linecap="round" stroke-linejoin="round"/>
</svg>
