<svg width="2096" height="2096" version="1.1" xmlns="http://www.w3.org/2000/svg" desc="Created with imagetracer.js version 1.2.6" ><path fill="rgb(0,0,0)" stroke="rgb(0,0,0)" stroke-width="1" opacity="0" d="M 0 0 L 1044 0.5 L 1031.5 4 L 1014.5 12 L 1005.5 18 L 983 40.5 L 983 42.5 L 970 58.5 L 947 105.5 L 936 137.5 L 923 189.5 L 921 206.5 L 919 212.5 L 919 219.5 L 917 226.5 L 917 232.5 L 916 233.5 L 916 239.5 L 913 252.5 L 912 269.5 L 910 279.5 L 910 289.5 L 909 290.5 L 909 301.5 L 908 302.5 L 907 335.5 L 906 336.5 L 906 362.5 L 905 363.5 L 905 422.5 L 906 425.5 L 906 451.5 L 907 452.5 L 907 471.5 L 908 472.5 L 907 474.5 L 908 475.5 L 908 490.5 L 909 491.5 L 909 505.5 L 910 506.5 L 910 519.5 L 912 530.5 L 913 550.5 L 917 573.5 L 917 575.5 L 918 592.5 L 920 601.5 L 920 603.5 L 920 610.5 L 921 611.5 L 922 626.5 L 925 640.5 L 925 647.5 L 926 648.5 L 933 695.5 L 938 717.5 L 938 722.5 L 941 731.5 L 943 746.5 L 953 786.5 L 953 790.5 L 961 816.5 L 961 820.5 L 968 848.5 L 975 871.5 L 974 871.5 L 969 860.5 L 962 850.5 L 937 805.5 L 883 722.5 L 817 632.5 L 765 569 Q 762.3 570.1 763 567.5 L 726 526.5 L 726 525 L 722 522.5 L 711 509.5 L 662.5 461 Q 623.4 423.6 580.5 390 L 541.5 361 L 520.5 349 L 513.5 343 L 495.5 332 L 451.5 310 L 437.5 306 L 435.5 304 L 415.5 297 L 400.5 293 L 382.5 291 L 381.5 290 L 349.5 290 L 331.5 294 L 321.5 298 L 309.5 305 L 305 309.5 L 298 321.5 L 291 343.5 Q 292.3 348.3 290 349.5 L 290 381.5 L 291 382.5 L 293 400.5 L 297 415.5 L 304 435.5 L 306 437.5 L 310 451.5 L 332 495.5 L 343 513.5 L 349 520.5 L 361 541.5 Q 427.4 634.1 509.5 711 L 525 724.5 Q 524.3 726.8 526.5 726 L 563.5 760 L 569 763 Q 567.9 765.7 570.5 765 L 632.5 817 L 722.5 883 L 805.5 937 L 872 974.5 L 870.5 975 L 863.5 972 L 820.5 961 L 816.5 961 L 794.5 954 L 746.5 943 L 731.5 941 L 722.5 938 L 717.5 938 L 678.5 930 L 672.5 930 L 647.5 925 L 640.5 925 L 639.5 924 L 603.5 920 L 602.5 919 L 600.5 919 L 583.5 918 L 574.5 916 L 572.5 916 L 551.5 914 L 550.5 913 L 541.5 913 L 540.5 912 L 520.5 911 L 519.5 910 L 475.5 908 L 473.5 907 L 471.5 907 L 425.5 906 L 424.5 905 L 422.5 905 L 363.5 905 L 362.5 906 L 336.5 906 L 335.5 907 L 316.5 907 L 315.5 908 L 290.5 909 L 289.5 910 L 279.5 910 L 278.5 911 L 252.5 913 L 251.5 914 L 226.5 917 L 219.5 919 L 212.5 919 L 206.5 921 L 175.5 926 L 137.5 936 L 113.5 944 L 81.5 958 L 52.5 974 L 42.5 983 L 40.5 983 L 18 1005.5 L 9 1019.5 L 0.5 1044 L 0 0 Z " /><path fill="rgb(0,0,0)" stroke="rgb(0,0,0)" stroke-width="1" opacity="0" d="M 1052.5 0 L 2096 0 L 2096 1043.5 L 2095 1043.5 Q 2091.9 1026.6 2084 1014.5 L 2078 1005.5 L 2055.5 983 L 2053.5 983 L 2037.5 970 L 1990.5 947 L 1958.5 936 L 1906.5 923 L 1889.5 921 L 1883.5 919 L 1876.5 919 L 1869.5 917 L 1863.5 917 L 1862.5 916 L 1856.5 916 L 1843.5 913 L 1826.5 912 L 1816.5 910 L 1806.5 910 L 1805.5 909 L 1794.5 909 L 1793.5 908 L 1760.5 907 L 1759.5 906 L 1733.5 906 L 1732.5 905 L 1674.5 905 L 1672.5 906 L 1670.5 906 L 1644.5 906 L 1643.5 907 L 1624.5 907 L 1623.5 908 L 1621.5 907 L 1620.5 908 L 1605.5 908 L 1604.5 909 L 1590.5 909 L 1589.5 910 L 1576.5 910 L 1565.5 912 L 1545.5 913 L 1522.5 917 L 1520.5 917 L 1503.5 918 L 1494.5 920 L 1492.5 920 L 1485.5 920 L 1484.5 921 L 1469.5 922 L 1455.5 925 L 1448.5 925 L 1447.5 926 L 1400.5 933 L 1378.5 938 L 1373.5 938 L 1364.5 941 L 1349.5 943 L 1309.5 953 L 1305.5 953 L 1279.5 961 L 1275.5 961 L 1247.5 968 L 1224.5 975 L 1224.5 974 L 1235.5 969 L 1245.5 962 L 1290.5 937 L 1373.5 883 L 1463.5 817 L 1527 765 Q 1525.9 762.3 1528.5 763 L 1569.5 726 L 1571 726 L 1573.5 722 L 1586.5 711 L 1635 662.5 Q 1672.4 623.4 1706 580.5 L 1735 541.5 L 1747 520.5 L 1753 513.5 L 1764 495.5 L 1786 451.5 L 1790 437.5 L 1792 435.5 L 1799 415.5 L 1806 382.5 L 1806 349.5 L 1802 331.5 L 1798 321.5 L 1791 309.5 L 1786.5 305 L 1774.5 298 L 1752.5 291 Q 1747.7 292.3 1746.5 290 L 1714.5 290 L 1713.5 291 L 1695.5 293 L 1680.5 297 L 1660.5 304 L 1658.5 306 L 1644.5 310 L 1600.5 332 L 1582.5 343 L 1575.5 349 L 1554.5 361 Q 1461.9 427.4 1385 509.5 L 1371.5 525 Q 1369.3 524.3 1370 526.5 L 1336 563.5 L 1333 569 Q 1330.3 567.9 1331 570.5 L 1279 632.5 L 1213 722.5 L 1159 805.5 L 1121.5 872 L 1121 870.5 L 1124 863.5 L 1135 820.5 L 1135 816.5 L 1142 794.5 L 1153 746.5 L 1155 731.5 L 1158 722.5 L 1158 717.5 L 1166 678.5 L 1166 672.5 L 1171 647.5 L 1171 640.5 L 1172 639.5 L 1176 603.5 L 1177 602.5 L 1177 600.5 L 1178 583.5 L 1180 574.5 L 1180 572.5 L 1182 551.5 L 1183 550.5 L 1183 541.5 L 1184 540.5 L 1185 520.5 L 1186 519.5 L 1188 475.5 L 1189 473.5 L 1189 471.5 L 1190 425.5 L 1191 424.5 L 1190 422.5 L 1191 421.5 L 1191 363.5 L 1190 362.5 L 1190 336.5 L 1189 335.5 L 1188 302.5 L 1187 301.5 L 1187 290.5 L 1186 289.5 L 1186 279.5 L 1185 278.5 L 1183 252.5 L 1180 239.5 L 1180 233.5 L 1179 232.5 L 1179 226.5 L 1177 219.5 L 1177 212.5 L 1175 206.5 L 1173 189.5 L 1160 137.5 L 1149 105.5 L 1126 58.5 L 1113 42.5 L 1113 40.5 L 1090.5 18 L 1076.5 9 L 1061.5 3 L 1054.5 2 L 1052.5 0 Z " /><path fill="rgb(0,0,0)" stroke="rgb(0,0,0)" stroke-width="1" opacity="0" d="M 0.5 1052 L 4 1064.5 L 12 1081.5 L 18 1090.5 L 40.5 1113 L 58.5 1126 L 100.5 1147 L 137.5 1160 L 189.5 1173 L 206.5 1175 L 212.5 1177 L 219.5 1177 L 226.5 1179 L 232.5 1179 L 233.5 1180 L 239.5 1180 L 252.5 1183 L 269.5 1184 L 279.5 1186 L 289.5 1186 L 290.5 1187 L 301.5 1187 L 302.5 1188 L 335.5 1189 L 336.5 1190 L 362.5 1190 L 363.5 1191 L 421.5 1191 L 423.5 1190 L 425.5 1190 L 451.5 1190 L 452.5 1189 L 471.5 1189 L 472.5 1188 L 474.5 1189 L 475.5 1188 L 490.5 1188 L 491.5 1187 L 505.5 1187 L 506.5 1186 L 519.5 1186 L 530.5 1184 L 550.5 1183 L 573.5 1179 L 575.5 1179 L 592.5 1178 L 601.5 1176 L 603.5 1176 L 610.5 1176 L 611.5 1175 L 626.5 1174 L 640.5 1171 L 647.5 1171 L 648.5 1170 L 695.5 1163 L 717.5 1158 L 722.5 1158 L 731.5 1155 L 746.5 1153 L 786.5 1143 L 790.5 1143 L 816.5 1135 L 820.5 1135 L 848.5 1128 L 871.5 1121 L 871.5 1122 L 860.5 1127 L 850.5 1134 L 805.5 1159 L 722.5 1213 L 632.5 1279 L 569 1331 Q 570.1 1333.7 567.5 1333 L 526.5 1370 L 525 1370 L 522.5 1374 L 509.5 1385 L 461 1433.5 Q 423.6 1472.6 390 1515.5 L 361 1554.5 L 349 1575.5 L 343 1582.5 L 332 1600.5 L 310 1644.5 L 306 1658.5 L 304 1660.5 L 297 1680.5 L 293 1695.5 L 291 1713.5 L 290 1714.5 L 290 1746.5 L 294 1764.5 L 298 1774.5 L 305 1786.5 L 309.5 1791 L 321.5 1798 L 343.5 1805 Q 348.3 1803.7 349.5 1806 L 382.5 1806 L 383.5 1805 L 400.5 1803 L 425.5 1796 L 437.5 1790 L 443.5 1789 L 460.5 1782 L 495.5 1764 L 513.5 1753 L 520.5 1747 L 541.5 1735 Q 634.1 1668.6 711 1586.5 L 724.5 1571 Q 726.8 1571.8 726 1569.5 L 760 1532.5 L 763 1527 Q 765.7 1528.1 765 1525.5 L 817 1463.5 L 883 1373.5 L 937 1290.5 L 974.5 1224 L 975 1225.5 L 972 1232.5 L 961 1275.5 L 961 1279.5 L 954 1301.5 L 943 1349.5 L 941 1364.5 L 938 1373.5 L 938 1378.5 L 930 1417.5 L 930 1423.5 L 925 1448.5 L 925 1455.5 L 924 1456.5 L 920 1492.5 L 919 1493.5 L 919 1495.5 L 918 1512.5 L 916 1521.5 L 916 1523.5 L 914 1544.5 L 913 1545.5 L 913 1554.5 L 912 1555.5 L 911 1575.5 L 910 1576.5 L 908 1620.5 L 907 1622.5 L 907 1624.5 L 906 1670.5 L 905 1671.5 L 906 1673.5 L 905 1674.5 L 905 1732.5 L 906 1733.5 L 906 1759.5 L 907 1760.5 L 908 1793.5 L 909 1794.5 L 909 1805.5 L 910 1806.5 L 910 1816.5 L 911 1817.5 L 913 1843.5 L 916 1856.5 L 916 1862.5 L 917 1863.5 L 917 1869.5 L 919 1876.5 L 919 1883.5 L 921 1889.5 L 923 1906.5 L 936 1958.5 L 949 1995.5 L 970 2037.5 L 983 2055.5 L 1005.5 2078 L 1019.5 2087 L 1044 2095.5 L 0 2096 L 0.5 1052 Z " /><path fill="rgb(0,0,0)" stroke="rgb(0,0,0)" stroke-width="1" opacity="0" d="M 2095.5 1052 L 2096 2096 L 1052 2095.5 L 1064.5 2092 L 1081.5 2084 L 1090.5 2078 L 1113 2055.5 L 1126 2037.5 L 1147 1995.5 L 1160 1958.5 L 1173 1906.5 L 1175 1889.5 L 1177 1883.5 L 1177 1876.5 L 1179 1869.5 L 1179 1863.5 L 1180 1862.5 L 1180 1856.5 L 1183 1843.5 L 1184 1826.5 L 1186 1816.5 L 1186 1806.5 L 1187 1805.5 L 1187 1794.5 L 1188 1793.5 L 1189 1760.5 L 1190 1759.5 L 1190 1733.5 L 1191 1732.5 L 1191 1673.5 L 1190 1670.5 L 1190 1644.5 L 1189 1643.5 L 1189 1624.5 L 1188 1623.5 L 1189 1621.5 L 1188 1620.5 L 1188 1605.5 L 1187 1604.5 L 1187 1590.5 L 1186 1589.5 L 1186 1576.5 L 1184 1565.5 L 1183 1545.5 L 1179 1522.5 L 1179 1520.5 L 1178 1503.5 L 1176 1494.5 L 1176 1492.5 L 1176 1485.5 L 1175 1484.5 L 1174 1469.5 L 1171 1455.5 L 1171 1448.5 L 1170 1447.5 L 1163 1400.5 L 1158 1378.5 L 1158 1373.5 L 1155 1364.5 L 1153 1349.5 L 1143 1309.5 L 1143 1305.5 L 1135 1279.5 L 1135 1275.5 L 1128 1247.5 L 1121 1224.5 L 1122 1224.5 L 1127 1235.5 L 1134 1245.5 L 1159 1290.5 L 1213 1373.5 L 1279 1463.5 L 1331 1527 Q 1333.7 1525.9 1333 1528.5 L 1370 1569.5 L 1370 1571 L 1374 1573.5 L 1385 1586.5 L 1433.5 1635 Q 1472.6 1672.4 1515.5 1706 L 1554.5 1735 L 1575.5 1747 L 1582.5 1753 L 1600.5 1764 L 1644.5 1786 L 1658.5 1790 L 1660.5 1792 L 1680.5 1799 L 1713.5 1806 L 1746.5 1806 L 1764.5 1802 L 1774.5 1798 L 1786.5 1791 L 1791 1786.5 L 1798 1774.5 L 1805 1752.5 Q 1803.7 1747.7 1806 1746.5 L 1806 1713.5 L 1805 1712.5 L 1803 1695.5 L 1796 1670.5 L 1790 1658.5 L 1789 1652.5 L 1782 1635.5 L 1764 1600.5 L 1753 1582.5 L 1747 1575.5 L 1735 1554.5 Q 1668.6 1461.9 1586.5 1385 L 1571 1371.5 Q 1571.8 1369.3 1569.5 1370 L 1532.5 1336 L 1527 1333 Q 1528.1 1330.3 1525.5 1331 L 1463.5 1279 L 1373.5 1213 L 1290.5 1159 L 1224 1121.5 L 1225.5 1121 L 1232.5 1124 L 1275.5 1135 L 1279.5 1135 L 1301.5 1142 L 1349.5 1153 L 1364.5 1155 L 1373.5 1158 L 1378.5 1158 L 1417.5 1166 L 1423.5 1166 L 1448.5 1171 L 1455.5 1171 L 1456.5 1172 L 1492.5 1176 L 1493.5 1177 L 1495.5 1177 L 1512.5 1178 L 1521.5 1180 L 1523.5 1180 L 1544.5 1182 L 1545.5 1183 L 1554.5 1183 L 1555.5 1184 L 1575.5 1185 L 1576.5 1186 L 1620.5 1188 L 1622.5 1189 L 1624.5 1189 L 1670.5 1190 L 1671.5 1191 L 1673.5 1191 L 1732.5 1191 L 1733.5 1190 L 1759.5 1190 L 1760.5 1189 L 1779.5 1189 L 1780.5 1188 L 1805.5 1187 L 1806.5 1186 L 1816.5 1186 L 1817.5 1185 L 1843.5 1183 L 1844.5 1182 L 1869.5 1179 L 1876.5 1177 L 1883.5 1177 L 1889.5 1175 L 1920.5 1170 L 1958.5 1160 L 1982.5 1152 L 2014.5 1138 L 2043.5 1122 L 2052.5 1114 L 2055.5 1113 L 2078 1090.5 L 2087 1076.5 L 2095.5 1052 Z " /><path fill="#fffef2" stroke="#fffef2" stroke-width="1" opacity="0.5294117647058824" d="M 1044.5 0 L 1046.5 1 L 1048.5 0 L 1050.5 0 L 1064.5 4 L 1081.5 12 L 1090.5 18 L 1113 40.5 L 1113 42.5 L 1126 58.5 L 1149 105.5 L 1160 137.5 L 1173 189.5 L 1175 206.5 L 1177 212.5 L 1177 219.5 L 1179 226.5 L 1179 232.5 L 1180 233.5 L 1180 239.5 L 1183 252.5 L 1184 269.5 L 1186 279.5 L 1186 289.5 L 1187 290.5 L 1187 301.5 L 1188 302.5 L 1189 335.5 L 1190 336.5 L 1190 362.5 L 1191 363.5 L 1191 421.5 L 1190 423.5 L 1190 425.5 L 1190 451.5 L 1189 452.5 L 1189 471.5 L 1188 472.5 L 1189 474.5 L 1188 475.5 L 1188 490.5 L 1187 491.5 L 1187 505.5 L 1186 506.5 L 1186 519.5 L 1184 530.5 L 1183 550.5 L 1179 573.5 L 1179 575.5 L 1178 592.5 L 1176 601.5 L 1176 603.5 L 1176 610.5 L 1175 611.5 L 1174 626.5 L 1171 640.5 L 1171 647.5 L 1170 648.5 L 1163 695.5 L 1158 717.5 L 1158 722.5 L 1155 731.5 L 1153 746.5 L 1143 786.5 L 1143 790.5 L 1135 816.5 L 1135 820.5 L 1122 869.5 L 1123 869.5 L 1159 805.5 L 1213 722.5 L 1279 632.5 L 1331 569 Q 1333.7 570.1 1333 567.5 L 1370 526.5 L 1370 525 L 1374 522.5 L 1385 509.5 L 1433.5 461 Q 1472.6 423.6 1515.5 390 L 1554.5 361 L 1575.5 349 L 1582.5 343 L 1600.5 332 L 1644.5 310 L 1658.5 306 L 1660.5 304 L 1680.5 297 L 1695.5 293 L 1713.5 291 L 1714.5 290 L 1746.5 290 L 1764.5 294 L 1774.5 298 L 1786.5 305 L 1791 309.5 L 1798 321.5 L 1805 343.5 Q 1803.7 348.3 1806 349.5 L 1806 382.5 L 1805 383.5 L 1803 400.5 L 1796 425.5 L 1790 437.5 L 1789 443.5 L 1782 460.5 L 1764 495.5 L 1753 513.5 L 1747 520.5 L 1735 541.5 Q 1668.6 634.1 1586.5 711 L 1571 724.5 Q 1571.8 726.8 1569.5 726 L 1532.5 760 L 1527 763 Q 1528.1 765.7 1525.5 765 L 1463.5 817 L 1373.5 883 L 1290.5 937 L 1226 973.5 L 1228.5 974 L 1232.5 972 L 1275.5 961 L 1279.5 961 L 1305.5 953 L 1309.5 953 L 1349.5 943 L 1364.5 941 L 1373.5 938 L 1378.5 938 L 1400.5 933 L 1405.5 933 L 1448.5 925 L 1455.5 925 L 1456.5 924 L 1492.5 920 L 1493.5 919 L 1495.5 919 L 1512.5 918 L 1521.5 916 L 1523.5 916 L 1544.5 914 L 1545.5 913 L 1554.5 913 L 1555.5 912 L 1575.5 911 L 1576.5 910 L 1620.5 908 L 1622.5 907 L 1624.5 907 L 1670.5 906 L 1671.5 905 L 1673.5 906 L 1674.5 905 L 1732.5 905 L 1733.5 906 L 1759.5 906 L 1760.5 907 L 1793.5 908 L 1794.5 909 L 1805.5 909 L 1806.5 910 L 1816.5 910 L 1817.5 911 L 1843.5 913 L 1856.5 916 L 1862.5 916 L 1863.5 917 L 1869.5 917 L 1876.5 919 L 1883.5 919 L 1889.5 921 L 1906.5 923 L 1958.5 936 L 1990.5 947 L 2037.5 970 L 2053.5 983 L 2055.5 983 L 2078 1005.5 L 2087 1019.5 L 2096 1045.5 L 2096 1047.5 L 2095 1049.5 L 2096 1051.5 L 2094 1054.5 L 2092 1064.5 L 2084 1081.5 L 2078 1090.5 L 2055.5 1113 L 2037.5 1126 L 1995.5 1147 L 1958.5 1160 L 1906.5 1173 L 1889.5 1175 L 1883.5 1177 L 1876.5 1177 L 1869.5 1179 L 1863.5 1179 L 1862.5 1180 L 1856.5 1180 L 1843.5 1183 L 1826.5 1184 L 1816.5 1186 L 1806.5 1186 L 1805.5 1187 L 1794.5 1187 L 1793.5 1188 L 1760.5 1189 L 1759.5 1190 L 1733.5 1190 L 1732.5 1191 L 1673.5 1191 L 1670.5 1190 L 1644.5 1190 L 1643.5 1189 L 1624.5 1189 L 1623.5 1188 L 1621.5 1189 L 1620.5 1188 L 1605.5 1188 L 1604.5 1187 L 1590.5 1187 L 1589.5 1186 L 1576.5 1186 L 1565.5 1184 L 1545.5 1183 L 1522.5 1179 L 1520.5 1179 L 1503.5 1178 L 1494.5 1176 L 1492.5 1176 L 1485.5 1176 L 1484.5 1175 L 1469.5 1174 L 1455.5 1171 L 1448.5 1171 L 1447.5 1170 L 1400.5 1163 L 1378.5 1158 L 1373.5 1158 L 1364.5 1155 L 1349.5 1153 L 1309.5 1143 L 1305.5 1143 L 1279.5 1135 L 1275.5 1135 L 1226.5 1122 L 1226.5 1123 L 1290.5 1159 L 1373.5 1213 L 1463.5 1279 L 1527 1331 Q 1525.9 1333.7 1528.5 1333 L 1569.5 1370 L 1571 1370 L 1573.5 1374 L 1586.5 1385 L 1635 1433.5 Q 1672.4 1472.6 1706 1515.5 L 1735 1554.5 L 1747 1575.5 L 1753 1582.5 L 1764 1600.5 L 1786 1644.5 L 1790 1658.5 L 1792 1660.5 L 1799 1680.5 L 1806 1713.5 L 1806 1746.5 L 1802 1764.5 L 1798 1774.5 L 1791 1786.5 L 1786.5 1791 L 1774.5 1798 L 1752.5 1805 Q 1747.7 1803.7 1746.5 1806 L 1713.5 1806 L 1712.5 1805 L 1695.5 1803 L 1670.5 1796 L 1658.5 1790 L 1652.5 1789 L 1635.5 1782 L 1600.5 1764 L 1582.5 1753 L 1575.5 1747 L 1554.5 1735 Q 1461.9 1668.6 1385 1586.5 L 1371.5 1571 Q 1369.3 1571.8 1370 1569.5 L 1336 1532.5 L 1333 1527 Q 1330.3 1528.1 1331 1525.5 L 1279 1463.5 L 1213 1373.5 L 1159 1290.5 L 1122.5 1226 L 1122 1228.5 L 1124 1232.5 L 1135 1275.5 L 1135 1279.5 L 1143 1305.5 L 1143 1309.5 L 1153 1349.5 L 1155 1364.5 L 1158 1373.5 L 1158 1378.5 L 1163 1400.5 L 1163 1405.5 L 1171 1448.5 L 1171 1455.5 L 1172 1456.5 L 1176 1492.5 L 1177 1493.5 L 1177 1495.5 L 1178 1512.5 L 1180 1521.5 L 1180 1523.5 L 1182 1544.5 L 1183 1545.5 L 1183 1554.5 L 1184 1555.5 L 1185 1575.5 L 1186 1576.5 L 1188 1620.5 L 1189 1622.5 L 1189 1624.5 L 1190 1670.5 L 1191 1671.5 L 1191 1673.5 L 1191 1732.5 L 1190 1733.5 L 1190 1759.5 L 1189 1760.5 L 1189 1779.5 L 1188 1780.5 L 1187 1805.5 L 1186 1806.5 L 1186 1816.5 L 1185 1817.5 L 1183 1843.5 L 1182 1844.5 L 1179 1869.5 L 1177 1876.5 L 1177 1883.5 L 1175 1889.5 L 1170 1920.5 L 1160 1958.5 L 1152 1982.5 L 1138 2014.5 L 1122 2043.5 L 1114 2052.5 L 1113 2055.5 L 1090.5 2078 L 1076.5 2087 L 1050.5 2096 L 1048.5 2096 L 1046.5 2095 L 1044.5 2096 L 1041.5 2094 L 1031.5 2092 L 1014.5 2084 L 1005.5 2078 L 983 2055.5 L 970 2037.5 L 949 1995.5 L 936 1958.5 L 923 1906.5 L 921 1889.5 L 919 1883.5 L 919 1876.5 L 917 1869.5 L 917 1863.5 L 916 1862.5 L 916 1856.5 L 913 1843.5 L 912 1826.5 L 910 1816.5 L 910 1806.5 L 909 1805.5 L 909 1794.5 L 908 1793.5 L 907 1760.5 L 906 1759.5 L 906 1733.5 L 905 1732.5 L 905 1674.5 L 906 1672.5 L 906 1670.5 L 906 1644.5 L 907 1643.5 L 907 1624.5 L 908 1623.5 L 907 1621.5 L 908 1620.5 L 908 1605.5 L 909 1604.5 L 909 1590.5 L 910 1589.5 L 910 1576.5 L 912 1565.5 L 913 1545.5 L 917 1522.5 L 917 1520.5 L 918 1503.5 L 920 1494.5 L 920 1492.5 L 920 1485.5 L 921 1484.5 L 922 1469.5 L 925 1455.5 L 925 1448.5 L 926 1447.5 L 933 1400.5 L 938 1378.5 L 938 1373.5 L 941 1364.5 L 943 1349.5 L 953 1309.5 L 953 1305.5 L 961 1279.5 L 961 1275.5 L 974 1226.5 L 973 1226.5 L 937 1290.5 L 883 1373.5 L 817 1463.5 L 765 1527 Q 762.3 1525.9 763 1528.5 L 726 1569.5 L 726 1571 L 722 1573.5 L 711 1586.5 L 662.5 1635 Q 623.4 1672.4 580.5 1706 L 541.5 1735 L 520.5 1747 L 513.5 1753 L 495.5 1764 L 451.5 1786 L 437.5 1790 L 435.5 1792 L 415.5 1799 L 382.5 1806 L 349.5 1806 L 331.5 1802 L 321.5 1798 L 309.5 1791 L 305 1786.5 L 298 1774.5 L 291 1752.5 Q 292.3 1747.7 290 1746.5 L 290 1714.5 L 291 1713.5 L 293 1695.5 L 297 1680.5 L 304 1660.5 L 306 1658.5 L 310 1644.5 L 332 1600.5 L 343 1582.5 L 349 1575.5 L 361 1554.5 Q 427.4 1461.9 509.5 1385 L 525 1371.5 Q 524.3 1369.3 526.5 1370 L 563.5 1336 L 569 1333 Q 567.9 1330.3 570.5 1331 L 632.5 1279 L 722.5 1213 L 805.5 1159 L 870 1122.5 L 867.5 1122 L 863.5 1124 L 820.5 1135 L 816.5 1135 L 790.5 1143 L 786.5 1143 L 746.5 1153 L 731.5 1155 L 722.5 1158 L 717.5 1158 L 695.5 1163 L 690.5 1163 L 647.5 1171 L 640.5 1171 L 639.5 1172 L 603.5 1176 L 602.5 1177 L 600.5 1177 L 583.5 1178 L 574.5 1180 L 572.5 1180 L 551.5 1182 L 550.5 1183 L 541.5 1183 L 540.5 1184 L 520.5 1185 L 519.5 1186 L 475.5 1188 L 473.5 1189 L 471.5 1189 L 425.5 1190 L 424.5 1191 L 422.5 1190 L 421.5 1191 L 363.5 1191 L 362.5 1190 L 336.5 1190 L 335.5 1189 L 302.5 1188 L 301.5 1187 L 290.5 1187 L 289.5 1186 L 279.5 1186 L 278.5 1185 L 252.5 1183 L 239.5 1180 L 233.5 1180 L 232.5 1179 L 226.5 1179 L 219.5 1177 L 212.5 1177 L 206.5 1175 L 189.5 1173 L 137.5 1160 L 100.5 1147 L 58.5 1126 L 40.5 1113 L 18 1090.5 L 9 1076.5 L 0 1050.5 L 0 1048.5 L 1 1046.5 L 0 1044.5 L 2 1041.5 L 4 1031.5 L 12 1014.5 L 18 1005.5 L 40.5 983 L 42.5 983 L 58.5 970 L 105.5 947 L 137.5 936 L 189.5 923 L 206.5 921 L 212.5 919 L 219.5 919 L 226.5 917 L 232.5 917 L 233.5 916 L 239.5 916 L 252.5 913 L 269.5 912 L 279.5 910 L 289.5 910 L 290.5 909 L 301.5 909 L 302.5 908 L 335.5 907 L 336.5 906 L 362.5 906 L 363.5 905 L 422.5 905 L 425.5 906 L 451.5 906 L 452.5 907 L 471.5 907 L 472.5 908 L 474.5 907 L 475.5 908 L 490.5 908 L 491.5 909 L 505.5 909 L 506.5 910 L 519.5 910 L 530.5 912 L 550.5 913 L 573.5 917 L 575.5 917 L 592.5 918 L 601.5 920 L 603.5 920 L 610.5 920 L 611.5 921 L 626.5 922 L 640.5 925 L 647.5 925 L 648.5 926 L 695.5 933 L 717.5 938 L 722.5 938 L 731.5 941 L 746.5 943 L 786.5 953 L 790.5 953 L 816.5 961 L 820.5 961 L 869.5 974 L 869.5 973 L 805.5 937 L 722.5 883 L 632.5 817 L 569 765 Q 570.1 762.3 567.5 763 L 526.5 726 L 525 726 L 522.5 722 L 509.5 711 L 461 662.5 Q 423.6 623.4 390 580.5 L 361 541.5 L 349 520.5 L 343 513.5 L 332 495.5 L 310 451.5 L 306 437.5 L 304 435.5 L 297 415.5 L 293 400.5 L 291 382.5 L 290 381.5 L 290 349.5 L 294 331.5 L 298 321.5 L 305 309.5 L 309.5 305 L 321.5 298 L 343.5 291 Q 348.3 292.3 349.5 290 L 381.5 290 L 382.5 291 L 400.5 293 L 415.5 297 L 435.5 304 L 437.5 306 L 451.5 310 L 495.5 332 L 513.5 343 L 520.5 349 L 541.5 361 Q 634.1 427.4 711 509.5 L 724.5 525 Q 726.8 524.3 726 526.5 L 760 563.5 L 763 569 Q 765.7 567.9 765 570.5 L 817 632.5 L 883 722.5 L 937 805.5 L 973.5 870 L 974 867.5 L 972 863.5 L 961 820.5 L 961 816.5 L 953 790.5 L 953 786.5 L 943 746.5 L 941 731.5 L 938 722.5 L 938 717.5 L 933 695.5 L 933 690.5 L 925 647.5 L 925 640.5 L 924 639.5 L 920 603.5 L 919 602.5 L 919 600.5 L 918 583.5 L 916 574.5 L 916 572.5 L 914 551.5 L 913 550.5 L 913 541.5 L 912 540.5 L 911 520.5 L 910 519.5 L 908 475.5 L 907 473.5 L 907 471.5 L 906 425.5 L 905 424.5 L 905 422.5 L 905 363.5 L 906 362.5 L 906 336.5 L 907 335.5 L 907 316.5 L 908 315.5 L 909 290.5 L 910 289.5 L 910 279.5 L 911 278.5 L 913 252.5 L 914 251.5 L 917 226.5 L 919 219.5 L 919 212.5 L 921 206.5 L 926 175.5 L 936 137.5 L 944 113.5 L 958 81.5 L 974 52.5 L 983 42.5 L 983 40.5 L 1005.5 18 L 1019.5 9 L 1044.5 0 Z M 1045 2 L 1042 4 L 1030 7 L 1018 13 L 1003 24 L 980 49 L 965 73 L 949 108 L 936 147 L 924 197 L 923 208 L 918 232 L 917 245 L 916 246 L 913 282 L 912 283 L 912 294 L 911 295 L 910 323 L 909 324 L 909 349 L 908 350 L 908 442 L 909 443 L 909 468 L 910 469 L 910 486 L 911 487 L 911 501 L 912 502 L 914 539 L 915 540 L 916 560 L 917 561 L 920 594 L 921 595 L 921 603 L 923 610 L 926 638 L 935 687 L 935 692 L 950 767 L 960 806 L 960 810 L 962 814 L 962 818 L 982 886 L 981 886 L 957 844 L 924 789 L 868 705 Q 829 650 787 599 Q 749 552 707 509 Q 662 461 612 418 Q 567 379 517 347 Q 484 326 447 310 L 416 299 L 381 292 L 351 292 L 340 294 L 327 298 L 311 306 L 306 311 L 298 327 L 292 351 L 292 381 L 299 416 L 310 447 L 329 486 L 347 517 L 384 570 Q 422 619 465 664 Q 647 851 886 981 L 886 982 L 818 962 L 814 962 L 810 960 L 789 956 L 776 952 L 703 937 L 698 937 L 663 930 L 657 930 L 651 928 L 610 923 L 603 921 L 587 920 L 579 918 L 561 917 L 560 916 L 516 913 L 515 912 L 502 912 L 501 911 L 469 910 L 468 909 L 443 909 L 442 908 L 350 908 L 349 909 L 324 909 L 323 910 L 309 910 L 308 911 L 295 911 L 294 912 L 273 913 L 272 914 L 262 914 L 261 915 L 246 916 L 245 917 L 232 918 L 208 923 L 197 924 L 147 936 L 103 951 L 66 969 Q 49 978 37 990 L 16 1013 L 7 1030 L 4 1042 L 2 1045 L 2 1052 L 4 1055 L 7 1067 Q 13 1082 24 1094 L 49 1116 L 73 1131 L 108 1147 L 147 1160 L 197 1172 L 208 1173 L 232 1178 L 245 1179 L 246 1180 L 282 1183 L 283 1184 L 294 1184 L 295 1185 L 323 1186 L 324 1187 L 349 1187 L 350 1188 L 442 1188 L 443 1187 L 468 1187 L 469 1186 L 486 1186 L 487 1185 L 501 1185 L 502 1184 L 539 1182 L 540 1181 L 560 1180 L 561 1179 L 594 1176 L 595 1175 L 603 1175 L 610 1173 L 638 1170 L 687 1161 L 692 1161 L 767 1146 L 806 1136 L 810 1136 L 814 1134 L 818 1134 L 886 1114 L 886 1116 L 844 1139 L 789 1172 L 705 1228 Q 650 1267 599 1309 Q 552 1347 509 1389 Q 461 1434 418 1485 Q 379 1529 347 1580 Q 326 1612 310 1650 L 299 1681 L 292 1716 L 292 1746 L 294 1757 L 298 1770 L 306 1786 L 311 1790 L 327 1798 L 351 1804 L 382 1804 L 416 1797 L 447 1786 L 486 1767 L 517 1749 L 570 1712 Q 619 1674 664 1631 Q 851 1449 981 1210 L 982 1211 L 962 1279 L 962 1283 L 960 1287 L 956 1308 L 952 1321 L 937 1394 L 937 1399 L 930 1434 L 930 1440 L 928 1446 L 923 1487 L 921 1494 L 920 1510 L 918 1518 L 917 1536 L 916 1537 L 913 1581 L 912 1582 L 912 1595 L 911 1596 L 910 1628 L 909 1629 L 909 1654 L 908 1655 L 908 1747 L 909 1748 L 909 1773 L 910 1774 L 910 1788 L 911 1789 L 911 1802 L 912 1803 L 913 1824 L 914 1825 L 914 1835 L 915 1836 L 916 1851 L 917 1852 L 918 1865 L 923 1889 L 924 1900 L 936 1950 L 951 1994 L 969 2031 Q 978 2047 990 2060 L 1013 2080 L 1030 2089 L 1042 2092 L 1045 2094 L 1052 2094 L 1055 2092 L 1067 2089 Q 1082 2083 1094 2072 L 1116 2048 L 1131 2024 L 1147 1989 L 1160 1950 L 1172 1900 L 1173 1889 L 1178 1865 L 1179 1852 L 1180 1851 L 1183 1815 L 1184 1814 L 1184 1803 L 1185 1802 L 1186 1774 L 1187 1773 L 1187 1748 L 1188 1747 L 1188 1655 L 1187 1654 L 1187 1629 L 1186 1628 L 1186 1611 L 1185 1610 L 1185 1596 L 1184 1595 L 1182 1558 L 1181 1557 L 1180 1537 L 1179 1536 L 1176 1503 L 1175 1502 L 1175 1494 L 1173 1487 L 1170 1459 L 1161 1410 L 1161 1405 L 1146 1330 L 1136 1291 L 1136 1287 L 1134 1283 L 1134 1279 L 1114 1211 L 1116 1210 L 1139 1253 L 1172 1308 L 1228 1392 Q 1267 1446 1309 1498 Q 1347 1544 1389 1588 Q 1434 1635 1485 1678 Q 1529 1717 1580 1749 Q 1612 1770 1650 1786 L 1681 1797 L 1715 1804 L 1746 1804 Q 1747 1802 1752 1803 L 1770 1798 L 1786 1790 L 1790 1786 L 1798 1770 L 1804 1746 L 1804 1715 L 1797 1681 L 1786 1650 L 1767 1611 L 1749 1580 L 1712 1527 Q 1674 1477 1631 1433 Q 1449 1245 1210 1116 L 1211 1114 L 1279 1134 L 1283 1134 L 1287 1136 L 1308 1140 L 1321 1144 L 1394 1159 L 1399 1159 L 1434 1166 L 1440 1166 L 1446 1168 L 1487 1173 L 1494 1175 L 1510 1176 L 1518 1178 L 1536 1179 L 1537 1180 L 1581 1183 L 1582 1184 L 1595 1184 L 1596 1185 L 1628 1186 L 1629 1187 L 1654 1187 L 1655 1188 L 1747 1188 L 1748 1187 L 1773 1187 L 1774 1186 L 1788 1186 L 1789 1185 L 1802 1185 L 1803 1184 L 1824 1183 L 1825 1182 L 1835 1182 L 1836 1181 L 1851 1180 L 1852 1179 L 1865 1178 L 1889 1173 L 1900 1172 L 1950 1160 L 1994 1145 L 2031 1127 Q 2047 1118 2060 1106 L 2080 1084 L 2089 1067 L 2092 1055 L 2094 1052 L 2094 1045 L 2092 1042 L 2089 1030 Q 2083 1014 2072 1003 L 2048 980 L 2024 965 L 1989 949 L 1950 936 L 1900 924 L 1889 923 L 1865 918 L 1852 917 L 1851 916 L 1815 913 L 1814 912 L 1803 912 L 1802 911 L 1774 910 L 1773 909 L 1748 909 L 1747 908 L 1655 908 L 1654 909 L 1629 909 L 1628 910 L 1611 910 L 1610 911 L 1596 911 L 1595 912 L 1558 914 L 1557 915 L 1537 916 L 1536 917 L 1503 920 L 1502 921 L 1494 921 L 1487 923 L 1459 926 L 1410 935 L 1405 935 L 1330 950 L 1291 960 L 1287 960 L 1283 962 L 1279 962 L 1211 982 L 1210 981 L 1253 957 L 1308 924 L 1392 868 Q 1446 829 1498 787 Q 1544 749 1588 707 Q 1635 662 1678 612 Q 1717 567 1749 517 Q 1770 484 1786 447 L 1797 416 L 1804 382 L 1804 351 Q 1802 349 1803 345 L 1798 327 L 1790 311 L 1786 306 L 1770 298 L 1746 292 L 1716 292 L 1681 299 L 1650 310 L 1611 329 L 1580 347 L 1527 384 Q 1477 422 1433 465 Q 1245 647 1116 886 L 1114 886 L 1134 818 L 1134 814 L 1136 810 L 1140 789 L 1144 776 L 1159 703 L 1159 698 L 1166 663 L 1166 657 L 1168 651 L 1173 610 L 1175 603 L 1176 587 L 1178 579 L 1179 561 L 1180 560 L 1183 516 L 1184 515 L 1184 502 L 1185 501 L 1186 469 L 1187 468 L 1187 443 L 1188 442 L 1188 350 L 1187 349 L 1187 324 L 1186 323 L 1186 309 L 1185 308 L 1185 295 L 1184 294 L 1183 273 L 1182 272 L 1182 262 L 1181 261 L 1180 246 L 1179 245 L 1178 232 L 1173 208 L 1172 197 L 1160 147 L 1145 103 L 1127 66 Q 1118 49 1106 37 Q 1094 23 1079 13 L 1067 7 L 1055 4 L 1052 2 L 1045 2 Z " /><path fill="#fffef2" stroke="#fffef2" stroke-width="1" opacity="0.996078431372549" d="M 1044.5 2 L 1051.5 2 L 1054.5 4 L 1066.5 7 L 1078.5 13 Q 1094.2 22.8 1106 36.5 Q 1118 49.5 1127 65.5 L 1145 102.5 L 1160 146.5 L 1172 196.5 L 1173 207.5 L 1178 231.5 L 1179 244.5 L 1180 245.5 L 1181 260.5 L 1182 261.5 L 1182 271.5 L 1183 272.5 L 1184 293.5 L 1185 294.5 L 1185 307.5 L 1186 308.5 L 1186 322.5 L 1187 323.5 L 1187 348.5 L 1188 349.5 L 1188 441.5 L 1187 442.5 L 1187 467.5 L 1186 468.5 L 1185 500.5 L 1184 501.5 L 1184 514.5 L 1183 515.5 L 1180 559.5 L 1179 560.5 L 1178 578.5 L 1176 586.5 L 1175 602.5 L 1173 609.5 L 1168 650.5 L 1166 656.5 L 1166 662.5 L 1159 697.5 L 1159 702.5 L 1144 775.5 L 1140 788.5 L 1136 809.5 L 1134 813.5 L 1134 817.5 L 1114 885.5 L 1115.5 886 Q 1245.3 646.8 1432.5 465 Q 1492.2 407.2 1561.5 359 L 1610.5 329 Q 1635 315 1663.5 305 L 1663.5 306 Q 1637.1 316.1 1613.5 329 L 1578.5 349 L 1516 393 Q 1517.1 395.7 1514.5 395 L 1465.5 436 L 1440 459.5 L 1432.5 468 L 1419 479 L 1419 480.5 Q 1375.7 522.7 1336 568.5 L 1265 655.5 L 1257 668.5 L 1223 713.5 L 1179 779.5 L 1138 849.5 L 1135 852.5 L 1133 858.5 L 1115 891.5 L 1111.5 895 Q 1108.9 895.8 1110 892.5 L 1127 837.5 L 1133 811.5 L 1135 808.5 L 1138 790.5 L 1141 782.5 L 1143 768.5 L 1146 759.5 L 1147 749.5 L 1153 725.5 L 1153 720.5 L 1159 693.5 L 1159 688.5 L 1168 639.5 L 1168 632.5 L 1171 619.5 L 1173 596.5 L 1174 595.5 L 1176 573.5 L 1179 557.5 L 1181 523.5 L 1182 522.5 L 1182 520.5 L 1182 509.5 L 1183 508.5 L 1183 506.5 L 1183 492.5 L 1184 491.5 L 1184 477.5 L 1185 475.5 L 1185 473.5 L 1185 454.5 L 1186 453.5 L 1185 451.5 L 1186 450.5 L 1186 421.5 L 1187 420.5 L 1187 366.5 L 1186 365.5 L 1186 340.5 L 1185 339.5 L 1186 337.5 L 1185 335.5 L 1185 333.5 L 1185 318.5 L 1184 317.5 L 1185 315.5 L 1184 314.5 L 1182 276.5 L 1180 265.5 L 1180 263.5 L 1179 247.5 L 1169 190.5 L 1160 152.5 L 1153 132.5 L 1153 130.5 L 1137 87.5 L 1125 65.5 L 1111 44.5 L 1090.5 23 L 1064.5 8 L 1051.5 4 L 1044.5 4 Q 1012.5 12.5 994 34.5 L 978 54.5 L 963 79.5 L 942 131.5 L 942 133.5 L 936 152.5 L 927 190.5 L 920 228.5 L 920 234.5 L 916 255.5 L 916 263.5 L 915 264.5 L 916 266.5 L 914 276.5 L 914 288.5 L 913 289.5 L 912 314.5 L 911 316.5 L 911 318.5 L 911 333.5 L 910 334.5 L 911 336.5 L 910 338.5 L 910 340.5 L 909 420.5 L 910 421.5 L 910 450.5 L 911 452.5 L 911 454.5 L 911 473.5 L 912 474.5 L 911 476.5 L 912 477.5 L 912 491.5 L 913 492.5 L 913 506.5 L 914 507.5 L 914 509.5 L 914 520.5 L 915 521.5 L 915 523.5 L 916 548.5 L 917 549.5 L 918 565.5 L 919 566.5 L 921 588.5 L 923 596.5 L 925 619.5 L 928 632.5 L 928 639.5 L 929 640.5 L 937 693.5 L 943 720.5 L 943 725.5 L 949 749.5 L 955 782.5 L 958 790.5 L 961 808.5 L 963 811.5 L 969 837.5 L 986 895 L 981 891.5 L 963 858.5 L 961 852.5 L 958 849.5 L 917 779.5 L 873 713.5 L 839 668.5 L 831 655.5 L 760 568.5 Q 720.3 522.7 677 480.5 L 677 479 L 675.5 479 L 656 460.5 L 654.5 458 L 609.5 418 L 580 395 Q 581.1 392.3 578.5 393 L 517.5 349 L 482.5 329 L 432 305.5 L 433.5 305 Q 466.2 317.3 494.5 334 L 516.5 347 L 569.5 384 Q 643.3 441.2 707 508.5 Q 748.5 552 787 598.5 Q 829.3 649.7 868 704.5 L 924 788.5 L 957 843.5 L 980.5 886 L 982 885.5 L 962 817.5 L 962 813.5 L 960 809.5 L 960 805.5 L 950 766.5 L 935 691.5 L 935 686.5 L 926 637.5 L 923 609.5 L 921 602.5 L 921 594.5 L 920 593.5 L 917 560.5 L 916 559.5 L 915 539.5 L 914 538.5 L 912 501.5 L 911 500.5 L 911 486.5 L 910 485.5 L 910 468.5 L 909 467.5 L 909 442.5 L 908 441.5 L 908 349.5 L 909 348.5 L 909 323.5 L 910 322.5 L 911 294.5 L 912 293.5 L 912 282.5 L 913 281.5 L 916 245.5 L 917 244.5 L 918 231.5 L 923 207.5 L 924 196.5 L 936 146.5 L 949 107.5 L 965 72.5 L 980 48.5 L 1002.5 24 L 1017.5 13 L 1029.5 7 L 1041.5 4 L 1044.5 2 Z " /><path fill="#fffef2" stroke="#fffef2" stroke-width="1" opacity="0.996078431372549" d="M 350.5 292 L 380.5 292 Q 382.3 294.8 388.5 293 L 415.5 299 L 431 304.5 L 428.5 305 L 414.5 300 L 387.5 294 Q 381.3 295.8 379.5 293 L 352.5 293 L 351.5 294 L 340.5 295 L 325.5 300 L 311.5 307 L 307 311.5 Q 299.3 324.3 295 340.5 L 294 351.5 L 293 352.5 L 293 379.5 L 297 402.5 L 304 424.5 L 305 431.5 L 316 456.5 L 349 517.5 L 393 580 Q 395.7 578.9 395 581.5 L 436 630.5 L 459.5 656 L 468 663.5 L 479 677 L 480.5 677 Q 522.7 720.3 568.5 760 L 655.5 831 L 668.5 839 L 713.5 873 L 779.5 917 L 849.5 958 L 852.5 961 L 858.5 963 L 891.5 981 L 895 984.5 Q 895.8 987.1 892.5 986 L 837.5 969 L 811.5 963 L 808.5 961 L 790.5 958 L 782.5 955 L 768.5 953 L 759.5 950 L 749.5 949 L 725.5 943 L 720.5 943 L 693.5 937 L 688.5 937 L 639.5 928 L 632.5 928 L 619.5 925 L 596.5 923 L 595.5 922 L 573.5 920 L 557.5 917 L 523.5 915 L 522.5 914 L 520.5 914 L 509.5 914 L 508.5 913 L 506.5 913 L 492.5 913 L 491.5 912 L 477.5 912 L 475.5 911 L 473.5 911 L 454.5 911 L 453.5 910 L 451.5 911 L 450.5 910 L 421.5 910 L 420.5 909 L 366.5 909 L 365.5 910 L 340.5 910 L 339.5 911 L 337.5 910 L 335.5 911 L 333.5 911 L 318.5 911 L 317.5 912 L 315.5 911 L 314.5 912 L 276.5 914 L 265.5 916 L 263.5 916 L 247.5 917 L 190.5 927 L 152.5 936 L 132.5 943 L 130.5 943 L 87.5 959 L 65.5 971 L 44.5 985 L 23 1005.5 L 8 1031.5 L 4 1044.5 L 4 1051.5 Q 12.5 1083.5 34.5 1102 L 54.5 1118 L 79.5 1133 L 131.5 1154 L 133.5 1154 L 152.5 1160 L 190.5 1169 L 228.5 1176 L 234.5 1176 L 255.5 1180 L 263.5 1180 L 264.5 1181 L 266.5 1180 L 276.5 1182 L 288.5 1182 L 289.5 1183 L 314.5 1184 L 316.5 1185 L 318.5 1185 L 333.5 1185 L 334.5 1186 L 336.5 1185 L 338.5 1186 L 340.5 1186 L 420.5 1187 L 421.5 1186 L 450.5 1186 L 452.5 1185 L 454.5 1185 L 473.5 1185 L 474.5 1184 L 476.5 1185 L 477.5 1184 L 491.5 1184 L 492.5 1183 L 506.5 1183 L 507.5 1182 L 509.5 1182 L 520.5 1182 L 521.5 1181 L 523.5 1181 L 548.5 1180 L 549.5 1179 L 565.5 1178 L 566.5 1177 L 588.5 1175 L 596.5 1173 L 619.5 1171 L 632.5 1168 L 639.5 1168 L 640.5 1167 L 693.5 1159 L 720.5 1153 L 725.5 1153 L 749.5 1147 L 782.5 1141 L 790.5 1138 L 808.5 1135 L 811.5 1133 L 837.5 1127 L 895 1110 L 891.5 1115 L 858.5 1133 L 852.5 1135 L 849.5 1138 L 779.5 1179 L 713.5 1223 L 668.5 1257 L 655.5 1265 L 568.5 1336 Q 522.7 1375.7 480.5 1419 L 479 1419 L 479 1420.5 L 460.5 1440 L 458 1441.5 L 418 1486.5 L 395 1516 Q 392.3 1514.9 393 1517.5 L 349 1578.5 L 329 1613.5 L 312 1648.5 L 305 1664.5 L 304 1671.5 L 297 1693.5 L 293 1716.5 L 293 1743.5 L 294 1744.5 L 295 1755.5 L 300 1770.5 L 307 1784.5 L 311.5 1789 Q 324.3 1796.7 340.5 1801 L 351.5 1802 L 352.5 1803 L 379.5 1803 L 402.5 1799 L 430.5 1791 L 430.5 1792 L 415.5 1797 L 388.5 1803 Q 383 1801.5 381.5 1804 L 350.5 1804 L 326.5 1798 L 310.5 1790 L 306 1785.5 L 298 1769.5 L 294 1756.5 L 292 1745.5 L 292 1715.5 L 299 1680.5 L 310 1649.5 Q 326.4 1612.4 347 1579.5 Q 379.5 1529 418 1484.5 Q 460.9 1434.4 508.5 1389 Q 552 1347.5 598.5 1309 Q 649.7 1266.7 704.5 1228 L 788.5 1172 L 843.5 1139 L 886 1115.5 L 885.5 1114 L 817.5 1134 L 813.5 1134 L 809.5 1136 L 805.5 1136 L 766.5 1146 L 691.5 1161 L 686.5 1161 L 637.5 1170 L 609.5 1173 L 602.5 1175 L 594.5 1175 L 593.5 1176 L 560.5 1179 L 559.5 1180 L 539.5 1181 L 538.5 1182 L 501.5 1184 L 500.5 1185 L 486.5 1185 L 485.5 1186 L 468.5 1186 L 467.5 1187 L 442.5 1187 L 441.5 1188 L 349.5 1188 L 348.5 1187 L 323.5 1187 L 322.5 1186 L 294.5 1185 L 293.5 1184 L 282.5 1184 L 281.5 1183 L 245.5 1180 L 244.5 1179 L 231.5 1178 L 207.5 1173 L 196.5 1172 L 146.5 1160 L 107.5 1147 L 72.5 1131 L 48.5 1116 L 24 1093.5 Q 13.3 1082.2 7 1066.5 L 4 1054.5 L 2 1051.5 L 2 1044.5 L 4 1041.5 L 7 1029.5 L 16 1012.5 L 36.5 990 Q 49.5 978 65.5 969 L 102.5 951 L 146.5 936 L 196.5 924 L 207.5 923 L 231.5 918 L 244.5 917 L 245.5 916 L 260.5 915 L 261.5 914 L 271.5 914 L 272.5 913 L 293.5 912 L 294.5 911 L 307.5 911 L 308.5 910 L 322.5 910 L 323.5 909 L 348.5 909 L 349.5 908 L 441.5 908 L 442.5 909 L 467.5 909 L 468.5 910 L 500.5 911 L 501.5 912 L 514.5 912 L 515.5 913 L 559.5 916 L 560.5 917 L 578.5 918 L 586.5 920 L 602.5 921 L 609.5 923 L 650.5 928 L 656.5 930 L 662.5 930 L 697.5 937 L 702.5 937 L 775.5 952 L 788.5 956 L 809.5 960 L 813.5 962 L 817.5 962 L 885.5 982 L 886 980.5 Q 646.8 850.7 465 663.5 Q 422.1 618.9 384 569.5 L 347 516.5 L 329 485.5 L 310 446.5 L 299 415.5 L 292 380.5 L 292 350.5 L 298 326.5 L 306 310.5 L 310.5 306 L 326.5 298 L 350.5 292 Z " /><path fill="#fffef2" stroke="#fffef2" stroke-width="1" opacity="0.996078431372549" d="M 1715.5 292 Q 1765.9 288.1 1790 310.5 L 1798 326.5 L 1803 344.5 Q 1801.7 349.2 1804 350.5 L 1804 381.5 L 1797 415.5 L 1791.5 431 L 1791 428.5 L 1796 414.5 L 1802 387.5 Q 1800.2 381.3 1803 379.5 L 1803 352.5 L 1802 351.5 L 1801 340.5 L 1796 325.5 L 1789 311.5 L 1784.5 307 Q 1771.7 299.3 1755.5 295 L 1744.5 294 L 1743.5 293 L 1716.5 293 L 1693.5 297 L 1665.5 305 L 1665.5 304 L 1696.5 295 L 1714.5 293 L 1715.5 292 Z " /><path fill="#fffef2" stroke="#fffef2" stroke-width="1" opacity="0.996078431372549" d="M 1790.5 432 L 1791 433.5 Q 1778.7 466.2 1762 494.5 L 1749 516.5 L 1712 569.5 Q 1654.8 643.3 1587.5 707 Q 1544 748.5 1497.5 787 Q 1446.3 829.3 1391.5 868 L 1307.5 924 L 1252.5 957 L 1210 980.5 L 1210.5 982 L 1278.5 962 L 1282.5 962 L 1286.5 960 L 1290.5 960 L 1329.5 950 L 1404.5 935 L 1409.5 935 L 1458.5 926 L 1486.5 923 L 1493.5 921 L 1501.5 921 L 1502.5 920 L 1535.5 917 L 1536.5 916 L 1556.5 915 L 1557.5 914 L 1594.5 912 L 1595.5 911 L 1609.5 911 L 1610.5 910 L 1627.5 910 L 1628.5 909 L 1653.5 909 L 1654.5 908 L 1746.5 908 L 1747.5 909 L 1772.5 909 L 1773.5 910 L 1801.5 911 L 1802.5 912 L 1813.5 912 L 1814.5 913 L 1850.5 916 L 1851.5 917 L 1864.5 918 L 1888.5 923 L 1899.5 924 L 1949.5 936 L 1988.5 949 L 2023.5 965 L 2047.5 980 L 2072 1002.5 Q 2082.7 1013.8 2089 1029.5 L 2092 1041.5 L 2094 1044.5 L 2094 1051.5 L 2092 1054.5 L 2089 1066.5 L 2080 1083.5 L 2059.5 1106 Q 2046.5 1118 2030.5 1127 L 1993.5 1145 L 1949.5 1160 L 1899.5 1172 L 1888.5 1173 L 1864.5 1178 L 1851.5 1179 L 1850.5 1180 L 1835.5 1181 L 1834.5 1182 L 1824.5 1182 L 1823.5 1183 L 1802.5 1184 L 1801.5 1185 L 1788.5 1185 L 1787.5 1186 L 1773.5 1186 L 1772.5 1187 L 1747.5 1187 L 1746.5 1188 L 1654.5 1188 L 1653.5 1187 L 1628.5 1187 L 1627.5 1186 L 1595.5 1185 L 1594.5 1184 L 1581.5 1184 L 1580.5 1183 L 1536.5 1180 L 1535.5 1179 L 1517.5 1178 L 1509.5 1176 L 1493.5 1175 L 1486.5 1173 L 1445.5 1168 L 1439.5 1166 L 1433.5 1166 L 1398.5 1159 L 1393.5 1159 L 1320.5 1144 L 1307.5 1140 L 1286.5 1136 L 1282.5 1134 L 1278.5 1134 L 1210.5 1114 L 1210 1115.5 Q 1449.2 1245.3 1631 1432.5 Q 1688.8 1492.2 1737 1561.5 L 1767 1610.5 Q 1781 1635 1791 1663.5 L 1790 1663.5 Q 1779.9 1637.1 1767 1613.5 L 1747 1578.5 L 1703 1516 Q 1700.3 1517.1 1701 1514.5 L 1660 1465.5 L 1636.5 1440 L 1628 1432.5 L 1617 1419 L 1615.5 1419 Q 1573.3 1375.7 1527.5 1336 L 1440.5 1265 L 1427.5 1257 L 1382.5 1223 L 1316.5 1179 L 1246.5 1138 L 1243.5 1135 L 1237.5 1133 L 1204.5 1115 L 1201 1111.5 Q 1200.2 1108.9 1203.5 1110 L 1258.5 1127 L 1284.5 1133 L 1287.5 1135 L 1305.5 1138 L 1313.5 1141 L 1327.5 1143 L 1336.5 1146 L 1346.5 1147 L 1370.5 1153 L 1375.5 1153 L 1402.5 1159 L 1407.5 1159 L 1456.5 1168 L 1463.5 1168 L 1476.5 1171 L 1499.5 1173 L 1500.5 1174 L 1522.5 1176 L 1538.5 1179 L 1572.5 1181 L 1573.5 1182 L 1575.5 1182 L 1586.5 1182 L 1587.5 1183 L 1589.5 1183 L 1603.5 1183 L 1604.5 1184 L 1618.5 1184 L 1620.5 1185 L 1622.5 1185 L 1641.5 1185 L 1642.5 1186 L 1644.5 1185 L 1645.5 1186 L 1674.5 1186 L 1675.5 1187 L 1729.5 1187 L 1730.5 1186 L 1755.5 1186 L 1756.5 1185 L 1758.5 1186 L 1760.5 1185 L 1762.5 1185 L 1777.5 1185 L 1778.5 1184 L 1780.5 1185 L 1781.5 1184 L 1819.5 1182 L 1830.5 1180 L 1832.5 1180 L 1848.5 1179 L 1905.5 1169 L 1943.5 1160 L 1963.5 1153 L 1965.5 1153 L 2008.5 1137 L 2030.5 1125 L 2051.5 1111 L 2073 1090.5 L 2088 1064.5 L 2092 1051.5 L 2092 1044.5 Q 2083.5 1012.5 2061.5 994 L 2041.5 978 L 2016.5 963 L 1964.5 942 L 1962.5 942 L 1943.5 936 L 1905.5 927 L 1867.5 920 L 1861.5 920 L 1840.5 916 L 1832.5 916 L 1831.5 915 L 1829.5 916 L 1819.5 914 L 1807.5 914 L 1806.5 913 L 1781.5 912 L 1779.5 911 L 1777.5 911 L 1762.5 911 L 1761.5 910 L 1759.5 911 L 1757.5 910 L 1755.5 910 L 1675.5 909 L 1674.5 910 L 1645.5 910 L 1643.5 911 L 1641.5 911 L 1622.5 911 L 1621.5 912 L 1619.5 911 L 1618.5 912 L 1604.5 912 L 1603.5 913 L 1589.5 913 L 1588.5 914 L 1586.5 914 L 1575.5 914 L 1574.5 915 L 1572.5 915 L 1547.5 916 L 1546.5 917 L 1530.5 918 L 1529.5 919 L 1507.5 921 L 1499.5 923 L 1476.5 925 L 1463.5 928 L 1456.5 928 L 1455.5 929 L 1402.5 937 L 1375.5 943 L 1370.5 943 L 1346.5 949 L 1313.5 955 L 1305.5 958 L 1287.5 961 L 1284.5 963 L 1258.5 969 L 1201 986 L 1204.5 981 L 1237.5 963 L 1243.5 961 L 1246.5 958 L 1316.5 917 L 1382.5 873 L 1427.5 839 L 1440.5 831 L 1527.5 760 Q 1573.3 720.3 1615.5 677 L 1617 677 L 1617 675.5 L 1635.5 656 L 1638 654.5 L 1678 609.5 L 1701 580 Q 1703.7 581.1 1703 578.5 L 1747 517.5 L 1767 482.5 L 1790.5 432 Z " /><path fill="#fffef2" stroke="#fffef2" stroke-width="1" opacity="0.996078431372549" d="M 984.5 1201 Q 987.1 1200.2 986 1203.5 L 969 1258.5 L 963 1284.5 L 961 1287.5 L 958 1305.5 L 955 1313.5 L 953 1327.5 L 950 1336.5 L 949 1346.5 L 943 1370.5 L 943 1375.5 L 937 1402.5 L 937 1407.5 L 928 1456.5 L 928 1463.5 L 925 1476.5 L 923 1499.5 L 922 1500.5 L 920 1522.5 L 917 1538.5 L 915 1572.5 L 914 1573.5 L 914 1575.5 L 914 1586.5 L 913 1587.5 L 913 1589.5 L 913 1603.5 L 912 1604.5 L 912 1618.5 L 911 1620.5 L 911 1622.5 L 911 1641.5 L 910 1642.5 L 911 1644.5 L 910 1645.5 L 910 1674.5 L 909 1675.5 L 909 1729.5 L 910 1730.5 L 910 1755.5 L 911 1756.5 L 910 1758.5 L 911 1760.5 L 911 1762.5 L 911 1777.5 L 912 1778.5 L 911 1780.5 L 912 1781.5 L 914 1819.5 L 916 1830.5 L 916 1832.5 L 917 1848.5 L 927 1905.5 L 936 1943.5 L 943 1963.5 L 943 1965.5 L 959 2008.5 L 971 2030.5 L 985 2051.5 L 1005.5 2073 L 1031.5 2088 L 1044.5 2092 L 1051.5 2092 Q 1083.5 2083.5 1102 2061.5 L 1118 2041.5 L 1133 2016.5 L 1154 1964.5 L 1154 1962.5 L 1160 1943.5 L 1169 1905.5 L 1176 1867.5 L 1176 1861.5 L 1180 1840.5 L 1180 1832.5 L 1181 1831.5 L 1180 1829.5 L 1182 1819.5 L 1182 1807.5 L 1183 1806.5 L 1184 1781.5 L 1185 1779.5 L 1185 1777.5 L 1185 1762.5 L 1186 1761.5 L 1185 1759.5 L 1186 1757.5 L 1186 1755.5 L 1187 1675.5 L 1186 1674.5 L 1186 1645.5 L 1185 1643.5 L 1185 1641.5 L 1185 1622.5 L 1184 1621.5 L 1185 1619.5 L 1184 1618.5 L 1184 1604.5 L 1183 1603.5 L 1183 1589.5 L 1182 1588.5 L 1182 1586.5 L 1182 1575.5 L 1181 1574.5 L 1181 1572.5 L 1180 1547.5 L 1179 1546.5 L 1178 1530.5 L 1177 1529.5 L 1175 1507.5 L 1173 1499.5 L 1171 1476.5 L 1168 1463.5 L 1168 1456.5 L 1167 1455.5 L 1159 1402.5 L 1153 1375.5 L 1153 1370.5 L 1147 1346.5 L 1141 1313.5 L 1138 1305.5 L 1135 1287.5 L 1133 1284.5 L 1127 1258.5 L 1110 1201 L 1115 1204.5 L 1133 1237.5 L 1135 1243.5 L 1138 1246.5 L 1179 1316.5 L 1223 1382.5 L 1257 1427.5 L 1265 1440.5 L 1336 1527.5 Q 1375.7 1573.3 1419 1615.5 L 1419 1617 L 1420.5 1617 L 1440 1635.5 L 1441.5 1638 L 1486.5 1678 L 1516 1701 Q 1514.9 1703.7 1517.5 1703 L 1578.5 1747 L 1613.5 1767 L 1664 1790.5 L 1662.5 1791 Q 1629.8 1778.7 1601.5 1762 L 1579.5 1749 L 1526.5 1712 Q 1452.7 1654.8 1389 1587.5 Q 1347.5 1544 1309 1497.5 Q 1266.7 1446.3 1228 1391.5 L 1172 1307.5 L 1139 1252.5 L 1115.5 1210 L 1114 1210.5 L 1134 1278.5 L 1134 1282.5 L 1136 1286.5 L 1136 1290.5 L 1146 1329.5 L 1161 1404.5 L 1161 1409.5 L 1170 1458.5 L 1173 1486.5 L 1175 1493.5 L 1175 1501.5 L 1176 1502.5 L 1179 1535.5 L 1180 1536.5 L 1181 1556.5 L 1182 1557.5 L 1184 1594.5 L 1185 1595.5 L 1185 1609.5 L 1186 1610.5 L 1186 1627.5 L 1187 1628.5 L 1187 1653.5 L 1188 1654.5 L 1188 1746.5 L 1187 1747.5 L 1187 1772.5 L 1186 1773.5 L 1185 1801.5 L 1184 1802.5 L 1184 1813.5 L 1183 1814.5 L 1180 1850.5 L 1179 1851.5 L 1178 1864.5 L 1173 1888.5 L 1172 1899.5 L 1160 1949.5 L 1147 1988.5 L 1131 2023.5 L 1116 2047.5 L 1093.5 2072 Q 1082.2 2082.7 1066.5 2089 L 1054.5 2092 L 1051.5 2094 L 1044.5 2094 L 1041.5 2092 L 1029.5 2089 L 1012.5 2080 L 990 2059.5 Q 978 2046.5 969 2030.5 L 951 1993.5 L 936 1949.5 L 924 1899.5 L 923 1888.5 L 918 1864.5 L 917 1851.5 L 916 1850.5 L 915 1835.5 L 914 1834.5 L 914 1824.5 L 913 1823.5 L 912 1802.5 L 911 1801.5 L 911 1788.5 L 910 1787.5 L 910 1773.5 L 909 1772.5 L 909 1747.5 L 908 1746.5 L 908 1654.5 L 909 1653.5 L 909 1628.5 L 910 1627.5 L 911 1595.5 L 912 1594.5 L 912 1581.5 L 913 1580.5 L 916 1536.5 L 917 1535.5 L 918 1517.5 L 920 1509.5 L 921 1493.5 L 923 1486.5 L 928 1445.5 L 930 1439.5 L 930 1433.5 L 937 1398.5 L 937 1393.5 L 952 1320.5 L 956 1307.5 L 960 1286.5 L 962 1282.5 L 962 1278.5 L 982 1210.5 L 980.5 1210 Q 850.7 1449.2 663.5 1631 Q 603.8 1688.8 534.5 1737 L 485.5 1767 Q 461 1781 432.5 1791 L 432.5 1790 Q 458.9 1779.9 482.5 1767 L 517.5 1747 L 580 1703 Q 578.9 1700.3 581.5 1701 L 630.5 1660 L 656 1636.5 L 663.5 1628 L 677 1617 L 677 1615.5 Q 720.3 1573.3 760 1527.5 L 831 1440.5 L 839 1427.5 L 873 1382.5 L 917 1316.5 L 958 1246.5 L 961 1243.5 L 963 1237.5 L 981 1204.5 L 984.5 1201 Z " /><path fill="#fffef2" stroke="#fffef2" stroke-width="1" opacity="0.996078431372549" d="M 1791.5 1665 L 1797 1680.5 L 1803 1707.5 Q 1801.5 1713 1804 1714.5 L 1804 1745.5 L 1798 1769.5 L 1790 1785.5 L 1785.5 1790 L 1769.5 1798 L 1751.5 1803 Q 1746.8 1801.7 1745.5 1804 L 1714.5 1804 L 1680.5 1797 L 1665 1791.5 L 1667.5 1791 L 1681.5 1796 L 1708.5 1802 Q 1714.7 1800.2 1716.5 1803 L 1743.5 1803 L 1744.5 1802 L 1755.5 1801 L 1770.5 1796 L 1784.5 1789 L 1789 1784.5 Q 1796.7 1771.7 1801 1755.5 L 1802 1744.5 L 1803 1743.5 L 1803 1716.5 L 1799 1693.5 L 1792 1671.5 L 1791.5 1665 Z " /><path fill="#fffef2" stroke="#fffef2" stroke-width="1" opacity="1" d="M 1044.5 4 L 1051.5 4 L 1058.5 6 L 1078.5 15 Q 1092.4 22.6 1102 34.5 L 1118 54.5 L 1133 79.5 L 1154 131.5 L 1154 133.5 L 1160 152.5 L 1169 190.5 L 1176 228.5 L 1176 234.5 L 1180 255.5 L 1180 263.5 L 1181 264.5 L 1180 266.5 L 1182 276.5 L 1182 288.5 L 1183 289.5 L 1184 314.5 L 1185 316.5 L 1185 318.5 L 1185 333.5 L 1186 334.5 L 1185 336.5 L 1186 338.5 L 1186 340.5 L 1187 420.5 L 1186 421.5 L 1186 450.5 L 1185 452.5 L 1185 454.5 L 1185 473.5 L 1184 474.5 L 1185 476.5 L 1184 477.5 L 1184 491.5 L 1183 492.5 L 1183 506.5 L 1182 507.5 L 1182 509.5 L 1182 520.5 L 1181 521.5 L 1181 523.5 L 1180 548.5 L 1179 549.5 L 1178 565.5 L 1177 566.5 L 1175 588.5 L 1173 596.5 L 1171 619.5 L 1168 632.5 L 1168 639.5 L 1167 640.5 L 1159 693.5 L 1153 720.5 L 1153 725.5 L 1147 749.5 L 1141 782.5 L 1138 790.5 L 1135 808.5 L 1133 811.5 L 1127 837.5 L 1110 895 L 1115 891.5 L 1133 858.5 L 1135 852.5 L 1138 849.5 L 1179 779.5 L 1223 713.5 L 1257 668.5 L 1265 655.5 L 1336 568.5 Q 1375.7 522.7 1419 480.5 L 1419 479 L 1420.5 479 L 1440 460.5 L 1441.5 458 L 1486.5 418 L 1516 395 Q 1514.9 392.3 1517.5 393 L 1578.5 349 L 1613.5 329 L 1648.5 312 L 1664.5 305 L 1671.5 304 L 1693.5 297 L 1716.5 293 L 1743.5 293 L 1744.5 294 L 1755.5 295 L 1770.5 300 L 1784.5 307 L 1789 311.5 Q 1796.7 324.3 1801 340.5 L 1802 351.5 L 1803 352.5 L 1803 379.5 L 1799 402.5 L 1792 424.5 L 1791 431.5 L 1780 456.5 L 1747 517.5 L 1703 580 Q 1700.3 578.9 1701 581.5 L 1660 630.5 L 1636.5 656 L 1628 663.5 L 1617 677 L 1615.5 677 Q 1573.3 720.3 1527.5 760 L 1440.5 831 L 1427.5 839 L 1382.5 873 L 1316.5 917 L 1246.5 958 L 1243.5 961 L 1237.5 963 L 1204.5 981 L 1201 984.5 Q 1200.2 987.1 1203.5 986 L 1258.5 969 L 1284.5 963 L 1287.5 961 L 1305.5 958 L 1313.5 955 L 1327.5 953 L 1336.5 950 L 1346.5 949 L 1370.5 943 L 1375.5 943 L 1402.5 937 L 1407.5 937 L 1456.5 928 L 1463.5 928 L 1476.5 925 L 1499.5 923 L 1500.5 922 L 1522.5 920 L 1538.5 917 L 1572.5 915 L 1573.5 914 L 1575.5 914 L 1586.5 914 L 1587.5 913 L 1589.5 913 L 1603.5 913 L 1604.5 912 L 1618.5 912 L 1620.5 911 L 1622.5 911 L 1641.5 911 L 1642.5 910 L 1644.5 911 L 1645.5 910 L 1674.5 910 L 1675.5 909 L 1729.5 909 L 1730.5 910 L 1755.5 910 L 1756.5 911 L 1758.5 910 L 1760.5 911 L 1762.5 911 L 1777.5 911 L 1778.5 912 L 1780.5 911 L 1781.5 912 L 1819.5 914 L 1830.5 916 L 1832.5 916 L 1848.5 917 L 1905.5 927 L 1943.5 936 L 1963.5 943 L 1965.5 943 L 2008.5 959 L 2030.5 971 L 2051.5 985 L 2073 1005.5 L 2088 1031.5 L 2092 1044.5 L 2092 1051.5 Q 2083.5 1083.5 2061.5 1102 L 2041.5 1118 L 2016.5 1133 L 1964.5 1154 L 1962.5 1154 L 1943.5 1160 L 1905.5 1169 L 1867.5 1176 L 1861.5 1176 L 1840.5 1180 L 1832.5 1180 L 1831.5 1181 L 1829.5 1180 L 1819.5 1182 L 1807.5 1182 L 1806.5 1183 L 1781.5 1184 L 1779.5 1185 L 1777.5 1185 L 1762.5 1185 L 1761.5 1186 L 1759.5 1185 L 1757.5 1186 L 1755.5 1186 L 1675.5 1187 L 1674.5 1186 L 1645.5 1186 L 1643.5 1185 L 1641.5 1185 L 1622.5 1185 L 1621.5 1184 L 1619.5 1185 L 1618.5 1184 L 1604.5 1184 L 1603.5 1183 L 1589.5 1183 L 1588.5 1182 L 1586.5 1182 L 1575.5 1182 L 1574.5 1181 L 1572.5 1181 L 1547.5 1180 L 1546.5 1179 L 1530.5 1178 L 1529.5 1177 L 1507.5 1175 L 1499.5 1173 L 1476.5 1171 L 1463.5 1168 L 1456.5 1168 L 1455.5 1167 L 1402.5 1159 L 1375.5 1153 L 1370.5 1153 L 1346.5 1147 L 1313.5 1141 L 1305.5 1138 L 1287.5 1135 L 1284.5 1133 L 1258.5 1127 L 1201 1110 L 1204.5 1115 L 1237.5 1133 L 1243.5 1135 L 1246.5 1138 L 1316.5 1179 L 1382.5 1223 L 1427.5 1257 L 1440.5 1265 L 1527.5 1336 Q 1573.3 1375.7 1615.5 1419 L 1617 1419 L 1617 1420.5 L 1635.5 1440 L 1638 1441.5 L 1678 1486.5 L 1701 1516 Q 1703.7 1514.9 1703 1517.5 L 1747 1578.5 L 1767 1613.5 L 1784 1648.5 L 1791 1664.5 L 1792 1671.5 L 1799 1693.5 L 1803 1716.5 L 1803 1743.5 L 1802 1744.5 L 1801 1755.5 L 1796 1770.5 L 1789 1784.5 L 1784.5 1789 Q 1771.7 1796.7 1755.5 1801 L 1744.5 1802 L 1743.5 1803 L 1716.5 1803 L 1693.5 1799 L 1671.5 1792 L 1664.5 1791 L 1639.5 1780 L 1578.5 1747 L 1516 1703 Q 1517.1 1700.3 1514.5 1701 L 1465.5 1660 L 1440 1636.5 L 1432.5 1628 L 1419 1617 L 1419 1615.5 Q 1375.7 1573.3 1336 1527.5 L 1265 1440.5 L 1257 1427.5 L 1223 1382.5 L 1179 1316.5 L 1138 1246.5 L 1135 1243.5 L 1133 1237.5 L 1115 1204.5 L 1111.5 1201 Q 1108.9 1200.2 1110 1203.5 L 1127 1258.5 L 1133 1284.5 L 1135 1287.5 L 1138 1305.5 L 1141 1313.5 L 1143 1327.5 L 1146 1336.5 L 1147 1346.5 L 1153 1370.5 L 1153 1375.5 L 1159 1402.5 L 1159 1407.5 L 1168 1456.5 L 1168 1463.5 L 1171 1476.5 L 1173 1499.5 L 1174 1500.5 L 1176 1522.5 L 1179 1538.5 L 1181 1572.5 L 1182 1573.5 L 1182 1575.5 L 1182 1586.5 L 1183 1587.5 L 1183 1589.5 L 1183 1603.5 L 1184 1604.5 L 1184 1618.5 L 1185 1620.5 L 1185 1622.5 L 1185 1641.5 L 1186 1642.5 L 1185 1644.5 L 1186 1645.5 L 1186 1674.5 L 1187 1675.5 L 1187 1729.5 L 1186 1730.5 L 1186 1755.5 L 1185 1756.5 L 1186 1758.5 L 1185 1760.5 L 1185 1762.5 L 1185 1777.5 L 1184 1778.5 L 1185 1780.5 L 1184 1781.5 L 1182 1819.5 L 1180 1830.5 L 1180 1832.5 L 1179 1848.5 L 1169 1905.5 L 1160 1943.5 L 1153 1963.5 L 1153 1965.5 L 1137 2008.5 L 1125 2030.5 L 1111 2051.5 L 1090.5 2073 L 1064.5 2088 L 1051.5 2092 L 1044.5 2092 Q 1012.5 2083.5 994 2061.5 L 978 2041.5 L 963 2016.5 L 942 1964.5 L 942 1962.5 L 936 1943.5 L 927 1905.5 L 920 1867.5 L 920 1861.5 L 916 1840.5 L 916 1832.5 L 915 1831.5 L 916 1829.5 L 914 1819.5 L 914 1807.5 L 913 1806.5 L 912 1781.5 L 911 1779.5 L 911 1777.5 L 911 1762.5 L 910 1761.5 L 911 1759.5 L 910 1757.5 L 910 1755.5 L 909 1675.5 L 910 1674.5 L 910 1645.5 L 911 1643.5 L 911 1641.5 L 911 1622.5 L 912 1621.5 L 911 1619.5 L 912 1618.5 L 912 1604.5 L 913 1603.5 L 913 1589.5 L 914 1588.5 L 914 1586.5 L 914 1575.5 L 915 1574.5 L 915 1572.5 L 916 1547.5 L 917 1546.5 L 918 1530.5 L 919 1529.5 L 921 1507.5 L 923 1499.5 L 925 1476.5 L 928 1463.5 L 928 1456.5 L 929 1455.5 L 937 1402.5 L 943 1375.5 L 943 1370.5 L 949 1346.5 L 955 1313.5 L 958 1305.5 L 961 1287.5 L 963 1284.5 L 969 1258.5 L 986 1201 L 981 1204.5 L 963 1237.5 L 961 1243.5 L 958 1246.5 L 917 1316.5 L 873 1382.5 L 839 1427.5 L 831 1440.5 L 760 1527.5 Q 720.3 1573.3 677 1615.5 L 677 1617 L 675.5 1617 L 656 1635.5 L 654.5 1638 L 609.5 1678 L 580 1701 Q 581.1 1703.7 578.5 1703 L 517.5 1747 L 482.5 1767 L 447.5 1784 L 431.5 1791 L 424.5 1792 L 402.5 1799 L 379.5 1803 L 352.5 1803 L 351.5 1802 L 340.5 1801 L 325.5 1796 L 311.5 1789 L 307 1784.5 Q 299.3 1771.7 295 1755.5 L 294 1744.5 L 293 1743.5 L 293 1716.5 L 297 1693.5 L 304 1671.5 L 305 1664.5 L 316 1639.5 L 349 1578.5 L 393 1516 Q 395.7 1517.1 395 1514.5 L 436 1465.5 L 459.5 1440 L 468 1432.5 L 479 1419 L 480.5 1419 Q 522.7 1375.7 568.5 1336 L 655.5 1265 L 668.5 1257 L 713.5 1223 L 779.5 1179 L 849.5 1138 L 852.5 1135 L 858.5 1133 L 891.5 1115 L 895 1111.5 Q 895.8 1108.9 892.5 1110 L 837.5 1127 L 811.5 1133 L 808.5 1135 L 790.5 1138 L 782.5 1141 L 768.5 1143 L 759.5 1146 L 749.5 1147 L 725.5 1153 L 720.5 1153 L 693.5 1159 L 688.5 1159 L 639.5 1168 L 632.5 1168 L 619.5 1171 L 596.5 1173 L 595.5 1174 L 573.5 1176 L 557.5 1179 L 523.5 1181 L 522.5 1182 L 520.5 1182 L 509.5 1182 L 508.5 1183 L 506.5 1183 L 492.5 1183 L 491.5 1184 L 477.5 1184 L 475.5 1185 L 473.5 1185 L 454.5 1185 L 453.5 1186 L 451.5 1185 L 450.5 1186 L 421.5 1186 L 420.5 1187 L 366.5 1187 L 365.5 1186 L 340.5 1186 L 339.5 1185 L 337.5 1186 L 335.5 1185 L 333.5 1185 L 318.5 1185 L 317.5 1184 L 315.5 1185 L 314.5 1184 L 276.5 1182 L 265.5 1180 L 263.5 1180 L 247.5 1179 L 190.5 1169 L 152.5 1160 L 132.5 1153 L 130.5 1153 L 87.5 1137 L 65.5 1125 L 44.5 1111 L 23 1090.5 L 8 1064.5 L 4 1051.5 L 4 1044.5 Q 12.5 1012.5 34.5 994 L 54.5 978 L 79.5 963 L 131.5 942 L 133.5 942 L 152.5 936 L 190.5 927 L 228.5 920 L 234.5 920 L 255.5 916 L 263.5 916 L 264.5 915 L 266.5 916 L 276.5 914 L 288.5 914 L 289.5 913 L 314.5 912 L 316.5 911 L 318.5 911 L 333.5 911 L 334.5 910 L 336.5 911 L 338.5 910 L 340.5 910 L 420.5 909 L 421.5 910 L 450.5 910 L 452.5 911 L 454.5 911 L 473.5 911 L 474.5 912 L 476.5 911 L 477.5 912 L 491.5 912 L 492.5 913 L 506.5 913 L 507.5 914 L 509.5 914 L 520.5 914 L 521.5 915 L 523.5 915 L 548.5 916 L 549.5 917 L 565.5 918 L 566.5 919 L 588.5 921 L 596.5 923 L 619.5 925 L 632.5 928 L 639.5 928 L 640.5 929 L 693.5 937 L 720.5 943 L 725.5 943 L 749.5 949 L 782.5 955 L 790.5 958 L 808.5 961 L 811.5 963 L 837.5 969 L 895 986 L 891.5 981 L 858.5 963 L 852.5 961 L 849.5 958 L 779.5 917 L 713.5 873 L 668.5 839 L 655.5 831 L 568.5 760 Q 522.7 720.3 480.5 677 L 479 677 L 479 675.5 L 460.5 656 L 458 654.5 L 418 609.5 L 395 580 Q 392.3 581.1 393 578.5 L 349 517.5 L 329 482.5 L 312 447.5 L 305 431.5 L 304 424.5 L 297 402.5 L 293 379.5 L 293 352.5 L 294 351.5 L 295 340.5 L 300 325.5 L 307 311.5 L 311.5 307 Q 324.3 299.3 340.5 295 L 351.5 294 L 352.5 293 L 379.5 293 L 402.5 297 L 424.5 304 L 431.5 305 L 456.5 316 L 517.5 349 L 580 393 Q 578.9 395.7 581.5 395 L 630.5 436 L 656 459.5 L 663.5 468 L 677 479 L 677 480.5 Q 720.3 522.7 760 568.5 L 831 655.5 L 839 668.5 L 873 713.5 L 917 779.5 L 958 849.5 L 961 852.5 L 963 858.5 L 981 891.5 L 984.5 895 Q 987.1 895.8 986 892.5 L 969 837.5 L 963 811.5 L 961 808.5 L 958 790.5 L 955 782.5 L 953 768.5 L 950 759.5 L 949 749.5 L 943 725.5 L 943 720.5 L 937 693.5 L 937 688.5 L 928 639.5 L 928 632.5 L 925 619.5 L 923 596.5 L 922 595.5 L 920 573.5 L 917 557.5 L 915 523.5 L 914 522.5 L 914 520.5 L 914 509.5 L 913 508.5 L 913 506.5 L 913 492.5 L 912 491.5 L 912 477.5 L 911 475.5 L 911 473.5 L 911 454.5 L 910 453.5 L 911 451.5 L 910 450.5 L 910 421.5 L 909 420.5 L 909 366.5 L 910 365.5 L 910 340.5 L 911 339.5 L 910 337.5 L 911 335.5 L 911 333.5 L 911 318.5 L 912 317.5 L 911 315.5 L 912 314.5 L 914 276.5 L 916 265.5 L 916 263.5 L 917 247.5 L 927 190.5 L 936 152.5 L 943 132.5 L 943 130.5 L 959 87.5 L 971 65.5 L 985 44.5 L 1005.5 23 L 1031.5 8 L 1044.5 4 Z " /></svg>
