<svg width="700" height="700" viewBox="0 0 700 700" fill="none" xmlns="http://www.w3.org/2000/svg">
<path d="M626.969 286.082C675.137 300.066 675.137 300.066 675.137 300.066L630.076 313.274L661.153 326.482L628.523 332.697L626.969 286.082Z" fill="#1A1A1A"/>
<path d="M622.31 340.467L621.533 317.16L610.656 312.498L621.533 309.391L620.756 277.537L700.001 300.845L651.056 315.606L685.24 329.59L622.31 340.467ZM634.741 323.375V324.929L637.071 324.152L634.741 323.375ZM633.964 295.406V305.506L651.056 300.845L633.964 295.406Z" fill="black"/>
<path d="M173.252 196.736C167.036 279.089 265.705 411.165 363.596 422.042C401.665 425.926 457.602 390.188 454.495 352.119C446.726 244.905 282.02 239.467 173.252 196.736Z" fill="url(#paint0_linear_344_124)"/>
<path d="M0 502.064C107.214 620.932 299.889 675.316 439.734 617.047C556.271 568.879 632.408 413.496 632.408 290.743C632.408 206.06 547.725 110.499 422.641 150.122C366.704 167.991 323.973 223.929 287.458 275.205C206.659 382.419 135.183 455.449 0 502.064Z" fill="url(#paint1_linear_344_124)"/>
<path d="M80.8008 261.223C87.793 343.576 206.661 458.559 304.552 453.121C342.621 450.79 392.344 406.506 383.021 369.214C358.159 265.107 194.23 286.084 80.8008 261.223Z" fill="url(#paint2_linear_344_124)"/>
<path d="M351.941 195.961C386.125 199.069 445.948 209.945 493.34 213.053C532.185 215.384 578.023 214.607 609.877 213.83C633.184 253.453 636.292 283.752 629.3 333.475C560.931 345.129 509.655 335.806 453.717 317.936C403.218 301.621 352.718 277.537 316.203 236.36C332.518 213.053 337.957 208.392 351.941 195.961Z" fill="#D40000"/>
<path d="M604.343 293.767C597.437 311.882 574.884 317.795 552.014 308.154C529.144 298.513 517.18 276.649 523.625 259.741C530.07 242.834 553.083 235.714 575.953 245.355C597.938 253.221 611.248 275.652 604.343 293.767Z" fill="white"/>
<path d="M602.115 291.427C597.051 304.711 580.8 310.476 564.657 303.671C548.513 296.866 540.549 280.893 545.613 267.609C550.677 254.324 566.928 248.559 583.071 255.364C597.869 261.602 607.179 278.142 602.115 291.427Z" fill="#1A1A1A"/>
<path d="M595.069 273.038C593.227 277.868 587.81 279.79 582.429 277.521C577.048 275.253 574.393 269.929 576.234 265.098C578.076 260.268 583.493 258.346 588.874 260.614C594.255 262.882 596.45 269.415 595.069 273.038Z" fill="white"/>
<path d="M601.331 268.212C592.785 262.773 585.793 255.781 577.246 250.343C568.7 244.904 560.931 239.466 551.608 235.581C547.724 234.027 543.839 232.474 539.178 231.697C536.07 232.474 539.955 230.143 539.955 229.366C543.062 226.258 545.393 223.151 548.501 220.043C552.385 220.82 555.493 222.374 558.601 223.151C567.924 227.035 576.47 232.474 585.016 238.689C593.562 244.127 601.331 251.12 609.877 256.558C612.208 257.335 612.208 258.889 610.654 259.666C608.323 261.996 604.438 265.104 601.331 268.212Z" fill="#1A1A1A"/>
<path d="M358.935 241.796C342.62 241.02 323.197 243.35 310.766 227.812C299.89 215.381 290.567 200.62 285.128 184.305C284.351 172.651 284.351 157.89 273.475 152.451C261.044 144.682 246.283 145.459 232.298 143.128C206.66 141.574 181.799 152.451 157.714 161.774C146.061 166.436 132.076 165.659 123.53 154.005C117.315 146.236 112.653 136.913 108.769 127.59C102.553 121.375 102.553 112.052 110.322 109.721C114.984 106.613 120.422 102.729 125.084 99.6211C132.853 116.713 139.068 137.69 155.384 145.459C172.476 149.344 188.014 138.467 203.552 133.805C226.083 125.259 250.167 123.705 272.698 128.367C285.905 129.921 302.22 135.359 306.105 152.451C307.659 167.213 309.989 181.974 318.536 192.851C327.082 207.612 339.512 222.374 355.827 223.15C361.266 225.481 379.135 220.82 376.804 226.258C370.589 230.92 364.374 236.358 358.935 241.796Z" fill="#D40000"/>
<path d="M348.056 234.029C336.402 226.26 321.641 219.267 316.202 205.283C313.095 195.96 309.21 185.86 307.656 175.76C306.102 162.553 307.656 148.568 306.879 134.584C309.21 126.038 303.772 118.269 294.449 115.938C282.795 112.83 271.141 112.83 259.487 111.276C248.611 110.499 236.18 112.83 227.634 105.061C221.419 97.2919 218.311 87.192 215.203 77.869C214.426 73.2075 220.642 72.4306 223.749 70.0999C229.188 66.9922 233.849 63.8846 239.288 60C240.065 69.323 244.726 77.869 247.834 85.6382C252.495 94.1842 263.372 94.9612 272.695 94.9612C286.679 95.7381 300.664 95.7381 314.648 98.8457C323.194 101.176 333.294 106.615 332.517 116.715C333.294 137.691 329.41 158.668 337.179 178.868C340.287 188.191 343.394 197.514 351.163 203.729C357.379 209.168 364.371 213.052 371.363 216.937C365.925 221.598 358.933 225.483 352.717 229.367C350.386 231.698 348.833 232.475 348.056 234.029Z" fill="#D40000"/>
<defs>
<linearGradient id="paint0_linear_344_124" x1="173.243" y1="309.224" x2="454.948" y2="309.224" gradientUnits="userSpaceOnUse">
<stop/>
<stop offset="1" stop-color="#6D5656"/>
</linearGradient>
<linearGradient id="paint1_linear_344_124" x1="193.547" y1="554.245" x2="841.898" y2="86.1131" gradientUnits="userSpaceOnUse">
<stop/>
<stop offset="1" stop-color="#6D5656"/>
</linearGradient>
<linearGradient id="paint2_linear_344_124" x1="145.753" y1="376.721" x2="376.205" y2="286.735" gradientUnits="userSpaceOnUse">
<stop/>
<stop offset="1" stop-color="#6D5656"/>
</linearGradient>
</defs>
</svg>
