<svg width="1370" height="1370" viewBox="0 0 1370 1370" fill="none" xmlns="http://www.w3.org/2000/svg">
<path d="M1153.75 447.712L1330.18 474.526L1203.47 600.187L1201 602.637L1204.11 604.196L1363.61 684.219L1204.27 764.573L1201.17 766.139L1203.64 768.584L1330.62 893.98L1154.24 921.162L1150.8 921.692L1152.4 924.782L1234.41 1083.28L1058.27 1054.63L1054.84 1054.07L1055.4 1057.5L1084.42 1233.58L925.753 1151.9L922.66 1150.31L922.138 1153.75L895.323 1330.18L769.662 1203.47L767.212 1201L765.653 1204.11L685.63 1363.61L605.276 1204.27L603.71 1201.17L601.265 1203.64L475.869 1330.62L448.687 1154.24L448.157 1150.8L445.067 1152.4L286.571 1234.41L315.222 1058.27L315.781 1054.84L312.348 1055.4L136.267 1084.42L217.946 925.754L219.539 922.661L216.099 922.138L39.6698 895.323L166.382 769.663L168.852 767.213L165.742 765.653L6.23407 685.631L165.575 605.277L168.682 603.71L166.206 601.266L39.2334 475.869L215.607 448.688L219.045 448.158L217.446 445.068L135.437 286.572L311.578 315.223L315.012 315.781L314.446 312.349L285.429 136.268L444.095 217.947L447.188 219.539L447.711 216.1L474.526 39.6703L600.186 166.382L602.636 168.852L604.196 165.743L684.218 6.23458L764.572 165.576L766.139 168.682L768.583 166.207L893.98 39.2339L921.161 215.607L921.691 219.046L924.781 217.447L1083.28 135.438L1054.63 311.579L1054.07 315.012L1057.5 314.447L1233.58 285.429L1151.9 444.096L1150.31 447.189L1153.75 447.712Z" stroke="white" stroke-width="5"/>
</svg>
