<svg width="700" height="700" viewBox="0 0 700 700" fill="none" xmlns="http://www.w3.org/2000/svg">
<path d="M575.54 239.862C568.091 237.306 560.577 234.938 553.008 232.761C554.281 227.566 555.452 222.433 556.49 217.391C573.547 134.591 562.395 67.8862 524.308 45.9237C487.79 24.869 428.069 46.8234 367.754 99.3153C361.81 104.498 355.997 109.83 350.322 115.306C346.523 111.664 342.659 108.094 338.726 104.595C275.512 48.4694 212.152 24.8144 174.106 46.8398C137.621 67.96 126.818 130.668 142.174 209.139C143.702 216.91 145.427 224.642 147.347 232.326C138.379 234.875 129.724 237.587 121.442 240.475C47.3293 266.314 0 306.808 0 348.811C0 392.191 50.8103 435.704 128.002 462.088C134.26 464.218 140.57 466.191 146.926 468.007C144.862 476.284 143.029 484.615 141.43 492.994C126.79 570.103 138.223 631.329 174.609 652.316C212.19 673.989 275.267 651.714 336.684 598.024C341.665 593.659 346.535 589.171 351.29 584.563C357.438 590.493 363.746 596.249 370.212 601.828C429.707 653.022 488.463 673.694 524.815 652.649C562.359 630.913 574.565 565.141 558.721 485.12C557.472 478.85 556.072 472.613 554.524 466.411C558.953 465.098 563.301 463.748 567.539 462.343C647.788 435.756 700 392.772 700 348.811C700 306.654 651.143 265.888 575.54 239.862ZM558.136 433.959C554.307 435.225 550.381 436.447 546.379 437.637C537.519 409.591 525.563 379.769 510.931 348.955C524.893 318.878 536.39 289.437 545 261.573C552.161 263.646 559.108 265.831 565.808 268.136C630.585 290.438 670.098 323.406 670.098 348.811C670.098 375.871 627.426 410.998 558.136 433.959ZM529.386 490.928C536.393 526.31 537.389 558.301 532.75 583.314C528.583 605.787 520.2 620.769 509.831 626.772C487.771 639.542 440.595 622.943 389.717 579.159C383.702 573.975 377.833 568.623 372.117 563.11C391.842 541.537 411.555 516.46 430.793 488.607C464.633 485.607 496.603 480.696 525.597 473.994C526.994 479.608 528.257 485.253 529.386 490.928ZM238.646 624.565C217.093 632.174 199.927 632.393 189.55 626.411C167.47 613.677 158.29 564.515 170.811 498.572C172.299 490.779 174.004 483.031 175.922 475.333C204.594 481.676 236.332 486.237 270.252 488.988C289.623 516.243 309.902 541.292 330.342 563.226C325.998 567.431 321.553 571.527 317.008 575.509C289.847 599.25 262.632 616.094 238.646 624.565ZM137.676 433.791C103.543 422.124 75.3539 406.963 56.0329 390.416C38.6695 375.55 29.9059 360.788 29.9059 348.811C29.9059 323.321 67.9055 290.808 131.286 268.713C138.978 266.033 147.028 263.504 155.381 261.13C164.142 289.623 175.632 319.414 189.498 349.538C175.451 380.109 163.797 410.374 154.952 439.205C149.15 437.543 143.389 435.737 137.676 433.791ZM171.522 203.394C158.367 136.164 167.103 85.4493 189.091 72.7206C212.508 59.1636 264.291 78.4929 318.871 126.957C322.431 130.125 325.932 133.356 329.374 136.65C309.036 158.49 288.941 183.354 269.745 210.446C236.821 213.497 205.308 218.397 176.335 224.963C174.55 217.815 172.945 210.622 171.522 203.394ZM473.472 277.958C466.628 266.137 459.531 254.465 452.184 242.949C474.518 245.774 495.919 249.523 516.012 254.105C509.98 273.443 502.461 293.658 493.61 314.386C487.141 302.11 480.427 289.965 473.472 277.958ZM350.336 158.025C364.128 172.968 377.944 189.651 391.53 207.752C363.968 206.451 336.36 206.445 308.795 207.736C322.396 189.801 336.329 173.141 350.336 158.025ZM226.412 278.159C219.544 290.069 212.955 302.14 206.651 314.357C197.944 293.705 190.493 273.397 184.409 253.786C204.381 249.318 225.679 245.665 247.872 242.892C240.442 254.477 233.288 266.238 226.412 278.159ZM248.509 456.857C225.581 454.298 203.963 450.834 183.996 446.486C190.176 426.525 197.791 405.785 206.686 384.689C213.016 396.915 219.632 408.991 226.529 420.908C233.623 433.159 240.966 445.156 248.509 456.857ZM351.162 541.705C336.988 526.414 322.851 509.496 309.045 491.301C322.448 491.828 336.112 492.094 350.001 492.094C364.267 492.094 378.373 491.776 392.255 491.157C378.624 509.68 364.862 526.621 351.162 541.705ZM493.891 383.612C503.249 404.94 511.134 425.571 517.395 445.19C497.101 449.821 475.188 453.552 452.099 456.321C459.498 444.592 466.663 432.717 473.588 420.703C480.63 408.491 487.401 396.125 493.891 383.612ZM447.687 405.761C437.082 424.183 425.882 442.253 414.104 459.945C392.77 461.456 371.388 462.206 350.001 462.195C328.215 462.195 307.027 461.517 286.622 460.193C274.537 442.543 263.125 424.44 252.407 405.927C241.741 387.51 231.781 368.697 222.543 349.524C231.757 330.347 241.691 311.524 252.32 293.096C262.946 274.66 274.266 256.639 286.259 239.064C307.076 237.489 328.423 236.668 349.999 236.668C371.671 236.668 393.048 237.497 413.859 239.083C425.731 256.632 436.981 274.594 447.588 292.935C458.252 311.326 468.316 330.057 477.764 349.102C468.415 368.34 458.382 387.238 447.687 405.761ZM509.373 71.8292C532.814 85.348 541.929 139.863 527.202 211.354C526.26 215.914 525.205 220.56 524.057 225.272C495.012 218.567 463.476 213.582 430.46 210.484C411.226 183.094 391.294 158.192 371.288 136.634C376.532 131.579 381.9 126.656 387.387 121.868C439.068 76.896 487.368 59.139 509.373 71.8292ZM350.001 286.304C384.521 286.304 412.508 314.289 412.508 348.811C412.508 383.331 384.521 411.319 350.001 411.319C315.479 411.319 287.493 383.331 287.493 348.811C287.493 314.289 315.479 286.304 350.001 286.304Z" fill="#61DAFB"/>
</svg>
