<svg width="175" height="190" version="1.1" xmlns="http://www.w3.org/2000/svg" desc="Created with imagetracer.js version 1.2.6" ><path fill="rgb(0,0,0)" stroke="rgb(0,0,0)" stroke-width="1" opacity="0" d="M 0 0 L 52 0.5 Q 42.9 0.9 38 5.5 Q 62.4 4.6 71 19.5 Q 79.8 31.7 78 54.5 Q 72.2 85.2 51.5 101 L 34.5 110 L 19.5 111 L 12 109 L 19.5 119 L 33.5 126 L 47.5 126 L 62.5 120 L 76 110 L 82.5 118 L 94.5 124 L 108.5 124 Q 127.2 119.2 137 105.5 Q 146.7 94.2 152 78.5 L 156 62.5 L 157 47.5 L 157 45.5 L 156 36.5 L 151 20.5 Q 146.8 11.8 139.5 6 L 130.5 1 L 127 0.5 L 175 0 L 175 148.5 Q 174.8 149.8 168.5 149 Q 166.5 152 160.5 151 Q 152.4 148.1 148 141.5 L 148 139 L 140 139 L 140 146.5 L 143 152 L 149 155.5 L 140.5 167 L 122.5 177 L 107.5 181 L 78.5 182 L 52.5 176 L 38.5 169 L 31 162.5 L 35 150.5 L 34 148 L 29.5 147 L 26 149.5 Q 23.5 158 17.5 163 Q 14.6 166.6 6.5 165 L 2.5 164 L 0 165 L 0 0 Z " /><path fill="rgb(0,0,0)" stroke="rgb(0,0,0)" stroke-width="1" opacity="0" d="M 62.5 0 L 113 0.5 L 105 3 Q 103.9 5.7 106.5 5 L 109.5 4 Q 111 6.5 116.5 5 L 123.5 8 L 132 15.5 L 137 23.5 L 141 41.5 L 140 42.5 L 140 53.5 L 136 67.5 Q 128.3 86.3 113.5 98 Q 103.7 106.7 86.5 108 Q 85 105.5 79.5 107 L 78 105.5 Q 85.6 96.6 90 84.5 L 93 75.5 L 96 56.5 L 96 54.5 L 95 51.5 L 96 49.5 L 95 46.5 Q 93.4 19.6 77.5 7 Q 72.3 1.7 62.5 1 L 62.5 0 Z " /><path fill="rgb(0,0,0)" stroke="rgb(0,0,0)" stroke-width="1" opacity="0" d="M 173.5 157 L 175 157.5 L 175 190 L 107 189.5 Q 121.7 188.2 132.5 183 L 150 172 L 156 163.5 L 157.5 159 L 158.5 160 L 168.5 160 L 173.5 157 Z " /><path fill="rgb(0,0,0)" stroke="rgb(0,0,0)" stroke-width="1" opacity="0" d="M 22.5 170 L 24.5 170 Q 32.7 178.3 44.5 183 Q 55.6 187.9 70 189.5 L 0 190 L 0.5 171 Q 5 175 14.5 174 L 22.5 170 Z " /><path fill="rgb(196,161,171)" stroke="rgb(196,161,171)" stroke-width="1" opacity="0.17647058823529413" d="M 52.5 0 L 62 0.5 L 52.5 1 L 52.5 0 Z " /><path fill="rgb(196,161,171)" stroke="rgb(196,161,171)" stroke-width="1" opacity="0.17647058823529413" d="M 113.5 0 L 117 0.5 L 113.5 1 L 113.5 0 Z " /><path fill="rgb(196,161,171)" stroke="rgb(196,161,171)" stroke-width="1" opacity="0.17647058823529413" d="M 124.5 0 L 127 0.5 L 124.5 1 L 124.5 0 Z " /><path fill="rgb(196,161,171)" stroke="rgb(196,161,171)" stroke-width="1" opacity="0.17647058823529413" d="M 105.5 3 L 106.5 5 Q 103.7 5.7 105.5 3 Z " /><path fill="rgb(196,161,171)" stroke="rgb(196,161,171)" stroke-width="1" opacity="0.17647058823529413" d="M 110.5 4 L 114 4.5 L 110.5 5 L 110.5 4 Z " /><path fill="rgb(196,161,171)" stroke="rgb(196,161,171)" stroke-width="1" opacity="0.17647058823529413" d="M 136.5 4 L 137.5 6 L 136.5 4 Z " /><path fill="rgb(196,161,171)" stroke="rgb(196,161,171)" stroke-width="1" opacity="0.17647058823529413" d="M 42.5 5 L 48 5.5 L 42.5 6 L 42.5 5 Z " /><path fill="rgb(196,161,171)" stroke="rgb(196,161,171)" stroke-width="1" opacity="0.17647058823529413" d="M 74.5 5 L 75.5 7 L 74.5 5 Z " /><path fill="rgb(196,161,171)" stroke="rgb(196,161,171)" stroke-width="1" opacity="0.17647058823529413" d="M 139.5 6 L 145.5 13 L 139.5 6 Z " /><path fill="rgb(196,161,171)" stroke="rgb(196,161,171)" stroke-width="1" opacity="0.17647058823529413" d="M 77.5 7 L 82.5 13 L 77.5 7 Z " /><path fill="rgb(196,161,171)" stroke="rgb(196,161,171)" stroke-width="1" opacity="0.17647058823529413" d="M 124.5 8 L 125.5 10 L 124.5 8 Z " /><path fill="rgb(196,161,171)" stroke="rgb(196,161,171)" stroke-width="1" opacity="0.17647058823529413" d="M 60.5 9 L 61.5 11 L 60.5 9 Z " /><path fill="rgb(196,161,171)" stroke="rgb(196,161,171)" stroke-width="1" opacity="0.17647058823529413" d="M 127.5 10 L 136 20.5 L 134 19.5 L 127.5 10 Z " /><path fill="rgb(196,161,171)" stroke="rgb(196,161,171)" stroke-width="1" opacity="0.17647058823529413" d="M 63.5 11 L 70.5 19 L 63.5 11 Z " /><path fill="rgb(196,161,171)" stroke="rgb(196,161,171)" stroke-width="1" opacity="0.17647058823529413" d="M 146.5 14 L 147.5 16 L 146.5 14 Z " /><path fill="rgb(196,161,171)" stroke="rgb(196,161,171)" stroke-width="1" opacity="0.17647058823529413" d="M 84.5 15 L 85.5 17 L 84.5 15 Z " /><path fill="rgb(196,161,171)" stroke="rgb(196,161,171)" stroke-width="1" opacity="0.17647058823529413" d="M 148.5 17 L 151 21.5 L 150 21.5 L 148.5 17 Z " /><path fill="rgb(196,161,171)" stroke="rgb(196,161,171)" stroke-width="1" opacity="0.17647058823529413" d="M 71.5 20 L 76 28.5 L 75 28.5 L 71.5 20 Z " /><path fill="rgb(196,161,171)" stroke="rgb(196,161,171)" stroke-width="1" opacity="0.17647058823529413" d="M 87.5 20 L 90 24.5 L 89 24.5 L 87.5 20 Z " /><path fill="rgb(196,161,171)" stroke="rgb(196,161,171)" stroke-width="1" opacity="0.17647058823529413" d="M 91.5 28 L 93 32.5 L 92 32.5 L 91.5 28 Z " /><path fill="rgb(196,161,171)" stroke="rgb(196,161,171)" stroke-width="1" opacity="0.17647058823529413" d="M 76.5 30 L 77 32.5 L 76 32.5 L 76.5 30 Z " /><path fill="rgb(196,161,171)" stroke="rgb(196,161,171)" stroke-width="1" opacity="0.17647058823529413" d="M 139.5 30 L 140 32.5 L 139 32.5 L 139.5 30 Z " /><path fill="rgb(196,161,171)" stroke="rgb(196,161,171)" stroke-width="1" opacity="0.17647058823529413" d="M 77.5 34 L 78 37.5 L 77 37.5 L 77.5 34 Z " /><path fill="rgb(196,161,171)" stroke="rgb(196,161,171)" stroke-width="1" opacity="0.17647058823529413" d="M 140.5 35 L 141 40.5 L 140 40.5 L 140.5 35 Z " /><path fill="rgb(196,161,171)" stroke="rgb(196,161,171)" stroke-width="1" opacity="0.17647058823529413" d="M 155.5 36 L 156 39.5 L 155 39.5 L 155.5 36 Z " /><path fill="rgb(196,161,171)" stroke="rgb(196,161,171)" stroke-width="1" opacity="0.17647058823529413" d="M 94.5 39 L 95 43.5 L 94 43.5 L 94.5 39 Z " /><path fill="rgb(196,161,171)" stroke="rgb(196,161,171)" stroke-width="1" opacity="0.17647058823529413" d="M 78.5 41 L 79 51.5 L 78 51.5 L 78.5 41 Z " /><path fill="rgb(196,161,171)" stroke="rgb(196,161,171)" stroke-width="1" opacity="0.17647058823529413" d="M 140.5 42 L 141 50.5 L 140 50.5 L 140.5 42 Z " /><path fill="rgb(196,161,171)" stroke="rgb(196,161,171)" stroke-width="1" opacity="0.17647058823529413" d="M 156.5 47 L 157 53.5 L 156 53.5 L 156.5 47 Z " /><path fill="rgb(196,161,171)" stroke="rgb(196,161,171)" stroke-width="1" opacity="0.17647058823529413" d="M 95.5 52 L 96 54.5 L 95 54.5 L 95.5 52 Z " /><path fill="rgb(196,161,171)" stroke="rgb(196,161,171)" stroke-width="1" opacity="0.17647058823529413" d="M 139.5 54 L 140 56.5 L 139 56.5 L 139.5 54 Z " /><path fill="rgb(196,161,171)" stroke="rgb(196,161,171)" stroke-width="1" opacity="0.17647058823529413" d="M 77.5 55 L 78 58.5 L 77 58.5 L 77.5 55 Z " /><path fill="rgb(196,161,171)" stroke="rgb(196,161,171)" stroke-width="1" opacity="0.17647058823529413" d="M 155.5 58 L 156 62.5 L 155 62.5 L 155.5 58 Z " /><path fill="rgb(196,161,171)" stroke="rgb(196,161,171)" stroke-width="1" opacity="0.17647058823529413" d="M 94.5 62 L 95 65.5 L 94 65.5 L 94.5 62 Z " /><path fill="rgb(196,161,171)" stroke="rgb(196,161,171)" stroke-width="1" opacity="0.17647058823529413" d="M 154.5 65 L 155 68.5 L 154 68.5 L 154.5 65 Z " /><path fill="rgb(196,161,171)" stroke="rgb(196,161,171)" stroke-width="1" opacity="0.17647058823529413" d="M 134.5 70 L 135 71.5 L 131.5 77 L 132 75.5 L 134.5 70 Z " /><path fill="rgb(196,161,171)" stroke="rgb(196,161,171)" stroke-width="1" opacity="0.17647058823529413" d="M 129.5 80 L 128.5 82 L 129.5 80 Z " /><path fill="rgb(196,161,171)" stroke="rgb(196,161,171)" stroke-width="1" opacity="0.17647058823529413" d="M 68.5 81 L 67.5 83 L 68.5 81 Z " /><path fill="rgb(196,161,171)" stroke="rgb(196,161,171)" stroke-width="1" opacity="0.17647058823529413" d="M 127.5 83 L 125.5 86 L 127.5 83 Z " /><path fill="rgb(196,161,171)" stroke="rgb(196,161,171)" stroke-width="1" opacity="0.17647058823529413" d="M 64.5 87 L 63.5 89 L 64.5 87 Z " /><path fill="rgb(196,161,171)" stroke="rgb(196,161,171)" stroke-width="1" opacity="0.17647058823529413" d="M 124.5 87 L 114.5 98 L 124.5 87 Z " /><path fill="rgb(196,161,171)" stroke="rgb(196,161,171)" stroke-width="1" opacity="0.17647058823529413" d="M 147.5 87 L 148 88.5 L 145.5 92 L 146 90.5 L 147.5 87 Z " /><path fill="rgb(196,161,171)" stroke="rgb(196,161,171)" stroke-width="1" opacity="0.17647058823529413" d="M 61.5 91 L 53.5 100 L 61.5 91 Z " /><path fill="rgb(196,161,171)" stroke="rgb(196,161,171)" stroke-width="1" opacity="0.17647058823529413" d="M 84.5 95 L 83.5 97 L 84.5 95 Z " /><path fill="rgb(196,161,171)" stroke="rgb(196,161,171)" stroke-width="1" opacity="0.17647058823529413" d="M 142.5 97 L 141.5 99 L 142.5 97 Z " /><path fill="rgb(196,161,171)" stroke="rgb(196,161,171)" stroke-width="1" opacity="0.17647058823529413" d="M 112.5 98 L 111.5 100 L 112.5 98 Z " /><path fill="rgb(196,161,171)" stroke="rgb(196,161,171)" stroke-width="1" opacity="0.17647058823529413" d="M 81.5 100 L 80.5 102 L 81.5 100 Z " /><path fill="rgb(196,161,171)" stroke="rgb(196,161,171)" stroke-width="1" opacity="0.17647058823529413" d="M 109.5 100 L 108.5 102 L 109.5 100 Z " /><path fill="rgb(196,161,171)" stroke="rgb(196,161,171)" stroke-width="1" opacity="0.17647058823529413" d="M 50.5 101 L 49.5 103 L 50.5 101 Z " /><path fill="rgb(196,161,171)" stroke="rgb(196,161,171)" stroke-width="1" opacity="0.17647058823529413" d="M 139.5 101 L 138.5 103 L 139.5 101 Z " /><path fill="rgb(196,161,171)" stroke="rgb(196,161,171)" stroke-width="1" opacity="0.17647058823529413" d="M 47.5 103 L 46.5 105 L 47.5 103 Z " /><path fill="rgb(196,161,171)" stroke="rgb(196,161,171)" stroke-width="1" opacity="0.17647058823529413" d="M 78.5 104 L 78.5 107 Q 76.3 107.8 77 105.5 L 78.5 104 Z " /><path fill="rgb(196,161,171)" stroke="rgb(196,161,171)" stroke-width="1" opacity="0.17647058823529413" d="M 136.5 105 L 128.5 114 L 136.5 105 Z " /><path fill="rgb(196,161,171)" stroke="rgb(196,161,171)" stroke-width="1" opacity="0.17647058823529413" d="M 81.5 107 L 86 107.5 L 81.5 108 L 81.5 107 Z " /><path fill="rgb(196,161,171)" stroke="rgb(196,161,171)" stroke-width="1" opacity="0.17647058823529413" d="M 89.5 107 L 93 107.5 L 89.5 108 L 89.5 107 Z " /><path fill="rgb(196,161,171)" stroke="rgb(196,161,171)" stroke-width="1" opacity="0.17647058823529413" d="M 13.5 109 L 15 109.5 L 13 110.5 L 13.5 112 Q 10.5 110.5 13.5 109 Z " /><path fill="rgb(196,161,171)" stroke="rgb(196,161,171)" stroke-width="1" opacity="0.17647058823529413" d="M 74.5 109 L 76 109.5 L 70.5 114 L 74.5 109 Z " /><path fill="rgb(196,161,171)" stroke="rgb(196,161,171)" stroke-width="1" opacity="0.17647058823529413" d="M 16.5 110 L 19 110.5 L 16.5 111 L 16.5 110 Z " /><path fill="rgb(196,161,171)" stroke="rgb(196,161,171)" stroke-width="1" opacity="0.17647058823529413" d="M 76.5 111 L 82.5 118 L 76.5 111 Z " /><path fill="rgb(196,161,171)" stroke="rgb(196,161,171)" stroke-width="1" opacity="0.17647058823529413" d="M 15.5 114 L 19.5 119 L 15.5 114 Z " /><path fill="rgb(196,161,171)" stroke="rgb(196,161,171)" stroke-width="1" opacity="0.17647058823529413" d="M 125.5 115 L 124.5 117 L 125.5 115 Z " /><path fill="rgb(196,161,171)" stroke="rgb(196,161,171)" stroke-width="1" opacity="0.17647058823529413" d="M 66.5 116 L 65.5 118 L 66.5 116 Z " /><path fill="rgb(196,161,171)" stroke="rgb(196,161,171)" stroke-width="1" opacity="0.17647058823529413" d="M 122.5 117 L 121.5 119 L 122.5 117 Z " /><path fill="rgb(196,161,171)" stroke="rgb(196,161,171)" stroke-width="1" opacity="0.17647058823529413" d="M 24.5 121 L 25.5 123 L 24.5 121 Z " /><path fill="rgb(196,161,171)" stroke="rgb(196,161,171)" stroke-width="1" opacity="0.17647058823529413" d="M 33.5 125 L 36 125.5 L 33.5 126 L 33.5 125 Z " /><path fill="rgb(196,161,171)" stroke="rgb(196,161,171)" stroke-width="1" opacity="0.17647058823529413" d="M 140 139 L 148 139 L 148 141.5 Q 152.9 150.1 165.5 151 Q 168.3 147.6 175 149 L 175 156.5 L 173.5 157 Q 169.4 161.9 158.5 160 L 157 159.5 L 156 163.5 L 150 172 L 132.5 183 L 113.5 189 Q 108 187.5 106.5 190 L 70.5 190 L 44.5 183 Q 32.7 178.3 24.5 170 L 22.5 170 Q 18.2 175.2 7.5 174 L 0 170.5 Q -1.3 164.4 1.5 165 L 5.5 164 L 5.5 165 Q 1.1 163.5 2 166.5 L 1 168.5 Q 4.1 174.4 14.5 173 L 24.5 168 Q 50 193 104.5 189 L 119.5 186 L 133.5 181 Q 145.4 175.4 153 165.5 L 157.5 158 L 169.5 158 L 174 154.5 Q 175.5 150.1 172.5 151 L 169.5 150 Q 166.9 153.4 159.5 152 L 149 145.5 L 145.5 140 Q 141.8 139.3 141 141.5 L 141 145.5 L 148.5 154 Q 150.8 153.3 150 155.5 Q 147.5 163.5 141.5 168 Q 129.2 178.7 108.5 181 L 108.5 180 Q 132.3 176.8 145 162.5 L 149 155.5 L 143 152 L 140 146.5 L 140 139 Z " /><path fill="rgb(196,161,171)" stroke="rgb(196,161,171)" stroke-width="1" opacity="0.17647058823529413" d="M 29.5 147 L 34 148 L 35 152.5 L 31 162.5 Q 47.6 178.9 78 181.5 L 71.5 182 L 57.5 179 L 46.5 175 Q 35.8 170.7 29 162.5 L 34 151.5 L 33 149 Q 28.4 147.8 27 150.5 Q 24.5 159 18.5 164 Q 15.2 167.2 7.5 166 L 7.5 165 L 14.5 165 L 21 159.5 L 27.5 148 L 29.5 147 Z " /><path fill="rgb(196,161,171)" stroke="rgb(196,161,171)" stroke-width="1" opacity="0.17647058823529413" d="M 100.5 181 L 107 181.5 L 100.5 182 L 100.5 181 Z " /><path fill="rgb(196,161,171)" stroke="rgb(196,161,171)" stroke-width="1" opacity="0.17647058823529413" d="M 80.5 182 L 98 182.5 L 80.5 183 L 80.5 182 Z " /><path fill="rgb(192,157,167)" stroke="rgb(192,157,167)" stroke-width="1" opacity="0.8352941176470589" d="M 117.5 0 L 124 0.5 L 117.5 1 L 117.5 0 Z " /><path fill="rgb(192,157,167)" stroke="rgb(192,157,167)" stroke-width="1" opacity="0.8352941176470589" d="M 40.5 4 L 41.5 6 Q 38.7 6.7 40.5 4 Z " /><path fill="rgb(192,157,167)" stroke="rgb(192,157,167)" stroke-width="1" opacity="0.8352941176470589" d="M 76.5 7 L 78.5 10 L 76.5 7 Z " /><path fill="rgb(192,157,167)" stroke="rgb(192,157,167)" stroke-width="1" opacity="0.8352941176470589" d="M 81.5 12 L 83.5 15 L 81.5 12 Z " /><path fill="rgb(192,157,167)" stroke="rgb(192,157,167)" stroke-width="1" opacity="0.8352941176470589" d="M 144.5 12 L 145.5 14 L 144.5 12 Z " /><path fill="rgb(192,157,167)" stroke="rgb(192,157,167)" stroke-width="1" opacity="0.8352941176470589" d="M 66.5 13 L 68.5 16 L 66.5 13 Z " /><path fill="rgb(192,157,167)" stroke="rgb(192,157,167)" stroke-width="1" opacity="0.8352941176470589" d="M 78.5 37 L 79 40.5 L 78 40.5 L 78.5 37 Z " /><path fill="rgb(192,157,167)" stroke="rgb(192,157,167)" stroke-width="1" opacity="0.8352941176470589" d="M 155.5 40 L 156 44.5 L 155 44.5 L 155.5 40 Z " /><path fill="rgb(192,157,167)" stroke="rgb(192,157,167)" stroke-width="1" opacity="0.8352941176470589" d="M 94.5 44 L 95 46.5 L 94 46.5 L 94.5 44 Z " /><path fill="rgb(192,157,167)" stroke="rgb(192,157,167)" stroke-width="1" opacity="0.8352941176470589" d="M 140.5 51 L 141 53.5 L 140 53.5 L 140.5 51 Z " /><path fill="rgb(192,157,167)" stroke="rgb(192,157,167)" stroke-width="1" opacity="0.8352941176470589" d="M 78.5 52 L 79 54.5 L 78 54.5 L 78.5 52 Z " /><path fill="rgb(192,157,167)" stroke="rgb(192,157,167)" stroke-width="1" opacity="0.8352941176470589" d="M 155.5 53 L 156 57.5 L 155 57.5 L 155.5 53 Z " /><path fill="rgb(192,157,167)" stroke="rgb(192,157,167)" stroke-width="1" opacity="0.8352941176470589" d="M 94.5 58 L 95 61.5 L 94 61.5 L 94.5 58 Z " /><path fill="rgb(192,157,167)" stroke="rgb(192,157,167)" stroke-width="1" opacity="0.8352941176470589" d="M 66.5 85 L 65.5 87 L 66.5 85 Z " /><path fill="rgb(192,157,167)" stroke="rgb(192,157,167)" stroke-width="1" opacity="0.8352941176470589" d="M 126.5 85 L 125.5 87 L 126.5 85 Z " /><path fill="rgb(192,157,167)" stroke="rgb(192,157,167)" stroke-width="1" opacity="0.8352941176470589" d="M 63.5 89 L 62.5 91 L 63.5 89 Z " /><path fill="rgb(192,157,167)" stroke="rgb(192,157,167)" stroke-width="1" opacity="0.8352941176470589" d="M 140.5 99 L 139.5 101 L 140.5 99 Z " /><path fill="rgb(192,157,167)" stroke="rgb(192,157,167)" stroke-width="1" opacity="0.8352941176470589" d="M 52.5 100 L 51.5 102 L 52.5 100 Z " /><path fill="rgb(192,157,167)" stroke="rgb(192,157,167)" stroke-width="1" opacity="0.8352941176470589" d="M 79.5 102 L 78.5 104 L 79.5 102 Z " /><path fill="rgb(192,157,167)" stroke="rgb(192,157,167)" stroke-width="1" opacity="0.8352941176470589" d="M 137.5 103 L 136.5 105 L 137.5 103 Z " /><path fill="rgb(192,157,167)" stroke="rgb(192,157,167)" stroke-width="1" opacity="0.8352941176470589" d="M 76.5 110 L 77.5 112 L 76.5 110 Z " /><path fill="rgb(192,157,167)" stroke="rgb(192,157,167)" stroke-width="1" opacity="0.8352941176470589" d="M 20.5 111 L 28 111.5 L 20.5 112 L 20.5 111 Z " /><path fill="rgb(192,157,167)" stroke="rgb(192,157,167)" stroke-width="1" opacity="0.8352941176470589" d="M 69.5 113 L 67.5 116 L 69.5 113 Z " /><path fill="rgb(192,157,167)" stroke="rgb(192,157,167)" stroke-width="1" opacity="0.8352941176470589" d="M 127.5 113 L 126.5 115 L 127.5 113 Z " /><path fill="rgb(192,157,167)" stroke="rgb(192,157,167)" stroke-width="1" opacity="0.8352941176470589" d="M 64.5 117 L 63.5 119 L 64.5 117 Z " /><path fill="rgb(192,157,167)" stroke="rgb(192,157,167)" stroke-width="1" opacity="0.8352941176470589" d="M 83.5 117 L 84.5 119 L 83.5 117 Z " /><path fill="rgb(192,157,167)" stroke="rgb(192,157,167)" stroke-width="1" opacity="0.8352941176470589" d="M 20.5 118 L 21.5 120 L 20.5 118 Z " /><path fill="rgb(192,157,167)" stroke="rgb(192,157,167)" stroke-width="1" opacity="0.8352941176470589" d="M 142.5 140 L 142 141.5 L 142 145.5 L 148.5 153 L 151 154.5 L 149.5 158 L 149 156.5 L 150 154 L 143 148.5 Q 140.2 146.8 141 141.5 L 142.5 140 Z " /><path fill="rgb(192,157,167)" stroke="rgb(192,157,167)" stroke-width="1" opacity="0.8352941176470589" d="M 145.5 140 L 151 147.5 L 148 145.5 L 145.5 140 Z " /><path fill="rgb(192,157,167)" stroke="rgb(192,157,167)" stroke-width="1" opacity="0.8352941176470589" d="M 152.5 148 L 153.5 150 L 152.5 148 Z " /><path fill="rgb(192,157,167)" stroke="rgb(192,157,167)" stroke-width="1" opacity="0.8352941176470589" d="M 28.5 149 L 30 149.5 L 28 150 Q 25.9 158.6 19.5 164 L 22 160.5 L 28.5 149 Z " /><path fill="rgb(192,157,167)" stroke="rgb(192,157,167)" stroke-width="1" opacity="0.8352941176470589" d="M 31.5 149 Q 33.8 148.3 33 150.5 L 34 152.5 L 32.5 155 L 32 153.5 L 33 151.5 L 31.5 149 Z " /><path fill="rgb(192,157,167)" stroke="rgb(192,157,167)" stroke-width="1" opacity="0.8352941176470589" d="M 155.5 150 L 159 151.5 L 157.5 152 L 155.5 150 Z " /><path fill="rgb(192,157,167)" stroke="rgb(192,157,167)" stroke-width="1" opacity="0.8352941176470589" d="M 169.5 150 L 174 151 Q 175 155.7 171.5 157 L 173 154.5 L 171.5 151 L 166.5 153 L 160.5 153 L 160.5 152 Q 167.2 153.2 169.5 150 Z " /><path fill="rgb(192,157,167)" stroke="rgb(192,157,167)" stroke-width="1" opacity="0.8352941176470589" d="M 31.5 156 L 32 157.5 L 30 158.5 L 31.5 156 Z " /><path fill="rgb(192,157,167)" stroke="rgb(192,157,167)" stroke-width="1" opacity="0.8352941176470589" d="M 156 157 L 159 157.5 L 156 159.5 Q 152.1 169.6 143.5 175 L 132.5 181 L 132.5 180 Q 144.8 175.3 152 165.5 L 156 157 Z " /><path fill="rgb(192,157,167)" stroke="rgb(192,157,167)" stroke-width="1" opacity="0.8352941176470589" d="M 148.5 159 L 149 160.5 L 141.5 169 L 135.5 173 L 136.5 171 L 146 163.5 L 148.5 159 Z " /><path fill="rgb(192,157,167)" stroke="rgb(192,157,167)" stroke-width="1" opacity="0.8352941176470589" d="M 29.5 160 L 29 161.5 L 34 167.5 L 28 162.5 L 29.5 160 Z " /><path fill="rgb(192,157,167)" stroke="rgb(192,157,167)" stroke-width="1" opacity="0.8352941176470589" d="M 2 165 L 4 165.5 L 2 168.5 Q 5.1 173.4 14.5 172 L 24.5 167 Q 32.8 175.7 45 180.5 L 43.5 181 L 23.5 168 Q 19.2 174.2 7.5 173 L 1 168.5 L 2 165 Z " /><path fill="rgb(192,157,167)" stroke="rgb(192,157,167)" stroke-width="1" opacity="0.8352941176470589" d="M 9.5 166 L 14 166.5 L 9.5 167 L 9.5 166 Z " /><path fill="rgb(192,157,167)" stroke="rgb(192,157,167)" stroke-width="1" opacity="0.8352941176470589" d="M 35.5 168 L 40 171.5 L 38.5 171 L 35.5 168 Z " /><path fill="rgb(192,157,167)" stroke="rgb(192,157,167)" stroke-width="1" opacity="0.8352941176470589" d="M 47.5 175 L 51 176.5 L 49.5 177 L 47.5 175 Z " /><path fill="rgb(192,157,167)" stroke="rgb(192,157,167)" stroke-width="1" opacity="0.8352941176470589" d="M 126.5 176 L 128 176.5 L 117.5 180 L 117.5 179 L 126.5 176 Z " /><path fill="rgb(192,157,167)" stroke="rgb(192,157,167)" stroke-width="1" opacity="0.8352941176470589" d="M 58.5 179 L 80.5 183 L 97.5 183 L 98.5 182 L 106.5 182 L 115.5 180 L 115.5 181 L 106.5 183 L 98.5 183 L 97.5 184 L 80.5 184 L 79.5 183 L 71.5 183 L 61.5 181 L 58.5 180 L 58.5 179 Z " /><path fill="rgb(192,157,167)" stroke="rgb(192,157,167)" stroke-width="1" opacity="0.8352941176470589" d="M 46.5 181 L 50 182.5 L 48.5 183 L 46.5 181 Z " /><path fill="rgb(192,157,167)" stroke="rgb(192,157,167)" stroke-width="1" opacity="0.8352941176470589" d="M 74.5 188 L 77 188.5 L 74.5 189 L 74.5 188 Z " /><path fill="rgb(192,157,167)" stroke="rgb(192,157,167)" stroke-width="1" opacity="0.8352941176470589" d="M 101.5 188 L 105 188.5 L 101.5 189 L 101.5 188 Z " /><path fill="rgb(192,157,166)" stroke="rgb(192,157,166)" stroke-width="1" opacity="0.996078431372549" d="M 112.5 1 L 112 2.5 Q 112.9 5.5 108.5 4 L 108.5 3 L 112.5 1 Z " /><path fill="rgb(192,157,166)" stroke="rgb(192,157,166)" stroke-width="1" opacity="0.996078431372549" d="M 66.5 2 L 65.5 4 L 66.5 2 Z " /><path fill="rgb(192,157,166)" stroke="rgb(192,157,166)" stroke-width="1" opacity="0.996078431372549" d="M 139.5 7 L 143.5 12 L 139.5 7 Z " /><path fill="rgb(192,157,166)" stroke="rgb(192,157,166)" stroke-width="1" opacity="0.996078431372549" d="M 127.5 8 L 133 14.5 L 128 10.5 L 127.5 8 Z " /><path fill="rgb(192,157,166)" stroke="rgb(192,157,166)" stroke-width="1" opacity="0.996078431372549" d="M 79.5 10 L 81.5 15 L 79 12.5 L 79.5 10 Z " /><path fill="rgb(192,157,166)" stroke="rgb(192,157,166)" stroke-width="1" opacity="0.996078431372549" d="M 64.5 11 L 65.5 13 L 64.5 11 Z " /><path fill="rgb(192,157,166)" stroke="rgb(192,157,166)" stroke-width="1" opacity="0.996078431372549" d="M 69.5 14 L 71 15.5 L 70.5 18 L 69 16.5 L 69.5 14 Z " /><path fill="rgb(192,157,166)" stroke="rgb(192,157,166)" stroke-width="1" opacity="0.996078431372549" d="M 83.5 15 L 84.5 17 L 83.5 15 Z " /><path fill="rgb(192,157,166)" stroke="rgb(192,157,166)" stroke-width="1" opacity="0.996078431372549" d="M 134.5 15 L 136.5 18 L 134 17.5 L 134.5 15 Z " /><path fill="rgb(192,157,166)" stroke="rgb(192,157,166)" stroke-width="1" opacity="0.996078431372549" d="M 72.5 18 Q 75.5 19.5 72.5 21 L 72.5 18 Z " /><path fill="rgb(192,157,166)" stroke="rgb(192,157,166)" stroke-width="1" opacity="0.996078431372549" d="M 149.5 20 L 148.5 22 L 149.5 20 Z " /><path fill="rgb(192,157,166)" stroke="rgb(192,157,166)" stroke-width="1" opacity="0.996078431372549" d="M 150.5 22 L 149.5 24 L 150.5 22 Z " /><path fill="rgb(192,157,166)" stroke="rgb(192,157,166)" stroke-width="1" opacity="0.996078431372549" d="M 139.5 24 L 138.5 26 L 139.5 24 Z " /><path fill="rgb(192,157,166)" stroke="rgb(192,157,166)" stroke-width="1" opacity="0.996078431372549" d="M 90.5 28 L 90 29.5 L 89.5 31 L 89 29.5 L 90.5 28 Z " /><path fill="rgb(192,157,166)" stroke="rgb(192,157,166)" stroke-width="1" opacity="0.996078431372549" d="M 141.5 29 L 142 30.5 L 141.5 33 Q 139.3 33.8 140 31.5 L 141.5 29 Z " /><path fill="rgb(192,157,166)" stroke="rgb(192,157,166)" stroke-width="1" opacity="0.996078431372549" d="M 77 31 L 79 31.5 L 77 32.5 L 77 31 Z " /><path fill="rgb(192,157,166)" stroke="rgb(192,157,166)" stroke-width="1" opacity="0.996078431372549" d="M 91.5 31 L 91 32.5 L 90.5 35 L 90 32.5 L 91.5 31 Z " /><path fill="rgb(192,157,166)" stroke="rgb(192,157,166)" stroke-width="1" opacity="0.996078431372549" d="M 152 32 L 154 32.5 L 152 33.5 L 152 32 Z " /><path fill="rgb(192,157,166)" stroke="rgb(192,157,166)" stroke-width="1" opacity="0.996078431372549" d="M 79.5 34 L 80 37 Q 77.3 38.1 78 35.5 L 79.5 34 Z " /><path fill="rgb(192,157,166)" stroke="rgb(192,157,166)" stroke-width="1" opacity="0.996078431372549" d="M 142.5 35 L 143 38.5 L 143 40.5 L 142 42.5 L 143 45.5 Q 144.7 51.4 141 50 L 141 37.5 L 142.5 35 Z " /><path fill="rgb(192,157,166)" stroke="rgb(192,157,166)" stroke-width="1" opacity="0.996078431372549" d="M 153 36 Q 156 35 155 38 Q 152 39 153 36 Z " /><path fill="rgb(192,157,166)" stroke="rgb(192,157,166)" stroke-width="1" opacity="0.996078431372549" d="M 80.5 39 L 81 41.5 L 80 41.5 L 80.5 39 Z " /><path fill="rgb(192,157,166)" stroke="rgb(192,157,166)" stroke-width="1" opacity="0.996078431372549" d="M 153.5 41 L 154 43.5 L 153 43.5 L 153.5 41 Z " /><path fill="rgb(192,157,166)" stroke="rgb(192,157,166)" stroke-width="1" opacity="0.996078431372549" d="M 80.5 43 L 81 46.5 L 79 45.5 L 80.5 43 Z " /><path fill="rgb(192,157,166)" stroke="rgb(192,157,166)" stroke-width="1" opacity="0.996078431372549" d="M 155.5 45 L 156 52.5 L 155 52.5 L 154 48.5 L 155.5 45 Z " /><path fill="rgb(192,157,166)" stroke="rgb(192,157,166)" stroke-width="1" opacity="0.996078431372549" d="M 94.5 47 L 95 53.5 L 95 55.5 L 94.5 58 L 93 53.5 L 94.5 47 Z " /><path fill="rgb(192,157,166)" stroke="rgb(192,157,166)" stroke-width="1" opacity="0.996078431372549" d="M 141.5 53 L 141 54.5 L 142 56.5 L 140 55.5 L 141.5 53 Z " /><path fill="rgb(192,157,166)" stroke="rgb(192,157,166)" stroke-width="1" opacity="0.996078431372549" d="M 78 55 L 80 55.5 L 79.5 58 L 78 55 Z " /><path fill="rgb(192,157,166)" stroke="rgb(192,157,166)" stroke-width="1" opacity="0.996078431372549" d="M 140.5 58 L 139.5 60 L 140.5 58 Z " /><path fill="rgb(192,157,166)" stroke="rgb(192,157,166)" stroke-width="1" opacity="0.996078431372549" d="M 77.5 60 L 78.5 62 Q 75.7 62.7 77.5 60 Z " /><path fill="rgb(192,157,166)" stroke="rgb(192,157,166)" stroke-width="1" opacity="0.996078431372549" d="M 153.5 60 L 155 63 Q 151.5 64.1 153.5 60 Z " /><path fill="rgb(192,157,166)" stroke="rgb(192,157,166)" stroke-width="1" opacity="0.996078431372549" d="M 138.5 62 L 141 62.5 Q 138.9 65.8 138.5 62 Z " /><path fill="rgb(192,157,166)" stroke="rgb(192,157,166)" stroke-width="1" opacity="0.996078431372549" d="M 92.5 63 L 94 66.5 L 93 66.5 L 92.5 63 Z " /><path fill="rgb(192,157,166)" stroke="rgb(192,157,166)" stroke-width="1" opacity="0.996078431372549" d="M 76.5 64 L 77.5 66 L 76.5 64 Z " /><path fill="rgb(192,157,166)" stroke="rgb(192,157,166)" stroke-width="1" opacity="0.996078431372549" d="M 137.5 65 L 138.5 67 L 137.5 65 Z " /><path fill="rgb(192,157,166)" stroke="rgb(192,157,166)" stroke-width="1" opacity="0.996078431372549" d="M 152.5 66 L 154 68.5 L 153 68.5 L 152.5 66 Z " /><path fill="rgb(192,157,166)" stroke="rgb(192,157,166)" stroke-width="1" opacity="0.996078431372549" d="M 75 67 Q 78 66 77 69 Q 74 70 75 67 Z " /><path fill="rgb(192,157,166)" stroke="rgb(192,157,166)" stroke-width="1" opacity="0.996078431372549" d="M 91.5 70 L 92.5 72 L 91.5 70 Z " /><path fill="rgb(192,157,166)" stroke="rgb(192,157,166)" stroke-width="1" opacity="0.996078431372549" d="M 151.5 70 L 153 72.5 L 152 72.5 L 151.5 70 Z " /><path fill="rgb(192,157,166)" stroke="rgb(192,157,166)" stroke-width="1" opacity="0.996078431372549" d="M 134.5 72 L 135.5 74 L 134.5 72 Z " /><path fill="rgb(192,157,166)" stroke="rgb(192,157,166)" stroke-width="1" opacity="0.996078431372549" d="M 90.5 74 L 91.5 76 L 90.5 74 Z " /><path fill="rgb(192,157,166)" stroke="rgb(192,157,166)" stroke-width="1" opacity="0.996078431372549" d="M 150.5 74 L 151.5 76 L 150.5 74 Z " /><path fill="rgb(192,157,166)" stroke="rgb(192,157,166)" stroke-width="1" opacity="0.996078431372549" d="M 129.5 83 L 128.5 85 L 127 84.5 L 129.5 83 Z " /><path fill="rgb(192,157,166)" stroke="rgb(192,157,166)" stroke-width="1" opacity="0.996078431372549" d="M 67 84 L 69 84.5 L 67 85.5 L 67 84 Z " /><path fill="rgb(192,157,166)" stroke="rgb(192,157,166)" stroke-width="1" opacity="0.996078431372549" d="M 65.5 87 L 66 89 L 64 88.5 L 65.5 87 Z " /><path fill="rgb(192,157,166)" stroke="rgb(192,157,166)" stroke-width="1" opacity="0.996078431372549" d="M 124.5 88 L 123.5 92 L 121 91.5 L 124.5 88 Z " /><path fill="rgb(192,157,166)" stroke="rgb(192,157,166)" stroke-width="1" opacity="0.996078431372549" d="M 60.5 93 L 60.5 96 L 58.5 96 L 54.5 100 L 60.5 93 Z " /><path fill="rgb(192,157,166)" stroke="rgb(192,157,166)" stroke-width="1" opacity="0.996078431372549" d="M 119.5 93 L 116.5 97 L 119.5 93 Z " /><path fill="rgb(192,157,166)" stroke="rgb(192,157,166)" stroke-width="1" opacity="0.996078431372549" d="M 73 105 L 75 105.5 Q 72.8 106.8 75.5 108 L 76.5 106 L 77 107.5 Q 75 111 73 106.5 L 73 105 Z " /><path fill="rgb(192,157,166)" stroke="rgb(192,157,166)" stroke-width="1" opacity="0.996078431372549" d="M 135.5 105 L 133.5 108 L 135.5 105 Z " /><path fill="rgb(192,157,166)" stroke="rgb(192,157,166)" stroke-width="1" opacity="0.996078431372549" d="M 84.5 108 L 87 108.5 L 84.5 109 L 84.5 108 Z " /><path fill="rgb(192,157,166)" stroke="rgb(192,157,166)" stroke-width="1" opacity="0.996078431372549" d="M 37.5 109 L 36.5 111 L 37.5 109 Z " /><path fill="rgb(192,157,166)" stroke="rgb(192,157,166)" stroke-width="1" opacity="0.996078431372549" d="M 73.5 109 L 70.5 113 L 73.5 109 Z " /><path fill="rgb(192,157,166)" stroke="rgb(192,157,166)" stroke-width="1" opacity="0.996078431372549" d="M 131.5 109 L 128.5 113 L 131.5 109 Z " /><path fill="rgb(192,157,166)" stroke="rgb(192,157,166)" stroke-width="1" opacity="0.996078431372549" d="M 33.5 110 L 34 112 L 31 111.5 L 33.5 110 Z " /><path fill="rgb(192,157,166)" stroke="rgb(192,157,166)" stroke-width="1" opacity="0.996078431372549" d="M 16.5 111 L 17 112.5 Q 14.7 113.7 17.5 115 L 19 114.5 Q 16.8 115.8 19.5 117 L 21 116.5 L 19.5 118 L 15 113.5 L 16.5 111 Z " /><path fill="rgb(192,157,166)" stroke="rgb(192,157,166)" stroke-width="1" opacity="0.996078431372549" d="M 78.5 112 L 82.5 117 L 78.5 112 Z " /><path fill="rgb(192,157,166)" stroke="rgb(192,157,166)" stroke-width="1" opacity="0.996078431372549" d="M 124.5 115 L 123.5 117 L 124.5 115 Z " /><path fill="rgb(192,157,166)" stroke="rgb(192,157,166)" stroke-width="1" opacity="0.996078431372549" d="M 98.5 123 L 105 123.5 L 98.5 124 L 98.5 123 Z " /><path fill="rgb(192,157,166)" stroke="rgb(192,157,166)" stroke-width="1" opacity="0.996078431372549" d="M 38.5 124 L 44 125.5 L 40.5 126 L 38.5 126 L 37 125.5 L 38.5 124 Z " /><path fill="rgb(192,157,166)" stroke="rgb(192,157,166)" stroke-width="1" opacity="0.996078431372549" d="M 143.5 140 L 147 142.5 L 144.5 141 L 142.5 142 L 143.5 140 Z " /><path fill="rgb(192,157,166)" stroke="rgb(192,157,166)" stroke-width="1" opacity="0.996078431372549" d="M 142.5 144 L 144 146.5 L 142 145.5 L 142.5 144 Z " /><path fill="rgb(192,157,166)" stroke="rgb(192,157,166)" stroke-width="1" opacity="0.996078431372549" d="M 144.5 148 L 148.5 153 L 144.5 148 Z " /><path fill="rgb(192,157,166)" stroke="rgb(192,157,166)" stroke-width="1" opacity="0.996078431372549" d="M 151.5 148 L 157 151.5 L 155.5 152 L 151.5 148 Z " /><path fill="rgb(192,157,166)" stroke="rgb(192,157,166)" stroke-width="1" opacity="0.996078431372549" d="M 30.5 149 L 33 152.5 L 32 152.5 L 30.5 149 Z " /><path fill="rgb(192,157,166)" stroke="rgb(192,157,166)" stroke-width="1" opacity="0.996078431372549" d="M 169.5 151 L 173 152.5 L 171.5 152 Q 168.5 152.5 169.5 151 Z " /><path fill="rgb(192,157,166)" stroke="rgb(192,157,166)" stroke-width="1" opacity="0.996078431372549" d="M 150.5 153 L 152 155.5 L 150 156.5 L 151 154.5 L 150.5 153 Z " /><path fill="rgb(192,157,166)" stroke="rgb(192,157,166)" stroke-width="1" opacity="0.996078431372549" d="M 26.5 154 L 27 155.5 L 20.5 164 L 23 160.5 L 26.5 154 Z " /><path fill="rgb(192,157,166)" stroke="rgb(192,157,166)" stroke-width="1" opacity="0.996078431372549" d="M 31.5 154 L 32 155.5 L 28.5 161 L 29 159.5 L 31.5 154 Z " /><path fill="rgb(192,157,166)" stroke="rgb(192,157,166)" stroke-width="1" opacity="0.996078431372549" d="M 172.5 154 L 170.5 157 L 169 156.5 L 172.5 154 Z " /><path fill="rgb(192,157,166)" stroke="rgb(192,157,166)" stroke-width="1" opacity="0.996078431372549" d="M 159.5 157 L 162 157.5 L 159.5 158 L 159.5 157 Z " /><path fill="rgb(192,157,166)" stroke="rgb(192,157,166)" stroke-width="1" opacity="0.996078431372549" d="M 165.5 157 L 168 157.5 L 165.5 158 L 165.5 157 Z " /><path fill="rgb(192,157,166)" stroke="rgb(192,157,166)" stroke-width="1" opacity="0.996078431372549" d="M 148.5 161 L 147.5 163 L 148.5 161 Z " /><path fill="rgb(192,157,166)" stroke="rgb(192,157,166)" stroke-width="1" opacity="0.996078431372549" d="M 28.5 163 L 31.5 167 L 28.5 163 Z " /><path fill="rgb(192,157,166)" stroke="rgb(192,157,166)" stroke-width="1" opacity="0.996078431372549" d="M 18.5 164 L 17.5 166 L 16 165.5 L 18.5 164 Z " /><path fill="rgb(192,157,166)" stroke="rgb(192,157,166)" stroke-width="1" opacity="0.996078431372549" d="M 4.5 165 L 3.5 167 L 4.5 165 Z " /><path fill="rgb(192,157,166)" stroke="rgb(192,157,166)" stroke-width="1" opacity="0.996078431372549" d="M 151.5 165 L 143.5 174 L 151.5 165 Z " /><path fill="rgb(192,157,166)" stroke="rgb(192,157,166)" stroke-width="1" opacity="0.996078431372549" d="M 23.5 166 L 28 169.5 L 24.5 167 L 19.5 170 L 20.5 168 L 23.5 166 Z " /><path fill="rgb(192,157,166)" stroke="rgb(192,157,166)" stroke-width="1" opacity="0.996078431372549" d="M 2.5 168 L 6 170.5 L 4.5 171 L 2.5 168 Z " /><path fill="rgb(192,157,166)" stroke="rgb(192,157,166)" stroke-width="1" opacity="0.996078431372549" d="M 34.5 168 L 35.5 170 L 34.5 168 Z " /><path fill="rgb(192,157,166)" stroke="rgb(192,157,166)" stroke-width="1" opacity="0.996078431372549" d="M 140.5 169 L 139.5 171 L 140.5 169 Z " /><path fill="rgb(192,157,166)" stroke="rgb(192,157,166)" stroke-width="1" opacity="0.996078431372549" d="M 29.5 170 L 31.5 173 L 29.5 170 Z " /><path fill="rgb(192,157,166)" stroke="rgb(192,157,166)" stroke-width="1" opacity="0.996078431372549" d="M 7.5 171 L 15 171.5 L 7.5 172 L 7.5 171 Z " /><path fill="rgb(192,157,166)" stroke="rgb(192,157,166)" stroke-width="1" opacity="0.996078431372549" d="M 40.5 172 L 47 175.5 L 45.5 176 Q 40.9 174.8 40.5 172 Z " /><path fill="rgb(192,157,166)" stroke="rgb(192,157,166)" stroke-width="1" opacity="0.996078431372549" d="M 33.5 173 L 34.5 175 L 33.5 173 Z " /><path fill="rgb(192,157,166)" stroke="rgb(192,157,166)" stroke-width="1" opacity="0.996078431372549" d="M 134.5 173 L 133.5 175 L 130.5 176 L 130.5 175 L 134.5 173 Z " /><path fill="rgb(192,157,166)" stroke="rgb(192,157,166)" stroke-width="1" opacity="0.996078431372549" d="M 141.5 174 L 140.5 176 L 141.5 174 Z " /><path fill="rgb(192,157,166)" stroke="rgb(192,157,166)" stroke-width="1" opacity="0.996078431372549" d="M 36.5 175 L 37.5 177 L 36.5 175 Z " /><path fill="rgb(192,157,166)" stroke="rgb(192,157,166)" stroke-width="1" opacity="0.996078431372549" d="M 138.5 176 L 137.5 178 L 138.5 176 Z " /><path fill="rgb(192,157,166)" stroke="rgb(192,157,166)" stroke-width="1" opacity="0.996078431372549" d="M 63.5 181 L 66 181.5 L 63.5 182 L 63.5 181 Z " /><path fill="rgb(192,157,166)" stroke="rgb(192,157,166)" stroke-width="1" opacity="0.996078431372549" d="M 68.5 182 L 71 182.5 L 68.5 183 L 68.5 182 Z " /><path fill="rgb(192,157,166)" stroke="rgb(192,157,166)" stroke-width="1" opacity="0.996078431372549" d="M 107.5 182 L 110 182.5 L 107.5 183 L 107.5 182 Z " /><path fill="rgb(192,157,166)" stroke="rgb(192,157,166)" stroke-width="1" opacity="0.996078431372549" d="M 75.5 183 L 80 183.5 L 75.5 184 L 75.5 183 Z " /><path fill="rgb(192,157,166)" stroke="rgb(192,157,166)" stroke-width="1" opacity="0.996078431372549" d="M 98.5 183 L 103 183.5 L 98.5 184 L 98.5 183 Z " /><path fill="rgb(192,157,166)" stroke="rgb(192,157,166)" stroke-width="1" opacity="0.996078431372549" d="M 69.5 187 L 72 187.5 L 69.5 188 L 69.5 187 Z " /><path fill="rgb(192,157,166)" stroke="rgb(192,157,166)" stroke-width="1" opacity="0.996078431372549" d="M 106.5 187 L 109 187.5 L 106.5 188 L 106.5 187 Z " /><path fill="rgb(192,157,166)" stroke="rgb(192,157,166)" stroke-width="1" opacity="0.996078431372549" d="M 77.5 188 L 82 188.5 L 77.5 189 L 77.5 188 Z " /><path fill="rgb(192,157,166)" stroke="rgb(192,157,166)" stroke-width="1" opacity="0.996078431372549" d="M 98.5 188 L 101 188.5 L 98.5 189 L 98.5 188 Z " /><path fill="rgb(192,157,167)" stroke="rgb(192,157,167)" stroke-width="1" opacity="1" d="M 50.5 1 L 61.5 1 Q 69.3 2.3 74 6.5 L 74.5 8 L 75.5 7 L 83 14.5 Q 94.4 27.6 94 52.5 L 93 54.5 L 95 54.5 L 94 55.5 L 93 70.5 L 90 81.5 L 86 91.5 L 76 107.5 L 77.5 107 L 86.5 109 L 90.5 108 L 92.5 109 L 106.5 103 L 108 103.5 Q 107.3 101.3 109.5 102 L 121.5 92 L 124 91.5 Q 121.5 90 125 88.5 L 127.5 85 L 129 84.5 Q 126.5 83 130 81.5 L 136 69 L 138 68.5 L 137 66.5 L 141 58.5 L 140 56.5 L 142 53.5 L 141 50 Q 144.7 51.4 143 45.5 L 143 41.5 L 142 39.5 L 143 35.5 L 142 35.5 L 141.5 37 L 141 33.5 Q 143.5 32 140 30.5 L 138 23.5 L 138.5 22 L 137 21.5 L 137.5 20 L 135 18.5 L 128.5 9 Q 127 11.5 125.5 8 L 116.5 4 L 112 4 L 113.5 1 Q 123.8 -0.3 130.5 2 Q 140.2 6.3 146 14.5 L 151 24.5 L 150.5 26 Q 152.8 25.3 152 27.5 L 151.5 29 Q 154.1 28.2 153 31.5 L 152 33.5 L 154 33.5 L 153 38 L 155 38.5 L 155 45.5 L 154 48.5 Q 156.7 52.3 155 60.5 L 153 60.5 L 154 66.5 L 148 85.5 L 141 98.5 L 133 109 L 119.5 119 L 112.5 122 L 109.5 123 L 94.5 123 Q 82.2 119.3 76 109.5 L 74.5 107 L 66.5 116 L 60.5 120 L 59 119.5 L 57.5 122 L 48.5 125 L 40.5 125 L 39.5 126 L 39.5 124 L 33 125 L 32.5 123 L 30.5 124 Q 19.2 119.8 13 110.5 L 14.5 110 L 16.5 113 L 17 111 L 24.5 113 L 30.5 111 L 34 112 Q 32.9 109.3 35.5 110 Q 37 112.5 38.5 109 L 47.5 105 L 58.5 96 L 61 95.5 L 61 93.5 L 64.5 89 L 66 89 Q 64.5 85.2 67.5 86 L 69 82.5 L 74 71 L 76 70.5 L 75.5 69 Q 77.8 69.8 77 67.5 L 76 65.5 L 77 62 L 79 61.5 L 78 57.5 Q 81.5 56 79 54.5 L 79.5 46 L 81 46.5 L 80.5 43 L 79.5 45 L 79 37.5 L 80 34.5 L 78 34.5 L 79 31.5 L 77 31 L 78 28.5 L 76 28 Q 73 17.2 64.5 11 Q 59.4 6.2 51 6 L 50.5 4 L 45.5 5 L 43.5 4 L 41.5 5 L 41.5 4 L 50.5 1 Z M 91 32 L 90 35 L 91 35 L 91 32 Z M 81 39 L 80 42 L 81 42 L 81 39 Z M 154 41 L 153 44 L 154 44 L 154 41 Z M 73 105 L 73 107 L 75 106 L 73 105 Z " /><path fill="rgb(192,157,167)" stroke="rgb(192,157,167)" stroke-width="1" opacity="1" d="M 143.5 141 L 147 143.5 L 153.5 151 Q 158.2 154.3 167.5 153 L 171.5 152 Q 175 154 170.5 156 L 162.5 158 L 161.5 157 L 155 157 L 153 163.5 L 142.5 174 Q 121 190 82.5 189 L 81.5 188 L 66.5 187 L 46.5 181 Q 33.3 175.2 23.5 166 Q 19.2 172.7 6.5 171 L 2 167.5 L 6.5 166 Q 8.3 168.8 14.5 167 L 24 160.5 L 29.5 150 L 32 151.5 L 28 160.5 L 28 163.5 Q 51.4 187.6 102.5 184 L 121.5 180 L 131.5 176 Q 142.1 170.6 149 161.5 L 152 154.5 L 144 147.5 L 142 142.5 L 143.5 141 Z " /></svg>