<svg preserveAspectRatio="xMidYMid meet" data-bbox="25.95 25.95 148.013 148" xmlns="http://www.w3.org/2000/svg" viewBox="25.95 25.95 148.013 148" role="presentation" aria-hidden="true">
    <g>
        <path d="M170.9 138.1L132.7 100l38.1-38.1c4.2-4.2 4.2-11 0-15.2l-17.5-17.5c-4.2-4.2-11-4.2-15.2 0L100 67.3 61.9 29.1c-4.2-4.2-11-4.2-15.2 0L29.1 46.7c-4.2 4.2-4.2 11 0 15.2L67.3 100l-38.1 38.1c-4.2 4.2-4.2 11 0 15.2l17.5 17.5c4.2 4.2 11 4.2 15.2 0l38.1-38.1 38.1 38.1c4.2 4.2 11 4.2 15.2 0l17.5-17.5c4.2-4.2 4.2-11 .1-15.2z"></path>
    </g>
</svg>
