<svg width="512" height="512" version="1.1" xmlns="http://www.w3.org/2000/svg" desc="Created with imagetracer.js version 1.2.6" ><path fill="rgb(0,0,0)" stroke="rgb(0,0,0)" stroke-width="1" opacity="0.8941176470588236" d="M 254.5 6 L 258 6.5 L 254.5 7 L 254.5 6 Z " /><path fill="rgb(0,0,0)" stroke="rgb(0,0,0)" stroke-width="1" opacity="0.8941176470588236" d="M 223.5 8 L 226 8.5 L 223.5 9 L 223.5 8 Z " /><path fill="rgb(0,0,0)" stroke="rgb(0,0,0)" stroke-width="1" opacity="0.8941176470588236" d="M 286.5 8 L 289 8.5 L 286.5 9 L 286.5 8 Z " /><path fill="rgb(0,0,0)" stroke="rgb(0,0,0)" stroke-width="1" opacity="0.8941176470588236" d="M 102.5 57 L 101.5 59 L 102.5 57 Z " /><path fill="rgb(0,0,0)" stroke="rgb(0,0,0)" stroke-width="1" opacity="0.8941176470588236" d="M 409.5 57 L 410.5 59 L 409.5 57 Z " /><path fill="rgb(0,0,0)" stroke="rgb(0,0,0)" stroke-width="1" opacity="0.8941176470588236" d="M 98.5 60 L 97.5 62 L 98.5 60 Z " /><path fill="rgb(0,0,0)" stroke="rgb(0,0,0)" stroke-width="1" opacity="0.8941176470588236" d="M 413.5 60 L 414.5 62 L 413.5 60 Z " /><path fill="rgb(0,0,0)" stroke="rgb(0,0,0)" stroke-width="1" opacity="0.8941176470588236" d="M 92.5 65 L 91.5 67 L 92.5 65 Z " /><path fill="rgb(0,0,0)" stroke="rgb(0,0,0)" stroke-width="1" opacity="0.8941176470588236" d="M 419.5 65 L 420.5 67 L 419.5 65 Z " /><path fill="rgb(0,0,0)" stroke="rgb(0,0,0)" stroke-width="1" opacity="0.8941176470588236" d="M 87.5 69 L 83.5 74 L 87.5 69 Z " /><path fill="rgb(0,0,0)" stroke="rgb(0,0,0)" stroke-width="1" opacity="0.8941176470588236" d="M 424.5 69 L 429.5 75 L 424.5 69 Z " /><path fill="rgb(0,0,0)" stroke="rgb(0,0,0)" stroke-width="1" opacity="0.8941176470588236" d="M 67.5 89 L 63.5 94 L 67.5 89 Z " /><path fill="rgb(0,0,0)" stroke="rgb(0,0,0)" stroke-width="1" opacity="0.8941176470588236" d="M 444.5 89 L 448.5 94 L 444.5 89 Z " /><path fill="rgb(0,0,0)" stroke="rgb(0,0,0)" stroke-width="1" opacity="0.8941176470588236" d="M 60.5 97 L 58.5 100 L 60.5 97 Z " /><path fill="rgb(0,0,0)" stroke="rgb(0,0,0)" stroke-width="1" opacity="0.8941176470588236" d="M 451.5 97 L 453.5 100 L 451.5 97 Z " /><path fill="rgb(0,0,0)" stroke="rgb(0,0,0)" stroke-width="1" opacity="0.8941176470588236" d="M 55.5 103 L 54.5 105 L 55.5 103 Z " /><path fill="rgb(0,0,0)" stroke="rgb(0,0,0)" stroke-width="1" opacity="0.8941176470588236" d="M 456.5 103 L 457.5 105 L 456.5 103 Z " /><path fill="rgb(0,0,0)" stroke="rgb(0,0,0)" stroke-width="1" opacity="0.8941176470588236" d="M 49.5 111 L 48.5 113 L 49.5 111 Z " /><path fill="rgb(0,0,0)" stroke="rgb(0,0,0)" stroke-width="1" opacity="0.8941176470588236" d="M 131.5 111 L 134 111.5 L 131.5 112 L 131.5 111 Z " /><path fill="rgb(0,0,0)" stroke="rgb(0,0,0)" stroke-width="1" opacity="0.8941176470588236" d="M 462.5 111 L 463.5 113 L 462.5 111 Z " /><path fill="rgb(0,0,0)" stroke="rgb(0,0,0)" stroke-width="1" opacity="0.8941176470588236" d="M 44.5 118 L 43.5 120 L 44.5 118 Z " /><path fill="rgb(0,0,0)" stroke="rgb(0,0,0)" stroke-width="1" opacity="0.8941176470588236" d="M 467.5 118 L 468.5 120 L 467.5 118 Z " /><path fill="rgb(0,0,0)" stroke="rgb(0,0,0)" stroke-width="1" opacity="0.8941176470588236" d="M 113.5 142 L 114 144.5 L 113 144.5 L 113.5 142 Z " /><path fill="rgb(0,0,0)" stroke="rgb(0,0,0)" stroke-width="1" opacity="0.8941176470588236" d="M 398.5 143 L 399 145.5 L 398 145.5 L 398.5 143 Z " /><path fill="rgb(0,0,0)" stroke="rgb(0,0,0)" stroke-width="1" opacity="0.8941176470588236" d="M 398.5 157 L 399 159.5 L 398 159.5 L 398.5 157 Z " /><path fill="rgb(0,0,0)" stroke="rgb(0,0,0)" stroke-width="1" opacity="0.8941176470588236" d="M 118.5 179 L 119 180.5 L 116 182.5 L 118.5 179 Z " /><path fill="rgb(0,0,0)" stroke="rgb(0,0,0)" stroke-width="1" opacity="0.8941176470588236" d="M 393.5 179 L 396 182.5 L 393 180.5 L 393.5 179 Z " /><path fill="rgb(0,0,0)" stroke="rgb(0,0,0)" stroke-width="1" opacity="0.8941176470588236" d="M 398.5 186 L 399.5 188 L 398.5 186 Z " /><path fill="rgb(0,0,0)" stroke="rgb(0,0,0)" stroke-width="1" opacity="0.8941176470588236" d="M 110.5 190 L 109.5 192 L 110.5 190 Z " /><path fill="rgb(0,0,0)" stroke="rgb(0,0,0)" stroke-width="1" opacity="0.8941176470588236" d="M 401.5 190 L 402.5 192 L 401.5 190 Z " /><path fill="rgb(0,0,0)" stroke="rgb(0,0,0)" stroke-width="1" opacity="0.8941176470588236" d="M 1.5 237 L 2 239.5 L 1 239.5 L 1.5 237 Z " /><path fill="rgb(0,0,0)" stroke="rgb(0,0,0)" stroke-width="1" opacity="0.8941176470588236" d="M 510.5 237 L 511 239.5 L 510 239.5 L 510.5 237 Z " /><path fill="rgb(0,0,0)" stroke="rgb(0,0,0)" stroke-width="1" opacity="0.8941176470588236" d="M 92.5 242 L 93 247.5 L 92 247.5 L 92.5 242 Z " /><path fill="rgb(0,0,0)" stroke="rgb(0,0,0)" stroke-width="1" opacity="0.8941176470588236" d="M 419.5 242 L 420 247.5 L 419 247.5 L 419.5 242 Z " /><path fill="rgb(0,0,0)" stroke="rgb(0,0,0)" stroke-width="1" opacity="0.8941176470588236" d="M 92.5 250 L 93 257.5 L 92 257.5 L 92.5 250 Z " /><path fill="rgb(0,0,0)" stroke="rgb(0,0,0)" stroke-width="1" opacity="0.8941176470588236" d="M 419.5 250 L 420 257.5 L 419 257.5 L 419.5 250 Z " /><path fill="rgb(0,0,0)" stroke="rgb(0,0,0)" stroke-width="1" opacity="0.8941176470588236" d="M 0.5 252 L 1 259.5 L 0 259.5 L 0.5 252 Z " /><path fill="rgb(0,0,0)" stroke="rgb(0,0,0)" stroke-width="1" opacity="0.8941176470588236" d="M 511.5 252 L 512 259.5 L 511 259.5 L 511.5 252 Z " /><path fill="rgb(0,0,0)" stroke="rgb(0,0,0)" stroke-width="1" opacity="0.8941176470588236" d="M 0.5 264 L 1 270.5 L 0 270.5 L 0.5 264 Z " /><path fill="rgb(0,0,0)" stroke="rgb(0,0,0)" stroke-width="1" opacity="0.8941176470588236" d="M 511.5 264 L 512 269.5 L 511 269.5 L 511.5 264 Z " /><path fill="rgb(0,0,0)" stroke="rgb(0,0,0)" stroke-width="1" opacity="0.8941176470588236" d="M 510.5 285 L 511 287.5 L 510 287.5 L 510.5 285 Z " /><path fill="rgb(0,0,0)" stroke="rgb(0,0,0)" stroke-width="1" opacity="0.8941176470588236" d="M 115.5 332 L 116.5 334 L 115.5 332 Z " /><path fill="rgb(0,0,0)" stroke="rgb(0,0,0)" stroke-width="1" opacity="0.8941176470588236" d="M 396.5 332 L 395.5 334 L 396.5 332 Z " /><path fill="rgb(0,0,0)" stroke="rgb(0,0,0)" stroke-width="1" opacity="0.8941176470588236" d="M 120.5 338 L 125.5 344 L 120.5 338 Z " /><path fill="rgb(0,0,0)" stroke="rgb(0,0,0)" stroke-width="1" opacity="0.8941176470588236" d="M 390.5 339 L 388.5 342 L 390.5 339 Z " /><path fill="rgb(0,0,0)" stroke="rgb(0,0,0)" stroke-width="1" opacity="0.8941176470588236" d="M 130.5 347 L 131.5 349 L 130.5 347 Z " /><path fill="rgb(0,0,0)" stroke="rgb(0,0,0)" stroke-width="1" opacity="0.8941176470588236" d="M 134.5 350 L 135.5 352 L 134.5 350 Z " /><path fill="rgb(0,0,0)" stroke="rgb(0,0,0)" stroke-width="1" opacity="0.8941176470588236" d="M 106.5 373 L 109.5 377 L 106.5 373 Z " /><path fill="rgb(0,0,0)" stroke="rgb(0,0,0)" stroke-width="1" opacity="0.8941176470588236" d="M 73.5 374 L 75.5 377 L 73.5 374 Z " /><path fill="rgb(0,0,0)" stroke="rgb(0,0,0)" stroke-width="1" opacity="0.8941176470588236" d="M 112.5 379 L 114.5 382 L 112.5 379 Z " /><path fill="rgb(0,0,0)" stroke="rgb(0,0,0)" stroke-width="1" opacity="0.8941176470588236" d="M 84.5 382 L 89.5 388 L 84.5 382 Z " /><path fill="rgb(0,0,0)" stroke="rgb(0,0,0)" stroke-width="1" opacity="0.8941176470588236" d="M 92.5 391 L 93.5 393 L 92.5 391 Z " /><path fill="rgb(0,0,0)" stroke="rgb(0,0,0)" stroke-width="1" opacity="0.8941176470588236" d="M 124.5 396 L 125.5 398 L 124.5 396 Z " /><path fill="rgb(0,0,0)" stroke="rgb(0,0,0)" stroke-width="1" opacity="0.8941176470588236" d="M 43.5 404 L 44.5 406 L 43.5 404 Z " /><path fill="rgb(0,0,0)" stroke="rgb(0,0,0)" stroke-width="1" opacity="0.8941176470588236" d="M 468.5 404 L 467.5 406 L 468.5 404 Z " /><path fill="rgb(0,0,0)" stroke="rgb(0,0,0)" stroke-width="1" opacity="0.8941176470588236" d="M 134.5 406 L 135.5 408 L 134.5 406 Z " /><path fill="rgb(0,0,0)" stroke="rgb(0,0,0)" stroke-width="1" opacity="0.8941176470588236" d="M 45.5 407 L 46.5 409 L 45.5 407 Z " /><path fill="rgb(0,0,0)" stroke="rgb(0,0,0)" stroke-width="1" opacity="0.8941176470588236" d="M 466.5 407 L 465.5 409 L 466.5 407 Z " /><path fill="rgb(0,0,0)" stroke="rgb(0,0,0)" stroke-width="1" opacity="0.8941176470588236" d="M 50.5 414 L 51.5 416 L 50.5 414 Z " /><path fill="rgb(0,0,0)" stroke="rgb(0,0,0)" stroke-width="1" opacity="0.8941176470588236" d="M 461.5 414 L 460.5 416 L 461.5 414 Z " /><path fill="rgb(0,0,0)" stroke="rgb(0,0,0)" stroke-width="1" opacity="0.8941176470588236" d="M 167.5 415 L 170 415.5 L 167.5 416 L 167.5 415 Z " /><path fill="rgb(0,0,0)" stroke="rgb(0,0,0)" stroke-width="1" opacity="0.8941176470588236" d="M 54.5 419 L 55.5 421 L 54.5 419 Z " /><path fill="rgb(0,0,0)" stroke="rgb(0,0,0)" stroke-width="1" opacity="0.8941176470588236" d="M 457.5 419 L 456.5 421 L 457.5 419 Z " /><path fill="rgb(0,0,0)" stroke="rgb(0,0,0)" stroke-width="1" opacity="0.8941176470588236" d="M 111.5 426 L 112.5 428 L 111.5 426 Z " /><path fill="rgb(0,0,0)" stroke="rgb(0,0,0)" stroke-width="1" opacity="0.8941176470588236" d="M 61.5 428 L 65.5 433 L 61.5 428 Z " /><path fill="rgb(0,0,0)" stroke="rgb(0,0,0)" stroke-width="1" opacity="0.8941176470588236" d="M 450.5 428 L 446.5 433 L 450.5 428 Z " /><path fill="rgb(0,0,0)" stroke="rgb(0,0,0)" stroke-width="1" opacity="0.8941176470588236" d="M 120.5 435 L 121.5 437 L 120.5 435 Z " /><path fill="rgb(0,0,0)" stroke="rgb(0,0,0)" stroke-width="1" opacity="0.8941176470588236" d="M 71.5 439 L 79.5 448 L 71.5 439 Z " /><path fill="rgb(0,0,0)" stroke="rgb(0,0,0)" stroke-width="1" opacity="0.8941176470588236" d="M 440.5 439 L 432.5 448 L 440.5 439 Z " /><path fill="rgb(0,0,0)" stroke="rgb(0,0,0)" stroke-width="1" opacity="0.8941176470588236" d="M 155.5 447 L 158 447.5 L 155.5 448 L 155.5 447 Z " /><path fill="rgb(0,0,0)" stroke="rgb(0,0,0)" stroke-width="1" opacity="0.8941176470588236" d="M 178.5 447 L 181 447.5 L 178.5 448 L 178.5 447 Z " /><path fill="rgb(0,0,0)" stroke="rgb(0,0,0)" stroke-width="1" opacity="0.8941176470588236" d="M 89.5 456 L 91.5 459 L 89.5 456 Z " /><path fill="rgb(0,0,0)" stroke="rgb(0,0,0)" stroke-width="1" opacity="0.8941176470588236" d="M 422.5 456 L 421.5 458 L 422.5 456 Z " /><path fill="rgb(0,0,0)" stroke="rgb(0,0,0)" stroke-width="1" opacity="0.8941176470588236" d="M 94.5 460 L 95.5 462 L 94.5 460 Z " /><path fill="rgb(0,0,0)" stroke="rgb(0,0,0)" stroke-width="1" opacity="0.8941176470588236" d="M 417.5 460 L 416.5 462 L 417.5 460 Z " /><path fill="rgb(0,0,0)" stroke="rgb(0,0,0)" stroke-width="1" opacity="0.8941176470588236" d="M 99.5 464 L 100.5 466 L 99.5 464 Z " /><path fill="rgb(0,0,0)" stroke="rgb(0,0,0)" stroke-width="1" opacity="0.8941176470588236" d="M 412.5 464 L 411.5 466 L 412.5 464 Z " /><path fill="rgb(0,0,0)" stroke="rgb(0,0,0)" stroke-width="1" opacity="0.8941176470588236" d="M 104.5 468 L 105.5 470 L 104.5 468 Z " /><path fill="rgb(0,0,0)" stroke="rgb(0,0,0)" stroke-width="1" opacity="0.8941176470588236" d="M 407.5 468 L 406.5 470 L 407.5 468 Z " /><path fill="rgb(0,0,0)" stroke="rgb(0,0,0)" stroke-width="1" opacity="1" d="M 236.5 7 L 275.5 7 L 276.5 8 L 293.5 9 L 323.5 15 L 347.5 23 Q 405.3 46.2 444 88.5 Q 475.1 121.9 494 167.5 Q 503 190 508 216.5 L 508 222.5 L 510 229.5 L 510 239.5 L 511 240.5 L 511 259.5 L 512 263.5 L 511 264.5 L 511 284.5 L 510 285.5 L 509 302.5 L 505 322.5 L 498 346.5 L 489 368.5 Q 464.2 420.2 423.5 456 Q 401.1 475.6 373.5 490 L 337.5 505 L 328.5 505 L 322 500.5 L 320 495.5 L 320 412.5 Q 317.5 411 319 405.5 L 315 391.5 L 304 375 Q 360.5 370.8 391 339.5 Q 406.9 322.4 414 296.5 L 419 270.5 L 420 242.5 L 419 241.5 L 419 232.5 L 414 212.5 Q 406.8 193.7 394 180.5 L 394 177.5 L 397 170.5 L 399 159.5 L 399 143.5 L 398 142.5 L 397 130.5 L 391 112 Q 387.1 109.6 377.5 111 L 351.5 120 Q 334.3 127.3 320.5 138 L 317.5 138 L 293.5 132 L 277.5 131 L 276.5 130 L 257.5 130 L 255.5 129 L 254.5 130 L 225.5 131 L 191.5 138 L 178.5 129 L 150.5 116 L 133.5 111 L 123.5 111 L 120 113.5 L 114 135.5 L 113 159.5 L 118 180.5 Q 105.2 193.7 98 212.5 L 93 232.5 L 92 257.5 L 93 258.5 L 93 270.5 L 94 271.5 L 95 284.5 L 102 308.5 Q 110.2 329.8 125.5 344 Q 141.1 357.9 162.5 366 L 183.5 372 L 208 375 L 197 391.5 L 194 400.5 L 193 408.5 L 191.5 410 L 175.5 415 L 155.5 416 L 142.5 412 Q 132.8 406.8 126 398.5 L 115 381.5 L 106.5 373 Q 97.7 365.8 85.5 362 L 71.5 362 L 67 365.5 Q 69.6 372.9 75.5 377 Q 86.3 381.3 92 390.5 L 99 400.5 L 111 426.5 L 121.5 437 Q 129.6 443.4 141.5 446 L 147.5 446 L 155.5 448 L 180.5 448 L 192 446 L 192 496.5 L 186.5 504 Q 182.7 506.7 174.5 505 Q 146.2 495.3 122.5 481 Q 90.3 461.2 66 433.5 Q 35.3 400.2 17 354.5 L 8 326.5 L 3 302.5 L 3 294.5 L 1 285.5 L 1 264.5 L 0 260.5 L 1 259.5 L 2 229.5 L 6 206.5 Q 11.4 182.9 20 162.5 Q 43.2 110.2 82.5 74 Q 113.5 45.5 154.5 27 L 192.5 14 L 218.5 9 L 235.5 8 L 236.5 7 Z " /><path fill="rgb(0,0,0)" stroke="rgb(0,0,0)" stroke-width="1" opacity="0" d="M 0 0 L 512 0 L 512 240.5 L 511 240.5 L 510 223.5 L 504 194.5 L 498 175.5 L 487 149.5 Q 463.6 102.9 426.5 70 Q 390 37.5 339.5 19 L 314.5 12 L 292.5 8 L 274.5 7 L 273.5 6 L 238.5 6 L 237.5 7 L 227.5 7 L 226.5 8 L 219.5 8 L 197.5 12 L 172.5 19 L 152.5 27 Q 99.9 50.9 64 91.5 Q 36.6 122.1 19 162.5 L 7 198.5 L 2 223.5 L 0.5 241 L 0 0 Z " /><path fill="rgb(0,0,0)" stroke="rgb(0,0,0)" stroke-width="1" opacity="0" d="M 122.5 112 L 133.5 112 L 150.5 117 L 176.5 129 L 189.5 138 L 193.5 139 L 206.5 135 L 211.5 135 L 224.5 132 L 260.5 130 L 261.5 131 L 287.5 132 L 320.5 139 Q 339.5 125 363.5 116 L 377.5 112 L 388.5 112 Q 399.8 129.7 398 160.5 L 393 180.5 Q 407.8 195.7 415 218.5 L 419 239.5 L 419 261.5 L 418 262.5 L 418 272.5 L 415 289.5 L 407 313.5 Q 397.9 333.9 381.5 347 Q 366.3 358.8 346.5 366 L 328.5 371 L 305.5 374 L 302 375.5 Q 314.4 385.6 318 404.5 Q 316.8 409.2 319 410.5 L 319 495.5 Q 320.5 502 325.5 505 L 337.5 506 Q 398.8 484.8 439 442.5 Q 470 411 490 368.5 L 500 343.5 L 506 322.5 L 508 307.5 L 510 301.5 L 511.5 284 L 512 512 L 0 512 L 0 284.5 L 1 284.5 L 2 301.5 L 4 307.5 L 6 322.5 L 12 343.5 L 22 368.5 Q 43.1 413.4 76.5 446 Q 97 466.5 122.5 482 L 158.5 500 L 174.5 506 L 183.5 506 L 191 500.5 L 193 496.5 L 193 445 L 181.5 447 L 154.5 447 L 134.5 443 Q 120.3 437.7 112 426.5 L 100 400.5 L 85.5 382 Q 76.7 378.3 71 371.5 L 68 365.5 L 71.5 363 L 79.5 362 Q 100.6 365.9 112 379.5 L 124 397.5 L 134.5 408 L 147.5 415 L 162.5 417 L 163.5 416 L 174.5 416 L 183.5 414 L 191.5 411 L 194 408.5 L 195 399.5 L 198 391.5 L 209 375 L 178.5 370 L 157.5 363 Q 136.8 354.2 122 339.5 L 109 321.5 L 98 293.5 L 94 272.5 L 93 239.5 L 94 238.5 L 95 226.5 L 101 207.5 Q 107.3 192.8 118 182.5 L 119 178.5 L 114 160.5 L 114 140.5 L 117 125.5 L 122.5 112 Z " /><path fill="rgb(0,0,0)" stroke="rgb(0,0,0)" stroke-width="1" opacity="0.1607843137254902" d="M 238.5 6 L 243 6.5 L 238.5 7 L 238.5 6 Z " /><path fill="rgb(0,0,0)" stroke="rgb(0,0,0)" stroke-width="1" opacity="0.1607843137254902" d="M 269.5 6 L 274 6.5 L 269.5 7 L 269.5 6 Z " /><path fill="rgb(0,0,0)" stroke="rgb(0,0,0)" stroke-width="1" opacity="0.1607843137254902" d="M 227.5 7 L 230 7.5 L 227.5 8 L 227.5 7 Z " /><path fill="rgb(0,0,0)" stroke="rgb(0,0,0)" stroke-width="1" opacity="0.1607843137254902" d="M 282.5 7 L 285 7.5 L 282.5 8 L 282.5 7 Z " /><path fill="rgb(0,0,0)" stroke="rgb(0,0,0)" stroke-width="1" opacity="0.1607843137254902" d="M 97.5 60 L 96.5 62 L 97.5 60 Z " /><path fill="rgb(0,0,0)" stroke="rgb(0,0,0)" stroke-width="1" opacity="0.1607843137254902" d="M 414.5 60 L 415.5 62 L 414.5 60 Z " /><path fill="rgb(0,0,0)" stroke="rgb(0,0,0)" stroke-width="1" opacity="0.1607843137254902" d="M 91.5 65 L 90.5 67 L 91.5 65 Z " /><path fill="rgb(0,0,0)" stroke="rgb(0,0,0)" stroke-width="1" opacity="0.1607843137254902" d="M 420.5 65 L 421.5 67 L 420.5 65 Z " /><path fill="rgb(0,0,0)" stroke="rgb(0,0,0)" stroke-width="1" opacity="0.1607843137254902" d="M 85.5 70 L 80.5 76 L 85.5 70 Z " /><path fill="rgb(0,0,0)" stroke="rgb(0,0,0)" stroke-width="1" opacity="0.1607843137254902" d="M 426.5 70 L 431.5 76 L 426.5 70 Z " /><path fill="rgb(0,0,0)" stroke="rgb(0,0,0)" stroke-width="1" opacity="0.1607843137254902" d="M 69.5 86 L 64.5 92 L 69.5 86 Z " /><path fill="rgb(0,0,0)" stroke="rgb(0,0,0)" stroke-width="1" opacity="0.1607843137254902" d="M 442.5 86 L 447.5 92 L 442.5 86 Z " /><path fill="rgb(0,0,0)" stroke="rgb(0,0,0)" stroke-width="1" opacity="0.1607843137254902" d="M 60.5 96 L 59.5 98 L 60.5 96 Z " /><path fill="rgb(0,0,0)" stroke="rgb(0,0,0)" stroke-width="1" opacity="0.1607843137254902" d="M 451.5 96 L 452.5 98 L 451.5 96 Z " /><path fill="rgb(0,0,0)" stroke="rgb(0,0,0)" stroke-width="1" opacity="0.1607843137254902" d="M 55.5 102 L 54.5 104 L 55.5 102 Z " /><path fill="rgb(0,0,0)" stroke="rgb(0,0,0)" stroke-width="1" opacity="0.1607843137254902" d="M 456.5 102 L 457.5 104 L 456.5 102 Z " /><path fill="rgb(0,0,0)" stroke="rgb(0,0,0)" stroke-width="1" opacity="0.1607843137254902" d="M 49.5 110 L 48.5 112 L 49.5 110 Z " /><path fill="rgb(0,0,0)" stroke="rgb(0,0,0)" stroke-width="1" opacity="0.1607843137254902" d="M 462.5 110 L 463.5 112 L 462.5 110 Z " /><path fill="rgb(0,0,0)" stroke="rgb(0,0,0)" stroke-width="1" opacity="0.1607843137254902" d="M 389.5 112 L 390.5 114 L 389.5 112 Z " /><path fill="rgb(0,0,0)" stroke="rgb(0,0,0)" stroke-width="1" opacity="0.1607843137254902" d="M 44.5 117 L 43.5 119 L 44.5 117 Z " /><path fill="rgb(0,0,0)" stroke="rgb(0,0,0)" stroke-width="1" opacity="0.1607843137254902" d="M 467.5 117 L 468.5 119 L 467.5 117 Z " /><path fill="rgb(0,0,0)" stroke="rgb(0,0,0)" stroke-width="1" opacity="0.1607843137254902" d="M 244.5 130 L 251 130.5 L 244.5 131 L 244.5 130 Z " /><path fill="rgb(0,0,0)" stroke="rgb(0,0,0)" stroke-width="1" opacity="0.1607843137254902" d="M 261.5 130 L 268 130.5 L 261.5 131 L 261.5 130 Z " /><path fill="rgb(0,0,0)" stroke="rgb(0,0,0)" stroke-width="1" opacity="0.1607843137254902" d="M 231.5 131 L 234 131.5 L 231.5 132 L 231.5 131 Z " /><path fill="rgb(0,0,0)" stroke="rgb(0,0,0)" stroke-width="1" opacity="0.1607843137254902" d="M 278.5 131 L 281 131.5 L 278.5 132 L 278.5 131 Z " /><path fill="rgb(0,0,0)" stroke="rgb(0,0,0)" stroke-width="1" opacity="0.1607843137254902" d="M 117.5 182 L 116.5 184 L 117.5 182 Z " /><path fill="rgb(0,0,0)" stroke="rgb(0,0,0)" stroke-width="1" opacity="0.1607843137254902" d="M 394.5 182 L 395.5 184 L 394.5 182 Z " /><path fill="rgb(0,0,0)" stroke="rgb(0,0,0)" stroke-width="1" opacity="0.1607843137254902" d="M 110.5 191 L 109.5 193 L 110.5 191 Z " /><path fill="rgb(0,0,0)" stroke="rgb(0,0,0)" stroke-width="1" opacity="0.1607843137254902" d="M 0.5 241 L 1 243.5 L 0 243.5 L 0.5 241 Z " /><path fill="rgb(0,0,0)" stroke="rgb(0,0,0)" stroke-width="1" opacity="0.1607843137254902" d="M 511.5 241 L 512 243.5 L 511 243.5 L 511.5 241 Z " /><path fill="rgb(0,0,0)" stroke="rgb(0,0,0)" stroke-width="1" opacity="0.1607843137254902" d="M 93.5 262 L 94 264.5 L 93 264.5 L 93.5 262 Z " /><path fill="rgb(0,0,0)" stroke="rgb(0,0,0)" stroke-width="1" opacity="0.1607843137254902" d="M 418.5 262 L 419 264.5 L 418 264.5 L 418.5 262 Z " /><path fill="rgb(0,0,0)" stroke="rgb(0,0,0)" stroke-width="1" opacity="0.1607843137254902" d="M 511.5 280 L 512 283.5 L 511 283.5 L 511.5 280 Z " /><path fill="rgb(0,0,0)" stroke="rgb(0,0,0)" stroke-width="1" opacity="0.1607843137254902" d="M 0.5 281 L 1 283.5 L 0 283.5 L 0.5 281 Z " /><path fill="rgb(0,0,0)" stroke="rgb(0,0,0)" stroke-width="1" opacity="0.1607843137254902" d="M 115.5 331 L 116.5 333 L 115.5 331 Z " /><path fill="rgb(0,0,0)" stroke="rgb(0,0,0)" stroke-width="1" opacity="0.1607843137254902" d="M 396.5 331 L 395.5 333 L 396.5 331 Z " /><path fill="rgb(0,0,0)" stroke="rgb(0,0,0)" stroke-width="1" opacity="0.1607843137254902" d="M 119.5 336 L 121.5 339 L 119.5 336 Z " /><path fill="rgb(0,0,0)" stroke="rgb(0,0,0)" stroke-width="1" opacity="0.1607843137254902" d="M 391.5 337 L 386.5 343 L 391.5 337 Z " /><path fill="rgb(0,0,0)" stroke="rgb(0,0,0)" stroke-width="1" opacity="0.1607843137254902" d="M 124.5 341 L 127.5 345 L 124.5 341 Z " /><path fill="rgb(0,0,0)" stroke="rgb(0,0,0)" stroke-width="1" opacity="0.1607843137254902" d="M 131.5 347 L 132.5 349 L 131.5 347 Z " /><path fill="rgb(0,0,0)" stroke="rgb(0,0,0)" stroke-width="1" opacity="0.1607843137254902" d="M 135.5 350 L 136.5 352 L 135.5 350 Z " /><path fill="rgb(0,0,0)" stroke="rgb(0,0,0)" stroke-width="1" opacity="0.1607843137254902" d="M 73.5 362 L 77 362.5 L 73.5 363 L 73.5 362 Z " /><path fill="rgb(0,0,0)" stroke="rgb(0,0,0)" stroke-width="1" opacity="0.1607843137254902" d="M 105.5 373 L 106.5 375 L 105.5 373 Z " /><path fill="rgb(0,0,0)" stroke="rgb(0,0,0)" stroke-width="1" opacity="0.1607843137254902" d="M 208.5 376 L 207.5 378 L 208.5 376 Z " /><path fill="rgb(0,0,0)" stroke="rgb(0,0,0)" stroke-width="1" opacity="0.1607843137254902" d="M 112.5 380 L 114.5 383 L 112.5 380 Z " /><path fill="rgb(0,0,0)" stroke="rgb(0,0,0)" stroke-width="1" opacity="0.1607843137254902" d="M 85.5 382 L 89.5 387 L 85.5 382 Z " /><path fill="rgb(0,0,0)" stroke="rgb(0,0,0)" stroke-width="1" opacity="0.1607843137254902" d="M 92.5 390 L 93.5 392 L 92.5 390 Z " /><path fill="rgb(0,0,0)" stroke="rgb(0,0,0)" stroke-width="1" opacity="0.1607843137254902" d="M 124.5 397 L 125.5 399 L 124.5 397 Z " /><path fill="rgb(0,0,0)" stroke="rgb(0,0,0)" stroke-width="1" opacity="0.1607843137254902" d="M 133.5 406 L 134.5 408 L 133.5 406 Z " /><path fill="rgb(0,0,0)" stroke="rgb(0,0,0)" stroke-width="1" opacity="0.1607843137254902" d="M 47.5 411 L 48.5 413 L 47.5 411 Z " /><path fill="rgb(0,0,0)" stroke="rgb(0,0,0)" stroke-width="1" opacity="0.1607843137254902" d="M 464.5 411 L 463.5 413 L 464.5 411 Z " /><path fill="rgb(0,0,0)" stroke="rgb(0,0,0)" stroke-width="1" opacity="0.1607843137254902" d="M 50.5 415 L 51.5 417 L 50.5 415 Z " /><path fill="rgb(0,0,0)" stroke="rgb(0,0,0)" stroke-width="1" opacity="0.1607843137254902" d="M 461.5 415 L 460.5 417 L 461.5 415 Z " /><path fill="rgb(0,0,0)" stroke="rgb(0,0,0)" stroke-width="1" opacity="0.1607843137254902" d="M 157.5 416 L 163 416.5 L 157.5 417 L 157.5 416 Z " /><path fill="rgb(0,0,0)" stroke="rgb(0,0,0)" stroke-width="1" opacity="0.1607843137254902" d="M 54.5 420 L 55.5 422 L 54.5 420 Z " /><path fill="rgb(0,0,0)" stroke="rgb(0,0,0)" stroke-width="1" opacity="0.1607843137254902" d="M 457.5 420 L 456.5 422 L 457.5 420 Z " /><path fill="rgb(0,0,0)" stroke="rgb(0,0,0)" stroke-width="1" opacity="0.1607843137254902" d="M 58.5 425 L 59.5 427 L 58.5 425 Z " /><path fill="rgb(0,0,0)" stroke="rgb(0,0,0)" stroke-width="1" opacity="0.1607843137254902" d="M 453.5 425 L 452.5 427 L 453.5 425 Z " /><path fill="rgb(0,0,0)" stroke="rgb(0,0,0)" stroke-width="1" opacity="0.1607843137254902" d="M 62.5 430 L 66.5 435 L 62.5 430 Z " /><path fill="rgb(0,0,0)" stroke="rgb(0,0,0)" stroke-width="1" opacity="0.1607843137254902" d="M 115.5 430 L 116.5 432 L 115.5 430 Z " /><path fill="rgb(0,0,0)" stroke="rgb(0,0,0)" stroke-width="1" opacity="0.1607843137254902" d="M 449.5 430 L 445.5 435 L 449.5 430 Z " /><path fill="rgb(0,0,0)" stroke="rgb(0,0,0)" stroke-width="1" opacity="0.1607843137254902" d="M 73.5 442 L 76.5 446 L 73.5 442 Z " /><path fill="rgb(0,0,0)" stroke="rgb(0,0,0)" stroke-width="1" opacity="0.1607843137254902" d="M 438.5 442 L 435.5 446 L 438.5 442 Z " /><path fill="rgb(0,0,0)" stroke="rgb(0,0,0)" stroke-width="1" opacity="0.1607843137254902" d="M 192.5 445 L 193 447.5 L 192 447.5 L 192.5 445 Z " /><path fill="rgb(0,0,0)" stroke="rgb(0,0,0)" stroke-width="1" opacity="0.1607843137254902" d="M 165.5 447 L 170 447.5 L 165.5 448 L 165.5 447 Z " /><path fill="rgb(0,0,0)" stroke="rgb(0,0,0)" stroke-width="1" opacity="0.1607843137254902" d="M 86.5 454 L 89.5 458 L 86.5 454 Z " /><path fill="rgb(0,0,0)" stroke="rgb(0,0,0)" stroke-width="1" opacity="0.1607843137254902" d="M 425.5 454 L 422.5 458 L 425.5 454 Z " /><path fill="rgb(0,0,0)" stroke="rgb(0,0,0)" stroke-width="1" opacity="0.1607843137254902" d="M 93.5 460 L 94.5 462 L 93.5 460 Z " /><path fill="rgb(0,0,0)" stroke="rgb(0,0,0)" stroke-width="1" opacity="0.1607843137254902" d="M 418.5 460 L 417.5 462 L 418.5 460 Z " /><path fill="rgb(0,0,0)" stroke="rgb(0,0,0)" stroke-width="1" opacity="0.1607843137254902" d="M 98.5 464 L 99.5 466 L 98.5 464 Z " /><path fill="rgb(0,0,0)" stroke="rgb(0,0,0)" stroke-width="1" opacity="0.1607843137254902" d="M 413.5 464 L 412.5 466 L 413.5 464 Z " /><path fill="rgb(0,0,0)" stroke="rgb(0,0,0)" stroke-width="1" opacity="0.1607843137254902" d="M 103.5 468 L 104.5 470 L 103.5 468 Z " /><path fill="rgb(0,0,0)" stroke="rgb(0,0,0)" stroke-width="1" opacity="0.1607843137254902" d="M 408.5 468 L 407.5 470 L 408.5 468 Z " /><path fill="rgb(0,0,0)" stroke="rgb(0,0,0)" stroke-width="1" opacity="0.1607843137254902" d="M 319.5 493 L 320 495.5 L 319 495.5 L 319.5 493 Z " /><path fill="rgb(0,0,0)" stroke="rgb(0,0,0)" stroke-width="1" opacity="0.5019607843137255" d="M 243.5 6 L 254 6.5 L 243.5 7 L 243.5 6 Z " /><path fill="rgb(0,0,0)" stroke="rgb(0,0,0)" stroke-width="1" opacity="0.5019607843137255" d="M 258.5 6 L 269 6.5 L 258.5 7 L 258.5 6 Z " /><path fill="rgb(0,0,0)" stroke="rgb(0,0,0)" stroke-width="1" opacity="0.5019607843137255" d="M 230.5 7 L 234 7.5 L 230.5 8 L 230.5 7 Z " /><path fill="rgb(0,0,0)" stroke="rgb(0,0,0)" stroke-width="1" opacity="0.5019607843137255" d="M 278.5 7 L 282 7.5 L 278.5 8 L 278.5 7 Z " /><path fill="rgb(0,0,0)" stroke="rgb(0,0,0)" stroke-width="1" opacity="0.5019607843137255" d="M 220.5 8 L 223 8.5 L 220.5 9 L 220.5 8 Z " /><path fill="rgb(0,0,0)" stroke="rgb(0,0,0)" stroke-width="1" opacity="0.5019607843137255" d="M 289.5 8 L 292 8.5 L 289.5 9 L 289.5 8 Z " /><path fill="rgb(0,0,0)" stroke="rgb(0,0,0)" stroke-width="1" opacity="0.5019607843137255" d="M 107.5 53 L 106.5 55 L 107.5 53 Z " /><path fill="rgb(0,0,0)" stroke="rgb(0,0,0)" stroke-width="1" opacity="0.5019607843137255" d="M 404.5 53 L 405.5 55 L 404.5 53 Z " /><path fill="rgb(0,0,0)" stroke="rgb(0,0,0)" stroke-width="1" opacity="0.5019607843137255" d="M 100.5 58 L 99.5 60 L 100.5 58 Z " /><path fill="rgb(0,0,0)" stroke="rgb(0,0,0)" stroke-width="1" opacity="0.5019607843137255" d="M 411.5 58 L 412.5 60 L 411.5 58 Z " /><path fill="rgb(0,0,0)" stroke="rgb(0,0,0)" stroke-width="1" opacity="0.5019607843137255" d="M 95.5 62 L 93.5 65 L 95.5 62 Z " /><path fill="rgb(0,0,0)" stroke="rgb(0,0,0)" stroke-width="1" opacity="0.5019607843137255" d="M 416.5 62 L 418.5 65 L 416.5 62 Z " /><path fill="rgb(0,0,0)" stroke="rgb(0,0,0)" stroke-width="1" opacity="0.5019607843137255" d="M 89.5 67 L 88.5 69 L 89.5 67 Z " /><path fill="rgb(0,0,0)" stroke="rgb(0,0,0)" stroke-width="1" opacity="0.5019607843137255" d="M 422.5 67 L 423.5 69 L 422.5 67 Z " /><path fill="rgb(0,0,0)" stroke="rgb(0,0,0)" stroke-width="1" opacity="0.5019607843137255" d="M 79.5 76 L 70.5 86 L 79.5 76 Z " /><path fill="rgb(0,0,0)" stroke="rgb(0,0,0)" stroke-width="1" opacity="0.5019607843137255" d="M 432.5 76 L 441.5 86 L 432.5 76 Z " /><path fill="rgb(0,0,0)" stroke="rgb(0,0,0)" stroke-width="1" opacity="0.5019607843137255" d="M 62.5 94 L 61.5 96 L 62.5 94 Z " /><path fill="rgb(0,0,0)" stroke="rgb(0,0,0)" stroke-width="1" opacity="0.5019607843137255" d="M 449.5 94 L 450.5 96 L 449.5 94 Z " /><path fill="rgb(0,0,0)" stroke="rgb(0,0,0)" stroke-width="1" opacity="0.5019607843137255" d="M 57.5 100 L 56.5 102 L 57.5 100 Z " /><path fill="rgb(0,0,0)" stroke="rgb(0,0,0)" stroke-width="1" opacity="0.5019607843137255" d="M 454.5 100 L 455.5 102 L 454.5 100 Z " /><path fill="rgb(0,0,0)" stroke="rgb(0,0,0)" stroke-width="1" opacity="0.5019607843137255" d="M 53.5 105 L 52.5 107 L 53.5 105 Z " /><path fill="rgb(0,0,0)" stroke="rgb(0,0,0)" stroke-width="1" opacity="0.5019607843137255" d="M 458.5 105 L 459.5 107 L 458.5 105 Z " /><path fill="rgb(0,0,0)" stroke="rgb(0,0,0)" stroke-width="1" opacity="0.5019607843137255" d="M 125.5 111 L 131 111.5 L 125.5 112 L 125.5 111 Z " /><path fill="rgb(0,0,0)" stroke="rgb(0,0,0)" stroke-width="1" opacity="0.5019607843137255" d="M 379.5 111 L 387 111.5 L 379.5 112 L 379.5 111 Z " /><path fill="rgb(0,0,0)" stroke="rgb(0,0,0)" stroke-width="1" opacity="0.5019607843137255" d="M 237.5 130 L 244 130.5 L 237.5 131 L 237.5 130 Z " /><path fill="rgb(0,0,0)" stroke="rgb(0,0,0)" stroke-width="1" opacity="0.5019607843137255" d="M 268.5 130 L 275 130.5 L 268.5 131 L 268.5 130 Z " /><path fill="rgb(0,0,0)" stroke="rgb(0,0,0)" stroke-width="1" opacity="0.5019607843137255" d="M 227.5 131 L 231 131.5 L 227.5 132 L 227.5 131 Z " /><path fill="rgb(0,0,0)" stroke="rgb(0,0,0)" stroke-width="1" opacity="0.5019607843137255" d="M 281.5 131 L 285 131.5 L 281.5 132 L 281.5 131 Z " /><path fill="rgb(0,0,0)" stroke="rgb(0,0,0)" stroke-width="1" opacity="0.5019607843137255" d="M 113.5 145 L 114 157.5 L 113 157.5 L 113.5 145 Z " /><path fill="rgb(0,0,0)" stroke="rgb(0,0,0)" stroke-width="1" opacity="0.5019607843137255" d="M 398.5 146 L 399 156.5 L 398 156.5 L 398.5 146 Z " /><path fill="rgb(0,0,0)" stroke="rgb(0,0,0)" stroke-width="1" opacity="0.5019607843137255" d="M 115.5 184 L 113.5 187 L 115.5 184 Z " /><path fill="rgb(0,0,0)" stroke="rgb(0,0,0)" stroke-width="1" opacity="0.5019607843137255" d="M 396.5 184 L 397.5 186 L 396.5 184 Z " /><path fill="rgb(0,0,0)" stroke="rgb(0,0,0)" stroke-width="1" opacity="0.5019607843137255" d="M 402.5 192 L 403.5 194 L 402.5 192 Z " /><path fill="rgb(0,0,0)" stroke="rgb(0,0,0)" stroke-width="1" opacity="0.5019607843137255" d="M 1.5 233 L 2 236.5 L 1 236.5 L 1.5 233 Z " /><path fill="rgb(0,0,0)" stroke="rgb(0,0,0)" stroke-width="1" opacity="0.5019607843137255" d="M 510.5 233 L 511 236.5 L 510 236.5 L 510.5 233 Z " /><path fill="rgb(0,0,0)" stroke="rgb(0,0,0)" stroke-width="1" opacity="0.5019607843137255" d="M 93.5 234 L 94 236.5 L 93 236.5 L 93.5 234 Z " /><path fill="rgb(0,0,0)" stroke="rgb(0,0,0)" stroke-width="1" opacity="0.5019607843137255" d="M 418.5 234 L 419 236.5 L 418 236.5 L 418.5 234 Z " /><path fill="rgb(0,0,0)" stroke="rgb(0,0,0)" stroke-width="1" opacity="0.5019607843137255" d="M 0.5 244 L 1 251.5 L 0 251.5 L 0.5 244 Z " /><path fill="rgb(0,0,0)" stroke="rgb(0,0,0)" stroke-width="1" opacity="0.5019607843137255" d="M 511.5 244 L 512 251.5 L 511 251.5 L 511.5 244 Z " /><path fill="rgb(0,0,0)" stroke="rgb(0,0,0)" stroke-width="1" opacity="0.5019607843137255" d="M 93.5 265 L 94 268.5 L 93 268.5 L 93.5 265 Z " /><path fill="rgb(0,0,0)" stroke="rgb(0,0,0)" stroke-width="1" opacity="0.5019607843137255" d="M 418.5 265 L 419 268.5 L 418 268.5 L 418.5 265 Z " /><path fill="rgb(0,0,0)" stroke="rgb(0,0,0)" stroke-width="1" opacity="0.5019607843137255" d="M 511.5 270 L 512 279.5 L 511 279.5 L 511.5 270 Z " /><path fill="rgb(0,0,0)" stroke="rgb(0,0,0)" stroke-width="1" opacity="0.5019607843137255" d="M 0.5 271 L 1 280.5 L 0 280.5 L 0.5 271 Z " /><path fill="rgb(0,0,0)" stroke="rgb(0,0,0)" stroke-width="1" opacity="0.5019607843137255" d="M 1.5 288 L 2 290.5 L 1 290.5 L 1.5 288 Z " /><path fill="rgb(0,0,0)" stroke="rgb(0,0,0)" stroke-width="1" opacity="0.5019607843137255" d="M 510.5 288 L 511 290.5 L 510 290.5 L 510.5 288 Z " /><path fill="rgb(0,0,0)" stroke="rgb(0,0,0)" stroke-width="1" opacity="0.5019607843137255" d="M 2.5 296 L 3 299.5 L 2 299.5 L 2.5 296 Z " /><path fill="rgb(0,0,0)" stroke="rgb(0,0,0)" stroke-width="1" opacity="0.5019607843137255" d="M 509.5 296 L 510 299.5 L 509 299.5 L 509.5 296 Z " /><path fill="rgb(0,0,0)" stroke="rgb(0,0,0)" stroke-width="1" opacity="0.5019607843137255" d="M 117.5 334 L 118.5 336 L 117.5 334 Z " /><path fill="rgb(0,0,0)" stroke="rgb(0,0,0)" stroke-width="1" opacity="0.5019607843137255" d="M 394.5 334 L 392.5 337 L 394.5 334 Z " /><path fill="rgb(0,0,0)" stroke="rgb(0,0,0)" stroke-width="1" opacity="0.5019607843137255" d="M 385.5 343 L 382.5 347 L 385.5 343 Z " /><path fill="rgb(0,0,0)" stroke="rgb(0,0,0)" stroke-width="1" opacity="0.5019607843137255" d="M 128.5 345 L 129.5 347 L 128.5 345 Z " /><path fill="rgb(0,0,0)" stroke="rgb(0,0,0)" stroke-width="1" opacity="0.5019607843137255" d="M 379.5 348 L 378.5 350 L 379.5 348 Z " /><path fill="rgb(0,0,0)" stroke="rgb(0,0,0)" stroke-width="1" opacity="0.5019607843137255" d="M 69.5 363 L 68.5 365 L 69.5 363 Z " /><path fill="rgb(0,0,0)" stroke="rgb(0,0,0)" stroke-width="1" opacity="0.5019607843137255" d="M 103.5 371 L 104.5 373 L 103.5 371 Z " /><path fill="rgb(0,0,0)" stroke="rgb(0,0,0)" stroke-width="1" opacity="0.5019607843137255" d="M 71.5 372 L 72.5 374 L 71.5 372 Z " /><path fill="rgb(0,0,0)" stroke="rgb(0,0,0)" stroke-width="1" opacity="0.5019607843137255" d="M 195.5 373 L 198 373.5 L 195.5 374 L 195.5 373 Z " /><path fill="rgb(0,0,0)" stroke="rgb(0,0,0)" stroke-width="1" opacity="0.5019607843137255" d="M 202.5 374 L 205 374.5 L 202.5 375 L 202.5 374 Z " /><path fill="rgb(0,0,0)" stroke="rgb(0,0,0)" stroke-width="1" opacity="0.5019607843137255" d="M 303.5 376 L 307.5 381 L 303.5 376 Z " /><path fill="rgb(0,0,0)" stroke="rgb(0,0,0)" stroke-width="1" opacity="0.5019607843137255" d="M 110.5 377 L 111.5 379 L 110.5 377 Z " /><path fill="rgb(0,0,0)" stroke="rgb(0,0,0)" stroke-width="1" opacity="0.5019607843137255" d="M 206.5 378 L 203.5 382 L 206.5 378 Z " /><path fill="rgb(0,0,0)" stroke="rgb(0,0,0)" stroke-width="1" opacity="0.5019607843137255" d="M 82.5 380 L 83.5 382 L 82.5 380 Z " /><path fill="rgb(0,0,0)" stroke="rgb(0,0,0)" stroke-width="1" opacity="0.5019607843137255" d="M 90.5 388 L 91.5 390 L 90.5 388 Z " /><path fill="rgb(0,0,0)" stroke="rgb(0,0,0)" stroke-width="1" opacity="0.5019607843137255" d="M 122.5 394 L 123.5 396 L 122.5 394 Z " /><path fill="rgb(0,0,0)" stroke="rgb(0,0,0)" stroke-width="1" opacity="0.5019607843137255" d="M 126.5 399 L 132.5 406 L 126.5 399 Z " /><path fill="rgb(0,0,0)" stroke="rgb(0,0,0)" stroke-width="1" opacity="0.5019607843137255" d="M 46.5 409 L 47.5 411 L 46.5 409 Z " /><path fill="rgb(0,0,0)" stroke="rgb(0,0,0)" stroke-width="1" opacity="0.5019607843137255" d="M 465.5 409 L 464.5 411 L 465.5 409 Z " /><path fill="rgb(0,0,0)" stroke="rgb(0,0,0)" stroke-width="1" opacity="0.5019607843137255" d="M 319.5 414 L 320 492.5 L 319 492.5 L 319.5 414 Z " /><path fill="rgb(0,0,0)" stroke="rgb(0,0,0)" stroke-width="1" opacity="0.5019607843137255" d="M 170.5 415 L 173 415.5 L 170.5 416 L 170.5 415 Z " /><path fill="rgb(0,0,0)" stroke="rgb(0,0,0)" stroke-width="1" opacity="0.5019607843137255" d="M 52.5 417 L 53.5 419 L 52.5 417 Z " /><path fill="rgb(0,0,0)" stroke="rgb(0,0,0)" stroke-width="1" opacity="0.5019607843137255" d="M 459.5 417 L 458.5 419 L 459.5 417 Z " /><path fill="rgb(0,0,0)" stroke="rgb(0,0,0)" stroke-width="1" opacity="0.5019607843137255" d="M 56.5 422 L 57.5 424 L 56.5 422 Z " /><path fill="rgb(0,0,0)" stroke="rgb(0,0,0)" stroke-width="1" opacity="0.5019607843137255" d="M 455.5 422 L 454.5 424 L 455.5 422 Z " /><path fill="rgb(0,0,0)" stroke="rgb(0,0,0)" stroke-width="1" opacity="0.5019607843137255" d="M 113.5 428 L 114.5 430 L 113.5 428 Z " /><path fill="rgb(0,0,0)" stroke="rgb(0,0,0)" stroke-width="1" opacity="0.5019607843137255" d="M 117.5 432 L 119.5 435 L 117.5 432 Z " /><path fill="rgb(0,0,0)" stroke="rgb(0,0,0)" stroke-width="1" opacity="0.5019607843137255" d="M 67.5 435 L 70.5 439 L 67.5 435 Z " /><path fill="rgb(0,0,0)" stroke="rgb(0,0,0)" stroke-width="1" opacity="0.5019607843137255" d="M 444.5 435 L 441.5 439 L 444.5 435 Z " /><path fill="rgb(0,0,0)" stroke="rgb(0,0,0)" stroke-width="1" opacity="0.5019607843137255" d="M 149.5 446 L 152 446.5 L 149.5 447 L 149.5 446 Z " /><path fill="rgb(0,0,0)" stroke="rgb(0,0,0)" stroke-width="1" opacity="0.5019607843137255" d="M 158.5 447 L 165 447.5 L 158.5 448 L 158.5 447 Z " /><path fill="rgb(0,0,0)" stroke="rgb(0,0,0)" stroke-width="1" opacity="0.5019607843137255" d="M 170.5 447 L 178 447.5 L 170.5 448 L 170.5 447 Z " /><path fill="rgb(0,0,0)" stroke="rgb(0,0,0)" stroke-width="1" opacity="0.5019607843137255" d="M 80.5 448 L 85.5 454 L 80.5 448 Z " /><path fill="rgb(0,0,0)" stroke="rgb(0,0,0)" stroke-width="1" opacity="0.5019607843137255" d="M 192.5 448 L 193 495.5 L 192 495.5 L 192.5 448 Z " /><path fill="rgb(0,0,0)" stroke="rgb(0,0,0)" stroke-width="1" opacity="0.5019607843137255" d="M 431.5 448 L 426.5 454 L 431.5 448 Z " /><path fill="rgb(0,0,0)" stroke="rgb(0,0,0)" stroke-width="1" opacity="0.5019607843137255" d="M 420.5 458 L 419.5 460 L 420.5 458 Z " /><path fill="rgb(0,0,0)" stroke="rgb(0,0,0)" stroke-width="1" opacity="0.5019607843137255" d="M 96.5 462 L 97.5 464 L 96.5 462 Z " /><path fill="rgb(0,0,0)" stroke="rgb(0,0,0)" stroke-width="1" opacity="0.5019607843137255" d="M 415.5 462 L 414.5 464 L 415.5 462 Z " /><path fill="rgb(0,0,0)" stroke="rgb(0,0,0)" stroke-width="1" opacity="0.5019607843137255" d="M 101.5 466 L 102.5 468 L 101.5 466 Z " /><path fill="rgb(0,0,0)" stroke="rgb(0,0,0)" stroke-width="1" opacity="0.5019607843137255" d="M 410.5 466 L 409.5 468 L 410.5 466 Z " /><path fill="rgb(0,0,0)" stroke="rgb(0,0,0)" stroke-width="1" opacity="0.5019607843137255" d="M 190.5 500 L 187.5 504 L 190.5 500 Z " /><path fill="rgb(0,0,0)" stroke="rgb(0,0,0)" stroke-width="1" opacity="0.5019607843137255" d="M 322.5 501 L 324.5 504 L 322.5 501 Z " /><path fill="rgb(0,0,0)" stroke="rgb(0,0,0)" stroke-width="1" opacity="0.5019607843137255" d="M 176.5 505 L 179 505.5 L 176.5 506 L 176.5 505 Z " /><path fill="rgb(0,0,0)" stroke="rgb(0,0,0)" stroke-width="1" opacity="0.5019607843137255" d="M 180.5 505 L 183 505.5 L 180.5 506 L 180.5 505 Z " /><path fill="rgb(0,0,0)" stroke="rgb(0,0,0)" stroke-width="1" opacity="0.5019607843137255" d="M 329.5 505 L 332 505.5 L 329.5 506 L 329.5 505 Z " /><path fill="rgb(0,0,0)" stroke="rgb(0,0,0)" stroke-width="1" opacity="0.5019607843137255" d="M 333.5 505 L 336 505.5 L 333.5 506 L 333.5 505 Z " /></svg>