<svg width="8346" height="8346" viewBox="0 0 8346 8346" fill="none" xmlns="http://www.w3.org/2000/svg">
<path d="M6587.33 2414.59L6518.27 3125.51L7093.68 3548.69L6741.43 4170.06L7094.97 4790.7L6520.45 5215.08L6590.98 5925.85L5893.52 6079.86L5668.86 6757.88L4969.05 6614.89L4488.04 7142.91L3906.89 6727.64L3252.7 7014.37L2890.7 6398.63L2176.45 6394.48L2096.19 5684.74L1445.37 5390.44L1660.73 4709.41L1185.88 4175.84L1659.62 3641.29L1442.84 2960.71L2093.05 2665.06L2171.83 1955.15L2886.07 1949.52L3246.79 1333.03L3901.58 1618.39L4481.86 1201.92L4963.97 1728.93L5663.47 1584.49L5889.54 2262.03L6587.33 2414.59Z" stroke="#333333" stroke-width="70"/>
<path d="M3657.49 3910.87C3942.94 3273.57 3643.58 2918.23 3485.39 2831.31C4069.49 2716.58 4648.38 3973.45 3918.25 4588.85C3380.13 5042.41 2927.36 4647.95 2796.98 4369.81C3052.52 4541.91 3433.24 4411.53 3657.49 3910.87Z" fill="#333333" stroke="#333333"/>
<path d="M4945.65 3775.27C5231.1 3137.98 4931.74 2782.64 4773.55 2695.72C5357.65 2580.99 5936.54 3837.85 5206.41 4453.25C4668.29 4906.82 4215.52 4512.36 4085.14 4234.21C4340.68 4406.32 4721.4 4275.93 4945.65 3775.27Z" fill="#333333" stroke="#333333"/>
<path d="M3283.21 5547.85C3279.69 5549.58 3276.1 5551.23 3272.46 5552.81C3118.09 5619.57 3215.3 5577.32 3283.21 5547.85Z" fill="#333333"/>
<path d="M3465.42 5187.74C3465.42 5279.4 3428.63 5476.46 3283.21 5547.85M3283.21 5547.85C3279.69 5549.58 3276.1 5551.23 3272.46 5552.81C3118.09 5619.57 3215.3 5577.32 3283.21 5547.85ZM4904.83 5005.21C4882.23 5121.68 4900.65 5354.63 5155.16 5354.63M4953.33 5268.8C4842.24 5448.51 4551.23 5657.12 4263.35 5657.12C3903.5 5657.12 3594.91 5562.94 3412.7 5411.7" stroke="#333333" stroke-width="70" stroke-linecap="round" stroke-linejoin="round"/>
<path d="M3283.21 5547.85C3279.69 5549.58 3276.1 5551.23 3272.46 5552.81C3118.09 5619.57 3215.3 5577.32 3283.21 5547.85Z" fill="#333333"/>
<path d="M3465.42 5187.74C3465.42 5279.4 3428.63 5476.46 3283.21 5547.85M3283.21 5547.85C3279.69 5549.58 3276.1 5551.23 3272.46 5552.81C3118.09 5619.57 3215.3 5577.32 3283.21 5547.85ZM4904.83 5005.21C4882.23 5121.68 4900.65 5354.63 5155.16 5354.63" stroke="#333333" stroke-width="100" stroke-linecap="round" stroke-linejoin="round"/>
</svg>
