<svg width="3561" height="3561" viewBox="0 0 3561 3561" fill="none" xmlns="http://www.w3.org/2000/svg">
<path d="M2905.79 1213.18L3452.52 1235.47L3024.02 1575.76L3013.59 1584.04L3026.08 1588.66L3539.16 1778.81L3026.47 1970.03L3014 1974.68L3024.44 1982.94L3453.65 2322.34L2906.97 2345.77L2893.67 2346.34L2901.05 2357.42L3204.38 2812.84L2677.21 2666.19L2664.38 2662.62L2667.98 2675.44L2815.72 3202.3L2359.68 2899.92L2348.58 2892.56L2348.04 2905.87L2325.74 3452.6L1985.46 3024.09L1977.18 3013.67L1972.55 3026.15L1782.4 3539.23L1591.18 3026.55L1586.53 3014.07L1578.27 3024.52L1238.88 3453.73L1215.45 2907.04L1214.88 2893.74L1203.79 2901.12L748.377 3204.45L895.027 2677.28L898.595 2664.45L885.777 2668.05L358.916 2815.8L661.293 2359.75L668.65 2348.65L655.347 2348.11L108.617 2325.82L537.121 1985.53L547.546 1977.25L535.063 1972.62L21.9797 1782.47L534.666 1591.25L547.14 1586.6L536.697 1578.34L107.486 1238.95L654.169 1215.52L667.47 1214.95L660.09 1203.87L356.765 748.449L883.932 895.1L896.759 898.668L893.164 885.849L745.417 358.988L1201.46 661.365L1212.56 668.722L1213.1 655.42L1235.4 108.689L1575.68 537.193L1583.96 547.619L1588.59 535.135L1778.74 22.0517L1969.96 534.738L1974.61 547.212L1982.87 536.769L2322.26 107.558L2345.69 654.241L2346.27 667.543L2357.35 660.162L2812.76 356.837L2666.11 884.004L2662.54 896.831L2675.36 893.236L3202.22 745.489L2899.85 1201.54L2892.49 1212.63L2905.79 1213.18Z" stroke="white" stroke-width="15"/>
</svg>
