<svg width="440" height="162" viewBox="0 0 440 162" fill="none" xmlns="http://www.w3.org/2000/svg">
<path d="M207 13L220 2L233 13L247 2.5L259 14L273 4.5L285.5 16L299 7.5L310.5 19.5L325.5 12L336 25L351.5 18L361 31.5L376.5 26L385 41L402 37.5L407 53H424.5L424 70.5L437 81L423.5 91.5L424 108L407 109L401.5 124.5L385.5 121.5L377 136L361.5 131L351.5 144L336.5 137.5L325.5 150.5L310.5 142.5L299.5 154.5L285 146.5L273 158L259 148L246.5 159.5L233 150L220 160L207 150L193.5 159.5L181 148L167 158L155 146.5L140.5 154.5L129.5 142.5L114.5 150.5L103.5 137.5L88.5 144L78.5 131L63 136L54.5 121.5L38.5 124.5L33 109L16 108L16.5 91.5L3 81L16 70.5L15.5 53H33L38 37.5L55 41L63.5 26L79 31.5L88.5 18L104 25L114.5 12L129.5 19.5L141 7.5L154.5 16L167 4.5L181 14L193 2.5L207 13Z" stroke="#0C0C0C" stroke-width="3"/>
</svg>
