<svg width="5910" height="5942" viewBox="0 0 5910 5942" fill="none" xmlns="http://www.w3.org/2000/svg">
<path d="M5402.14 1212.9L5333.09 1923.82L5908.49 2347.01L5556.25 2968.38L5909.79 3589.01L5335.26 4013.39L5405.8 4724.16L4708.33 4878.17L4483.67 5556.19L3783.87 5413.2L3302.85 5941.22L2721.71 5525.95L2067.52 5812.68L1705.52 5196.94L991.264 5192.79L911.003 4483.05L260.186 4188.75L475.543 3507.72L0.69501 2974.15L474.432 2439.6L257.658 1759.02L907.862 1463.37L986.645 753.459L1700.89 747.826L2061.61 131.337L2716.39 416.701L3296.67 0.22727L3778.78 527.245L4478.29 382.799L4704.36 1060.35L5402.14 1212.9Z" fill="#0C0C0C"/>
</svg>
