<svg width="371" height="371" version="1.1" xmlns="http://www.w3.org/2000/svg" desc="Created with imagetracer.js version 1.2.6" ><path fill="rgb(50,47,45)" stroke="rgb(50,47,45)" stroke-width="1" opacity="0.7411764705882353" d="M 206.5 36 L 207.5 38 L 206.5 36 Z " /><path fill="rgb(50,47,45)" stroke="rgb(50,47,45)" stroke-width="1" opacity="0.7411764705882353" d="M 351.5 168 L 352.5 170 L 351.5 168 Z " /><path fill="rgb(50,47,45)" stroke="rgb(50,47,45)" stroke-width="1" opacity="0.7411764705882353" d="M 369.5 180 Q 372.5 181.5 369.5 183 L 369.5 180 Z " /><path fill="rgb(50,47,45)" stroke="rgb(50,47,45)" stroke-width="1" opacity="0.7411764705882353" d="M 363.5 186 L 362.5 188 L 363.5 186 Z " /><path fill="rgb(50,47,45)" stroke="rgb(50,47,45)" stroke-width="1" opacity="0.7411764705882353" d="M 360.5 188 L 359.5 190 L 360.5 188 Z " /><path fill="rgb(50,47,45)" stroke="rgb(50,47,45)" stroke-width="1" opacity="0.7411764705882353" d="M 28.5 207 L 29.5 209 L 28.5 207 Z " /><path fill="rgb(50,47,45)" stroke="rgb(50,47,45)" stroke-width="1" opacity="0.7411764705882353" d="M 197.5 358 L 196.5 360 L 197.5 358 Z " /><path fill="rgb(51,47,45)" stroke="rgb(51,47,45)" stroke-width="1" opacity="1" d="M 181.5 1 L 184 2.5 L 211.5 44 L 252.5 17 L 258 15 L 265 61 L 270.5 61 L 314 52 L 304 104 L 357 115.5 L 330 154.5 L 370 181.5 L 327 211.5 L 356 257 L 309 265.5 L 319 313.5 L 317.5 313 L 267 304 L 256 356 L 216.5 329 L 189.5 370 L 159.5 327 L 114.5 356 L 113 353.5 L 106 309 L 57.5 319 L 58 317.5 L 67 267 L 15 256 L 15 253.5 L 41 217.5 L 41 215 L 1 190 Q -0.1 187.3 2.5 188 L 44 159.5 L 15 113 L 54.5 107 L 62 105 L 52 57 L 104 67 L 115 14 L 154.5 41 L 181.5 1 Z " /><path fill="rgb(0,0,0)" stroke="rgb(0,0,0)" stroke-width="1" opacity="0" d="M 0 0 L 180.5 0 L 181 1.5 L 154.5 41 L 115 14 L 103.5 67 L 52 57 L 59 94.5 L 61 99.5 L 61 105 L 15 113 L 16 116.5 L 44 159.5 L 1 188.5 L 2.5 191 L 41 216.5 L 14 256 L 67 267 L 57 319 L 104.5 309 L 106 310.5 L 113 354.5 L 114.5 356 L 159.5 327 L 188 370 L 192 367.5 L 216.5 330 L 255.5 357 L 260 340.5 L 267 304 L 319 314 L 310 265 L 354.5 258 L 356 256.5 L 329 214.5 L 328 210 L 370.5 182 L 371 371 L 0 371 L 0 0 Z " /><path fill="rgb(0,0,0)" stroke="rgb(0,0,0)" stroke-width="1" opacity="0" d="M 183 0 L 371 0 L 371 180.5 L 369.5 180 L 330 154.5 L 357 115.5 L 354.5 114 L 327.5 109 L 318.5 106 L 309.5 105 L 304 102.5 L 314 52 L 266 61 L 264 53.5 L 258 15 L 255.5 15 L 211.5 43 L 183 0 Z " /></svg>